Pliska-Italic.ufo
<glyph name="dollar" format="1">
  <advance width="500"/>
  <unicode hex="0024"/>
  <outline>
    <contour>
      <point x="497" y="612" type="curve"/>
      <point x="469" y="498" type="line"/>
      <point x="454" y="500" type="line"/>
      <point x="452" y="574"/>
      <point x="430" y="609"/>
      <point x="369" y="633" type="curve"/>
      <point x="313" y="396" type="line"/>
      <point x="430" y="305"/>
      <point x="455" y="269"/>
      <point x="455" y="190" type="curve" smooth="yes"/>
      <point x="455" y="120"/>
      <point x="420" y="60"/>
      <point x="361" y="30" type="curve" smooth="yes"/>
      <point x="322" y="10"/>
      <point x="288" y="3"/>
      <point x="215" y="0" type="curve"/>
      <point x="194" y="-89" type="line"/>
      <point x="159" y="-89" type="line"/>
      <point x="181" y="2" type="line"/>
      <point x="119" y="14"/>
      <point x="67" y="37"/>
      <point x="31" y="67" type="curve"/>
      <point x="58" y="190" type="line"/>
      <point x="74" y="193" type="line"/>
      <point x="85" y="88"/>
      <point x="111" y="51"/>
      <point x="189" y="32" type="curve"/>
      <point x="258" y="329" type="line"/>
      <point x="206" y="366"/>
      <point x="186" y="383"/>
      <point x="165" y="410" type="curve" smooth="yes"/>
      <point x="135" y="446"/>
      <point x="123" y="476"/>
      <point x="123" y="513" type="curve" smooth="yes"/>
      <point x="123" y="565"/>
      <point x="151" y="612"/>
      <point x="198" y="639" type="curve" smooth="yes"/>
      <point x="239" y="663"/>
      <point x="266" y="668"/>
      <point x="341" y="668" type="curve"/>
      <point x="358" y="731" type="line"/>
      <point x="392" y="731" type="line"/>
      <point x="376" y="663" type="line"/>
      <point x="423" y="652"/>
      <point x="465" y="635"/>
    </contour>
    <contour>
      <point x="282" y="420" type="curve"/>
      <point x="336" y="641" type="line"/>
      <point x="296" y="641"/>
      <point x="287" y="640"/>
      <point x="268" y="633" type="curve" smooth="yes"/>
      <point x="226" y="618"/>
      <point x="201" y="583"/>
      <point x="201" y="538" type="curve" smooth="yes"/>
      <point x="201" y="493"/>
      <point x="220" y="465"/>
    </contour>
    <contour>
      <point x="289" y="306" type="line"/>
      <point x="221" y="25" type="line"/>
      <point x="327" y="33"/>
      <point x="380" y="79"/>
      <point x="380" y="162" type="curve" smooth="yes"/>
      <point x="380" y="216"/>
      <point x="363" y="245"/>
      <point x="295" y="301" type="curve" smooth="yes"/>
    </contour>
  </outline>
</glyph>
<glyph name="percent" format="1">
  <advance width="832"/>
  <unicode hex="0025"/>
  <outline>
    <contour>
      <point x="683" y="371" type="curve" smooth="yes"/>
      <point x="750" y="371"/>
      <point x="790" y="330"/>
      <point x="790" y="263" type="curve" smooth="yes"/>
      <point x="790" y="187"/>
      <point x="758" y="108"/>
      <point x="704" y="51" type="curve" smooth="yes"/>
      <point x="672" y="18"/>
      <point x="632" y="0"/>
      <point x="588" y="0" type="curve" smooth="yes"/>
      <point x="512" y="0"/>
      <point x="468" y="50"/>
      <point x="468" y="136" type="curve" smooth="yes"/>
      <point x="468" y="252"/>
      <point x="577" y="371"/>
    </contour>
    <contour>
      <point x="694" y="339" type="curve" smooth="yes"/>
      <point x="662" y="339"/>
      <point x="634" y="320"/>
      <point x="607" y="280" type="curve" smooth="yes"/>
      <point x="573" y="232"/>
      <point x="544" y="149"/>
      <point x="544" y="101" type="curve" smooth="yes"/>
      <point x="544" y="54"/>
      <point x="564" y="30"/>
      <point x="605" y="30" type="curve" smooth="yes"/>
      <point x="634" y="30"/>
      <point x="663" y="44"/>
      <point x="685" y="68" type="curve" smooth="yes"/>
      <point x="733" y="119"/>
      <point x="765" y="196"/>
      <point x="765" y="259" type="curve" smooth="yes"/>
      <point x="765" y="303"/>
      <point x="733" y="339"/>
    </contour>
    <contour>
      <point x="653" y="676" type="line"/>
      <point x="267" y="-13" type="line"/>
      <point x="220" y="-13" type="line"/>
      <point x="570" y="613" type="line"/>
      <point x="528" y="590"/>
      <point x="504" y="583"/>
      <point x="458" y="583" type="curve" smooth="yes"/>
      <point x="431" y="583"/>
      <point x="416" y="585"/>
      <point x="396" y="593" type="curve"/>
      <point x="397" y="590"/>
      <point x="397" y="590"/>
      <point x="397" y="587" type="curve" smooth="yes"/>
      <point x="401" y="570"/>
      <point x="403" y="554"/>
      <point x="403" y="541" type="curve" smooth="yes"/>
      <point x="403" y="489"/>
      <point x="374" y="413"/>
      <point x="335" y="363" type="curve" smooth="yes"/>
      <point x="297" y="315"/>
      <point x="249" y="289"/>
      <point x="198" y="289" type="curve" smooth="yes"/>
      <point x="131" y="289"/>
      <point x="79" y="346"/>
      <point x="79" y="419" type="curve" smooth="yes"/>
      <point x="79" y="542"/>
      <point x="187" y="662"/>
      <point x="297" y="662" type="curve" smooth="yes"/>
      <point x="323" y="662"/>
      <point x="351" y="653"/>
      <point x="365" y="641" type="curve" smooth="yes"/>
      <point x="383" y="625" type="line" smooth="yes"/>
      <point x="395" y="614"/>
      <point x="420" y="608"/>
      <point x="452" y="608" type="curve" smooth="yes"/>
      <point x="519" y="608"/>
      <point x="563" y="627"/>
      <point x="613" y="676" type="curve"/>
    </contour>
    <contour>
      <point x="368" y="600" type="curve"/>
      <point x="341" y="607"/>
      <point x="332" y="611"/>
      <point x="316" y="624" type="curve" smooth="yes"/>
      <point x="309" y="630"/>
      <point x="305" y="632"/>
      <point x="301" y="632" type="curve" smooth="yes"/>
      <point x="238" y="632"/>
      <point x="155" y="493"/>
      <point x="155" y="386" type="curve" smooth="yes"/>
      <point x="155" y="347"/>
      <point x="178" y="323"/>
      <point x="214" y="323" type="curve" smooth="yes"/>
      <point x="296" y="323"/>
      <point x="377" y="436"/>
      <point x="377" y="549" type="curve" smooth="yes"/>
      <point x="377" y="565"/>
      <point x="375" y="578"/>
    </contour>
  </outline>
</glyph>
<glyph name="ampersand" format="1">
  <advance width="777"/>
  <unicode hex="0026"/>
  <outline>
    <contour>
      <point x="530" y="350" type="line"/>
      <point x="715" y="350" type="line"/>
      <point x="715" y="333" type="line"/>
      <point x="665" y="328"/>
      <point x="658" y="322"/>
      <point x="607" y="247" type="curve" smooth="yes"/>
      <point x="596" y="230"/>
      <point x="558" y="177"/>
      <point x="520" y="125" type="curve"/>
      <point x="560" y="58"/>
      <point x="595" y="31"/>
      <point x="642" y="31" type="curve" smooth="yes"/>
      <point x="665" y="31"/>
      <point x="683" y="39"/>
      <point x="712" y="61" type="curve"/>
      <point x="723" y="50" type="line"/>
      <point x="680" y="1"/>
      <point x="644" y="-18"/>
      <point x="594" y="-18" type="curve" smooth="yes"/>
      <point x="541" y="-18"/>
      <point x="502" y="4"/>
      <point x="457" y="61" type="curve"/>
      <point x="354" y="-5"/>
      <point x="321" y="-18"/>
      <point x="258" y="-18" type="curve" smooth="yes"/>
      <point x="147" y="-18"/>
      <point x="76" y="43"/>
      <point x="76" y="140" type="curve" smooth="yes"/>
      <point x="76" y="194"/>
      <point x="100" y="240"/>
      <point x="148" y="280" type="curve" smooth="yes"/>
      <point x="184" y="309"/>
      <point x="228" y="333"/>
      <point x="331" y="378" type="curve"/>
      <point x="330" y="393"/>
      <point x="329" y="403"/>
      <point x="328" y="409" type="curve" smooth="yes"/>
      <point x="325" y="435"/>
      <point x="324" y="451"/>
      <point x="324" y="460" type="curve" smooth="yes"/>
      <point x="324" y="581"/>
      <point x="390" y="666"/>
      <point x="484" y="666" type="curve" smooth="yes"/>
      <point x="542" y="666"/>
      <point x="586" y="625"/>
      <point x="586" y="572" type="curve" smooth="yes"/>
      <point x="586" y="538"/>
      <point x="567" y="503"/>
      <point x="532" y="471" type="curve" smooth="yes"/>
      <point x="505" y="447"/>
      <point x="476" y="428"/>
      <point x="414" y="397" type="curve"/>
      <point x="438" y="295"/>
      <point x="469" y="209"/>
      <point x="501" y="160" type="curve"/>
      <point x="564" y="236"/>
      <point x="580" y="265"/>
      <point x="580" y="299" type="curve" smooth="yes"/>
      <point x="580" y="321"/>
      <point x="569" y="328"/>
      <point x="530" y="331" type="curve"/>
    </contour>
    <contour>
      <point x="333" y="345" type="curve"/>
      <point x="233" y="307"/>
      <point x="170" y="236"/>
      <point x="170" y="164" type="curve" smooth="yes"/>
      <point x="170" y="91"/>
      <point x="225" y="34"/>
      <point x="298" y="34" type="curve" smooth="yes"/>
      <point x="348" y="34"/>
      <point x="391" y="51"/>
      <point x="438" y="90" type="curve"/>
      <point x="404" y="133"/>
      <point x="369" y="218"/>
    </contour>
    <contour>
      <point x="410" y="428" type="curve"/>
      <point x="454" y="456"/>
      <point x="456" y="458"/>
      <point x="473" y="473" type="curve" smooth="yes"/>
      <point x="504" y="502"/>
      <point x="517" y="532"/>
      <point x="517" y="577" type="curve" smooth="yes"/>
      <point x="517" y="617"/>
      <point x="504" y="634"/>
      <point x="472" y="634" type="curve" smooth="yes"/>
      <point x="427" y="634"/>
      <point x="405" y="592"/>
      <point x="405" y="504" type="curve" smooth="yes"/>
      <point x="405" y="478"/>
      <point x="406" y="458"/>
    </contour>
  </outline>
</glyph>
<glyph name="quotesingle" format="1">
  <advance width="213"/>
  <unicode hex="0027"/>
  <outline>
    <contour>
      <point x="153" y="421" type="curve"/>
      <point x="132" y="421" type="line"/>
      <point x="140" y="523"/>
      <point x="149" y="600"/>
      <point x="155" y="625" type="curve" smooth="yes"/>
      <point x="160" y="647"/>
      <point x="185" y="666"/>
      <point x="209" y="666" type="curve" smooth="yes"/>
      <point x="227" y="666"/>
      <point x="241" y="653"/>
      <point x="241" y="637" type="curve" smooth="yes"/>
      <point x="241" y="621"/>
      <point x="210" y="545"/>
    </contour>
  </outline>
</glyph>
<glyph name="parenleft" format="1">
  <advance width="332"/>
  <unicode hex="0028"/>
  <outline>
    <contour>
      <point x="159" y="-175" type="curve"/>
      <point x="141" y="-181" type="line"/>
      <point x="105" y="-115"/>
      <point x="90" y="-84"/>
      <point x="76" y="-41" type="curve" smooth="yes"/>
      <point x="54" y="28"/>
      <point x="42" y="103"/>
      <point x="42" y="180" type="curve" smooth="yes"/>
      <point x="42" y="256"/>
      <point x="53" y="318"/>
      <point x="79" y="381" type="curve" smooth="yes"/>
      <point x="121" y="485"/>
      <point x="172" y="551"/>
      <point x="302" y="669" type="curve"/>
      <point x="315" y="654" type="line"/>
      <point x="250" y="586"/>
      <point x="218" y="539"/>
      <point x="186" y="460" type="curve" smooth="yes"/>
      <point x="140" y="349"/>
      <point x="111" y="205"/>
      <point x="111" y="85" type="curve" smooth="yes"/>
      <point x="111" y="-11"/>
      <point x="123" y="-74"/>
    </contour>
  </outline>
</glyph>
<glyph name="parenright" format="1">
  <advance width="332"/>
  <unicode hex="0029"/>
  <outline>
    <contour>
      <point x="29" y="-180" type="curve"/>
      <point x="16" y="-165" type="line"/>
      <point x="77" y="-101"/>
      <point x="107" y="-59"/>
      <point x="136" y="6" type="curve" smooth="yes"/>
      <point x="186" y="113"/>
      <point x="220" y="275"/>
      <point x="220" y="402" type="curve" smooth="yes"/>
      <point x="220" y="502"/>
      <point x="205" y="583"/>
      <point x="171" y="664" type="curve"/>
      <point x="190" y="669" type="line"/>
      <point x="235" y="589"/>
      <point x="250" y="553"/>
      <point x="267" y="485" type="curve" smooth="yes"/>
      <point x="281" y="425"/>
      <point x="289" y="361"/>
      <point x="289" y="304" type="curve" smooth="yes"/>
      <point x="289" y="230"/>
      <point x="277" y="167"/>
      <point x="249" y="101" type="curve" smooth="yes"/>
      <point x="204" y="-8"/>
      <point x="153" y="-72"/>
    </contour>
  </outline>
</glyph>
<glyph name="asterisk" format="1">
  <advance width="500"/>
  <unicode hex="002A"/>
  <outline>
    <contour>
      <point x="319" y="500" type="curve" smooth="yes"/>
      <point x="319" y="473" type="line"/>
      <point x="362" y="502"/>
      <point x="367" y="506"/>
      <point x="418" y="561" type="curve" smooth="yes"/>
      <point x="433" y="578"/>
      <point x="441" y="582"/>
      <point x="454" y="582" type="curve" smooth="yes"/>
      <point x="476" y="582"/>
      <point x="492" y="567"/>
      <point x="492" y="545" type="curve" smooth="yes"/>
      <point x="492" y="519"/>
      <point x="477" y="508"/>
      <point x="435" y="501" type="curve" smooth="yes"/>
      <point x="388" y="493"/>
      <point x="371" y="486"/>
      <point x="328" y="459" type="curve"/>
      <point x="365" y="440" type="line" smooth="yes"/>
      <point x="380" y="432"/>
      <point x="403" y="425"/>
      <point x="431" y="420" type="curve" smooth="yes"/>
      <point x="475" y="413"/>
      <point x="492" y="401"/>
      <point x="492" y="378" type="curve" smooth="yes"/>
      <point x="492" y="356"/>
      <point x="475" y="339"/>
      <point x="454" y="339" type="curve" smooth="yes"/>
      <point x="439" y="339"/>
      <point x="427" y="347"/>
      <point x="408" y="371" type="curve" smooth="yes"/>
      <point x="382" y="403"/>
      <point x="359" y="423"/>
      <point x="326" y="442" type="curve" smooth="yes"/>
      <point x="319" y="446" type="line"/>
      <point x="320" y="393"/>
      <point x="324" y="371"/>
      <point x="339" y="329" type="curve" smooth="yes"/>
      <point x="345" y="311"/>
      <point x="347" y="303"/>
      <point x="347" y="295" type="curve" smooth="yes"/>
      <point x="347" y="272"/>
      <point x="331" y="255"/>
      <point x="308" y="255" type="curve" smooth="yes"/>
      <point x="288" y="255"/>
      <point x="273" y="271"/>
      <point x="273" y="293" type="curve" smooth="yes"/>
      <point x="273" y="302"/>
      <point x="276" y="314"/>
      <point x="283" y="334" type="curve" smooth="yes"/>
      <point x="297" y="371"/>
      <point x="302" y="395"/>
      <point x="302" y="417" type="curve" smooth="yes"/>
      <point x="302" y="422"/>
      <point x="302" y="429"/>
      <point x="300" y="446" type="curve"/>
      <point x="297" y="443"/>
      <point x="294" y="441"/>
      <point x="285" y="436" type="curve" smooth="yes"/>
      <point x="254" y="417"/>
      <point x="240" y="405"/>
      <point x="213" y="371" type="curve" smooth="yes"/>
      <point x="197" y="351"/>
      <point x="180" y="340"/>
      <point x="163" y="340" type="curve" smooth="yes"/>
      <point x="144" y="340"/>
      <point x="128" y="357"/>
      <point x="128" y="377" type="curve" smooth="yes"/>
      <point x="128" y="400"/>
      <point x="145" y="413"/>
      <point x="187" y="420" type="curve" smooth="yes"/>
      <point x="233" y="428"/>
      <point x="251" y="435"/>
      <point x="294" y="461" type="curve"/>
      <point x="282" y="468" type="line" smooth="yes"/>
      <point x="258" y="483"/>
      <point x="226" y="493"/>
      <point x="189" y="500" type="curve" smooth="yes"/>
      <point x="143" y="508"/>
      <point x="128" y="519"/>
      <point x="128" y="546" type="curve" smooth="yes"/>
      <point x="128" y="566"/>
      <point x="143" y="581"/>
      <point x="163" y="581" type="curve" smooth="yes"/>
      <point x="179" y="581"/>
      <point x="190" y="574"/>
      <point x="210" y="551" type="curve" smooth="yes"/>
      <point x="242" y="515"/>
      <point x="262" y="498"/>
      <point x="301" y="476" type="curve"/>
      <point x="301" y="519"/>
      <point x="297" y="542"/>
      <point x="284" y="587" type="curve" smooth="yes"/>
      <point x="277" y="608"/>
      <point x="275" y="617"/>
      <point x="275" y="626" type="curve" smooth="yes"/>
      <point x="275" y="651"/>
      <point x="288" y="666"/>
      <point x="310" y="666" type="curve" smooth="yes"/>
      <point x="331" y="666"/>
      <point x="346" y="650"/>
      <point x="346" y="627" type="curve" smooth="yes"/>
      <point x="346" y="616"/>
      <point x="343" y="603"/>
      <point x="335" y="577" type="curve" smooth="yes"/>
      <point x="323" y="543"/>
      <point x="319" y="522"/>
    </contour>
  </outline>
</glyph>
<glyph name="period" format="1">
  <advance width="250"/>
  <unicode hex="002E"/>
  <outline>
    <contour>
      <point x="82" y="100" type="curve" smooth="yes"/>
      <point x="112" y="100"/>
      <point x="138" y="74"/>
      <point x="138" y="43" type="curve" smooth="yes"/>
      <point x="138" y="13"/>
      <point x="112" y="-11"/>
      <point x="80" y="-11" type="curve" smooth="yes"/>
      <point x="52" y="-11"/>
      <point x="27" y="14"/>
      <point x="27" y="43" type="curve" smooth="yes"/>
      <point x="27" y="74"/>
      <point x="52" y="100"/>
    </contour>
  </outline>
</glyph>
<glyph name="one" format="1">
  <advance width="500"/>
  <unicode hex="0031"/>
  <outline>
    <contour>
      <point x="49" y="0" type="line"/>
      <point x="49" y="14" type="line"/>
      <point x="108" y="20"/>
      <point x="148" y="23"/>
      <point x="161" y="68" type="curve" smooth="yes"/>
      <point x="299" y="560" type="line" smooth="yes"/>
      <point x="302" y="571"/>
      <point x="306" y="585"/>
      <point x="306" y="593" type="curve" smooth="yes"/>
      <point x="306" y="625"/>
      <point x="277" y="625"/>
      <point x="268" y="625" type="curve" smooth="yes"/>
      <point x="211" y="623" type="line"/>
      <point x="211" y="638" type="line"/>
      <point x="258" y="646"/>
      <point x="397" y="676"/>
      <point x="405" y="676" type="curve" smooth="yes"/>
      <point x="407.877" y="676"/>
      <point x="408.943" y="673.414"/>
      <point x="408.943" y="669.357" type="curve" smooth="yes"/>
      <point x="408.943" y="662.133"/>
      <point x="405.562" y="650.246"/>
      <point x="403" y="640" type="curve" smooth="yes"/>
      <point x="260" y="121" type="line" smooth="yes"/>
      <point x="255" y="101"/>
      <point x="242" y="64"/>
      <point x="242" y="48" type="curve" smooth="yes"/>
      <point x="242" y="20.0026"/>
      <point x="271.364" y="14.8438"/>
      <point x="313.886" y="14.8438" type="curve" smooth="yes"/>
      <point x="318.446" y="14.8438"/>
      <point x="323.157" y="14.9031"/>
      <point x="328" y="15" type="curve"/>
      <point x="328" y="0" type="line"/>
    </contour>
  </outline>
</glyph>
<glyph name="two" format="1">
  <advance width="500"/>
  <unicode hex="0032"/>
  <outline>
    <contour>
      <point x="400" y="139" type="curve"/>
      <point x="417" y="132" type="line"/>
      <point x="367" y="0" type="line"/>
      <point x="12" y="0" type="line"/>
      <point x="12" y="17" type="line"/>
      <point x="222" y="241" type="line" smooth="yes"/>
      <point x="362" y="390"/>
      <point x="366" y="448"/>
      <point x="366" y="481" type="curve" smooth="yes"/>
      <point x="366" y="543"/>
      <point x="320" y="603"/>
      <point x="243" y="603" type="curve" smooth="yes"/>
      <point x="153" y="603"/>
      <point x="115" y="534"/>
      <point x="101" y="509" type="curve"/>
      <point x="80" y="516" type="line"/>
      <point x="134" y="672"/>
      <point x="265" y="676"/>
      <point x="290" y="676" type="curve" smooth="yes"/>
      <point x="396" y="676"/>
      <point x="452" y="584"/>
      <point x="452" y="509" type="curve" smooth="yes"/>
      <point x="452" y="442"/>
      <point x="427" y="397"/>
      <point x="303" y="273" type="curve" smooth="yes"/>
      <point x="111" y="81" type="line"/>
      <point x="111" y="76" type="line"/>
      <point x="301" y="76" type="line" smooth="yes"/>
      <point x="367" y="76"/>
      <point x="383" y="103"/>
    </contour>
  </outline>
</glyph>
<glyph name="three" format="1">
  <advance width="500"/>
  <unicode hex="0033"/>
  <outline>
    <contour>
      <point x="178" y="567" type="curve"/>
      <point x="162" y="572" type="line"/>
      <point x="187" y="632"/>
      <point x="262" y="676"/>
      <point x="319" y="676" type="curve" smooth="yes"/>
      <point x="393" y="676"/>
      <point x="465" y="634"/>
      <point x="465" y="551" type="curve" smooth="yes"/>
      <point x="465" y="475"/>
      <point x="415" y="440"/>
      <point x="310" y="401" type="curve"/>
      <point x="310" y="398" type="line"/>
      <point x="336" y="386"/>
      <point x="405" y="356"/>
      <point x="405" y="246" type="curve" smooth="yes"/>
      <point x="405" y="135"/>
      <point x="314" y="-7"/>
      <point x="129" y="-7" type="curve" smooth="yes"/>
      <point x="70" y="-7"/>
      <point x="15" y="7"/>
      <point x="15" y="52" type="curve" smooth="yes"/>
      <point x="15" y="73"/>
      <point x="25" y="91"/>
      <point x="62" y="91" type="curve" smooth="yes"/>
      <point x="108" y="91"/>
      <point x="141" y="31"/>
      <point x="197" y="31" type="curve" smooth="yes"/>
      <point x="231" y="31"/>
      <point x="325" y="65"/>
      <point x="325" y="191" type="curve" smooth="yes"/>
      <point x="325" y="320.402"/>
      <point x="249.819" y="361.808"/>
      <point x="161.841" y="361.808" type="curve" smooth="yes"/>
      <point x="154.635" y="361.808"/>
      <point x="147.343" y="361.53"/>
      <point x="140" y="361" type="curve"/>
      <point x="139" y="377" type="line"/>
      <point x="239" y="391"/>
      <point x="378" y="435"/>
      <point x="378" y="543" type="curve" smooth="yes"/>
      <point x="378" y="610"/>
      <point x="329" y="634"/>
      <point x="291" y="634" type="curve" smooth="yes"/>
      <point x="228" y="634"/>
      <point x="193" y="587"/>
    </contour>
  </outline>
</glyph>
<glyph name="six" format="1">
  <advance width="500"/>
  <unicode hex="0036"/>
  <outline>
    <contour>
      <point x="520" y="686" type="curve"/>
      <point x="521" y="670" type="line"/>
      <point x="345" y="647"/>
      <point x="223" y="478"/>
      <point x="199" y="428" type="curve"/>
      <point x="203" y="426" type="line"/>
      <point x="217" y="433"/>
      <point x="231" y="438"/>
      <point x="246" y="441" type="curve" smooth="yes"/>
      <point x="261" y="445"/>
      <point x="276" y="447"/>
      <point x="292" y="447" type="curve" smooth="yes"/>
      <point x="360" y="447"/>
      <point x="461" y="405"/>
      <point x="461" y="263" type="curve" smooth="yes"/>
      <point x="461" y="162"/>
      <point x="380" y="-7"/>
      <point x="210" y="-7" type="curve" smooth="yes"/>
      <point x="129" y="-7"/>
      <point x="30" y="46"/>
      <point x="30" y="210" type="curve" smooth="yes"/>
      <point x="30" y="416"/>
      <point x="215" y="667"/>
    </contour>
    <contour>
      <point x="254" y="411" type="curve" smooth="yes"/>
      <point x="116" y="411"/>
      <point x="106" y="173"/>
      <point x="106" y="157" type="curve" smooth="yes"/>
      <point x="106" y="131"/>
      <point x="106" y="19"/>
      <point x="204" y="19" type="curve" smooth="yes"/>
      <point x="318" y="19"/>
      <point x="372" y="191"/>
      <point x="372" y="281" type="curve" smooth="yes"/>
      <point x="372" y="363"/>
      <point x="330" y="411"/>
    </contour>
  </outline>
</glyph>
<glyph name="colon" format="1">
  <advance width="332"/>
  <unicode hex="003A"/>
  <outline>
    <contour>
      <point x="106" y="100" type="curve" smooth="yes"/>
      <point x="136" y="100"/>
      <point x="161" y="74"/>
      <point x="161" y="43" type="curve" smooth="yes"/>
      <point x="161" y="13"/>
      <point x="136" y="-11"/>
      <point x="104" y="-11" type="curve" smooth="yes"/>
      <point x="75" y="-11"/>
      <point x="50" y="14"/>
      <point x="50" y="43" type="curve" smooth="yes"/>
      <point x="50" y="74"/>
      <point x="75" y="100"/>
    </contour>
    <contour>
      <point x="205" y="441" type="curve" smooth="yes"/>
      <point x="236" y="441"/>
      <point x="261" y="416"/>
      <point x="261" y="384" type="curve" smooth="yes"/>
      <point x="261" y="354"/>
      <point x="236" y="330"/>
      <point x="204" y="330" type="curve" smooth="yes"/>
      <point x="174" y="330"/>
      <point x="150" y="354"/>
      <point x="150" y="384" type="curve" smooth="yes"/>
      <point x="150" y="416"/>
      <point x="174" y="441"/>
    </contour>
  </outline>
</glyph>
<glyph name="question" format="1">
  <advance width="500"/>
  <unicode hex="003F"/>
  <outline>
    <contour>
      <point x="216" y="174" type="line"/>
      <point x="199" y="176" type="line"/>
      <point x="216" y="275"/>
      <point x="228" y="297"/>
      <point x="311" y="392" type="curve" smooth="yes"/>
      <point x="376" y="463"/>
      <point x="398" y="505"/>
      <point x="398" y="557" type="curve" smooth="yes"/>
      <point x="398" y="611"/>
      <point x="369" y="642"/>
      <point x="318" y="642" type="curve" smooth="yes"/>
      <point x="275" y="642"/>
      <point x="248" y="624"/>
      <point x="248" y="594" type="curve" smooth="yes"/>
      <point x="248" y="586"/>
      <point x="250" y="580"/>
      <point x="256" y="567" type="curve" smooth="yes"/>
      <point x="261" y="555"/>
      <point x="263" y="549"/>
      <point x="263" y="542" type="curve" smooth="yes"/>
      <point x="263" y="522"/>
      <point x="246" y="507"/>
      <point x="223" y="507" type="curve" smooth="yes"/>
      <point x="199" y="507"/>
      <point x="184" y="525"/>
      <point x="184" y="555" type="curve" smooth="yes"/>
      <point x="184" y="619"/>
      <point x="242" y="664"/>
      <point x="324" y="664" type="curve" smooth="yes"/>
      <point x="413" y="664"/>
      <point x="472" y="613"/>
      <point x="472" y="535" type="curve" smooth="yes"/>
      <point x="472" y="474"/>
      <point x="452" y="447"/>
      <point x="338" y="354" type="curve" smooth="yes"/>
      <point x="267" y="297"/>
      <point x="237" y="259"/>
      <point x="223" y="203" type="curve" smooth="yes"/>
    </contour>
    <contour>
      <point x="184" y="93" type="curve" smooth="yes"/>
      <point x="213" y="93"/>
      <point x="237" y="69"/>
      <point x="237" y="40" type="curve" smooth="yes"/>
      <point x="237" y="13"/>
      <point x="212" y="-12"/>
      <point x="185" y="-12" type="curve" smooth="yes"/>
      <point x="155" y="-12"/>
      <point x="132" y="11"/>
      <point x="132" y="40" type="curve" smooth="yes"/>
      <point x="132" y="69"/>
      <point x="155" y="93"/>
    </contour>
  </outline>
</glyph>
<glyph name="at" format="1">
  <advance width="919"/>
  <unicode hex="0040"/>
  <outline>
    <contour>
      <point x="587" y="449" type="curve"/>
      <point x="597" y="486" type="line"/>
      <point x="666" y="486" type="line"/>
      <point x="601" y="234" type="line" smooth="yes"/>
      <point x="599" y="227"/>
      <point x="598" y="218"/>
      <point x="598" y="213" type="curve" smooth="yes"/>
      <point x="598" y="186"/>
      <point x="611" y="171"/>
      <point x="635" y="171" type="curve" smooth="yes"/>
      <point x="660" y="171"/>
      <point x="685" y="183"/>
      <point x="704" y="202" type="curve" smooth="yes"/>
      <point x="741" y="241"/>
      <point x="766" y="307"/>
      <point x="766" y="367" type="curve" smooth="yes"/>
      <point x="766" y="513"/>
      <point x="637" y="635"/>
      <point x="481" y="635" type="curve" smooth="yes"/>
      <point x="318" y="635"/>
      <point x="201" y="500"/>
      <point x="201" y="313" type="curve" smooth="yes"/>
      <point x="201" y="142"/>
      <point x="323" y="21"/>
      <point x="494" y="21" type="curve" smooth="yes"/>
      <point x="559" y="21"/>
      <point x="608" y="33"/>
      <point x="686" y="68" type="curve"/>
      <point x="698" y="39" type="line"/>
      <point x="604" y="-5"/>
      <point x="553" y="-18"/>
      <point x="482" y="-18" type="curve" smooth="yes"/>
      <point x="278" y="-18"/>
      <point x="118" y="130"/>
      <point x="118" y="319" type="curve" smooth="yes"/>
      <point x="118" y="512"/>
      <point x="278" y="666"/>
      <point x="481" y="666" type="curve" smooth="yes"/>
      <point x="664" y="666"/>
      <point x="806" y="539"/>
      <point x="806" y="376" type="curve" smooth="yes"/>
      <point x="806" y="248"/>
      <point x="721" y="138"/>
      <point x="622" y="138" type="curve" smooth="yes"/>
      <point x="575" y="138"/>
      <point x="539" y="167"/>
      <point x="533" y="210" type="curve"/>
      <point x="497" y="165"/>
      <point x="452" y="139"/>
      <point x="410" y="139" type="curve" smooth="yes"/>
      <point x="360" y="139"/>
      <point x="321" y="187"/>
      <point x="321" y="250" type="curve" smooth="yes"/>
      <point x="321" y="321"/>
      <point x="352" y="398"/>
      <point x="403" y="450" type="curve" smooth="yes"/>
      <point x="433" y="482"/>
      <point x="474" y="500"/>
      <point x="516" y="500" type="curve" smooth="yes"/>
      <point x="551" y="500"/>
      <point x="565" y="490"/>
    </contour>
    <contour>
      <point x="530" y="456" type="curve" smooth="yes"/>
      <point x="528.898" y="456.092"/>
      <point x="527.772" y="456.137"/>
      <point x="526.625" y="456.137" type="curve" smooth="yes"/>
      <point x="502.799" y="456.137"/>
      <point x="469.714" y="436.53"/>
      <point x="443" y="406" type="curve" smooth="yes"/>
      <point x="410" y="368"/>
      <point x="392" y="318"/>
      <point x="392" y="265" type="curve" smooth="yes"/>
      <point x="392" y="213"/>
      <point x="414" y="181"/>
      <point x="451" y="181" type="curve" smooth="yes"/>
      <point x="507" y="181"/>
      <point x="564" y="281"/>
      <point x="570" y="394" type="curve" smooth="yes"/>
      <point x="570.119" y="396.196"/>
      <point x="570.178" y="398.342"/>
      <point x="570.178" y="400.438" type="curve" smooth="yes"/>
      <point x="570.178" y="433.656"/>
      <point x="555.398" y="454.119"/>
    </contour>
  </outline>
</glyph>
<glyph name="A" format="1">
  <advance width="630"/>
  <unicode hex="0041"/>
  <outline>
    <contour>
      <point x="584" y="16" type="curve"/>
      <point x="584" y="0" type="line"/>
      <point x="338" y="0" type="line"/>
      <point x="338" y="16" type="line"/>
      <point x="402" y="22"/>
      <point x="416" y="31"/>
      <point x="416" y="69" type="curve" smooth="yes"/>
      <point x="416" y="77"/>
      <point x="415" y="86"/>
      <point x="414" y="95" type="curve" smooth="yes"/>
      <point x="393" y="226" type="line"/>
      <point x="179" y="226" type="line"/>
      <point x="117" y="113" type="line" smooth="yes"/>
      <point x="100" y="79"/>
      <point x="97" y="70"/>
      <point x="97" y="51" type="curve" smooth="yes"/>
      <point x="97" y="26"/>
      <point x="105" y="21"/>
      <point x="156" y="16" type="curve"/>
      <point x="156" y="0" type="line"/>
      <point x="-31" y="0" type="line"/>
      <point x="-31" y="16" type="line"/>
      <point x="8" y="32"/>
      <point x="34" y="47"/>
      <point x="103" y="168" type="curve" smooth="yes"/>
      <point x="388" y="668" type="line"/>
      <point x="414" y="668" type="line"/>
      <point x="508" y="102" type="line" smooth="yes"/>
      <point x="521" y="29"/>
      <point x="527" y="21"/>
    </contour>
    <contour>
      <point x="200" y="262" type="line"/>
      <point x="387" y="262" type="line"/>
      <point x="345" y="522" type="line"/>
    </contour>
  </outline>
</glyph>
<glyph name="v" format="1">
  <advance width="443"/>
  <unicode hex="0076"/>
  <outline>
    <contour>
      <point x="21" y="403" type="curve"/>
      <point x="21" y="416" type="line"/>
      <point x="59" y="422"/>
      <point x="114" y="432"/>
      <point x="132" y="437" type="curve" smooth="yes"/>
      <point x="140" y="440"/>
      <point x="147" y="441"/>
      <point x="152" y="441" type="curve" smooth="yes"/>
      <point x="161" y="441"/>
      <point x="161" y="439"/>
      <point x="181" y="337" type="curve" smooth="yes"/>
      <point x="194" y="263"/>
      <point x="200" y="211"/>
      <point x="207" y="70" type="curve"/>
      <point x="238" y="102" type="line" smooth="yes"/>
      <point x="309" y="176"/>
      <point x="375" y="287"/>
      <point x="375" y="333" type="curve" smooth="yes"/>
      <point x="375" y="343"/>
      <point x="370" y="351"/>
      <point x="357" y="363" type="curve" smooth="yes"/>
      <point x="339" y="379"/>
      <point x="333" y="391"/>
      <point x="333" y="407" type="curve" smooth="yes"/>
      <point x="333" y="428"/>
      <point x="348" y="441"/>
      <point x="370" y="441" type="curve" smooth="yes"/>
      <point x="400" y="441"/>
      <point x="426" y="414"/>
      <point x="426" y="382" type="curve" smooth="yes"/>
      <point x="426" y="345"/>
      <point x="400" y="280"/>
      <point x="365" y="230" type="curve" smooth="yes"/>
      <point x="263" y="88"/>
      <point x="170" y="-18"/>
      <point x="145" y="-18" type="curve" smooth="yes"/>
      <point x="138" y="-18"/>
      <point x="136" y="-11"/>
      <point x="136" y="17" type="curve" smooth="yes"/>
      <point x="136" y="75"/>
      <point x="124" y="226"/>
      <point x="114" y="295" type="curve" smooth="yes"/>
      <point x="100" y="387"/>
      <point x="90" y="404"/>
      <point x="51" y="404" type="curve" smooth="yes"/>
      <point x="40" y="404"/>
      <point x="32" y="404"/>
    </contour>
  </outline>
</glyph>
<glyph name="braceright" format="1">
  <advance width="399"/>
  <unicode hex="007D"/>
  <outline>
    <contour>
      <point x="221" y="676" type="curve"/>
      <point x="224" y="687" type="line"/>
      <point x="315" y="684"/>
      <point x="349" y="663"/>
      <point x="349" y="609" type="curve" smooth="yes"/>
      <point x="349" y="587"/>
      <point x="338" y="539"/>
      <point x="317" y="465" type="curve" smooth="yes"/>
      <point x="294" y="388"/>
      <point x="283" y="336"/>
      <point x="283" y="312" type="curve" smooth="yes"/>
      <point x="283" y="283"/>
      <point x="296" y="269"/>
      <point x="335" y="255" type="curve"/>
      <point x="271" y="238"/>
      <point x="249" y="214"/>
      <point x="230" y="141" type="curve" smooth="yes"/>
      <point x="182" y="-37" type="line" smooth="yes"/>
      <point x="151" y="-143"/>
      <point x="105" y="-177"/>
      <point x="-7" y="-177" type="curve"/>
      <point x="-4" y="-166" type="line"/>
      <point x="58" y="-150"/>
      <point x="84" y="-121"/>
      <point x="105" y="-42" type="curve" smooth="yes"/>
      <point x="150" y="126" type="line" smooth="yes"/>
      <point x="172" y="209"/>
      <point x="197" y="238"/>
      <point x="263" y="255" type="curve"/>
      <point x="224" y="272"/>
      <point x="208" y="291"/>
      <point x="208" y="318" type="curve" smooth="yes"/>
      <point x="208" y="336"/>
      <point x="225" y="412"/>
      <point x="252" y="508" type="curve" smooth="yes"/>
      <point x="267" y="565"/>
      <point x="274" y="596"/>
      <point x="274" y="609" type="curve" smooth="yes"/>
      <point x="274" y="646"/>
      <point x="259" y="665"/>
    </contour>
  </outline>
</glyph>
<glyph name="sterling" format="1">
  <advance width="500"/>
  <unicode hex="00A3"/>
  <outline>
    <contour>
      <point x="396" y="319" type="line"/>
      <point x="270" y="319" type="line"/>
      <point x="244" y="209"/>
      <point x="238" y="193"/>
      <point x="197" y="104" type="curve"/>
      <point x="268" y="77"/>
      <point x="315" y="66"/>
      <point x="357" y="66" type="curve" smooth="yes"/>
      <point x="386" y="66"/>
      <point x="408" y="73"/>
      <point x="436" y="93" type="curve" smooth="yes"/>
      <point x="446" y="100" type="line"/>
      <point x="457" y="91" type="line"/>
      <point x="432" y="29"/>
      <point x="382" y="-6"/>
      <point x="315" y="-6" type="curve" smooth="yes"/>
      <point x="266" y="-6"/>
      <point x="235" y="8"/>
      <point x="171" y="57" type="curve"/>
      <point x="132" y="8"/>
      <point x="110" y="-6"/>
      <point x="75" y="-6" type="curve" smooth="yes"/>
      <point x="36" y="-6"/>
      <point x="10" y="20"/>
      <point x="10" y="58" type="curve" smooth="yes"/>
      <point x="10" y="98"/>
      <point x="49" y="126"/>
      <point x="104" y="126" type="curve" smooth="yes"/>
      <point x="119" y="126"/>
      <point x="120" y="126"/>
      <point x="160" y="115" type="curve"/>
      <point x="185" y="319" type="line"/>
      <point x="72" y="319" type="line"/>
      <point x="81" y="361" type="line"/>
      <point x="191" y="361" type="line"/>
      <point x="211" y="474"/>
      <point x="232" y="529"/>
      <point x="282" y="594" type="curve" smooth="yes"/>
      <point x="320" y="643"/>
      <point x="370" y="670"/>
      <point x="424" y="670" type="curve" smooth="yes"/>
      <point x="479" y="670"/>
      <point x="517" y="639"/>
      <point x="517" y="594" type="curve" smooth="yes"/>
      <point x="517" y="567"/>
      <point x="503" y="553"/>
      <point x="478" y="553" type="curve" smooth="yes"/>
      <point x="454" y="553"/>
      <point x="447" y="562"/>
      <point x="442" y="597" type="curve" smooth="yes"/>
      <point x="437" y="628"/>
      <point x="426" y="641"/>
      <point x="402" y="641" type="curve" smooth="yes"/>
      <point x="345" y="641"/>
      <point x="322" y="587"/>
      <point x="280" y="361" type="curve"/>
      <point x="403" y="361" type="line"/>
    </contour>
    <contour>
      <point x="146" y="73" type="curve"/>
      <point x="116" y="94"/>
      <point x="107" y="98"/>
      <point x="86" y="98" type="curve" smooth="yes"/>
      <point x="54" y="98"/>
      <point x="32" y="80"/>
      <point x="32" y="53" type="curve" smooth="yes"/>
      <point x="32" y="32"/>
      <point x="51" y="16"/>
      <point x="75" y="16" type="curve" smooth="yes"/>
      <point x="105" y="16"/>
      <point x="134" y="39"/>
    </contour>
  </outline>
</glyph>
<glyph name="yen" format="1">
  <advance width="500"/>
  <unicode hex="00A5"/>
  <outline>
    <contour>
      <point x="456" y="182" type="line"/>
      <point x="276" y="182" type="line"/>
      <point x="251" y="103"/>
      <point x="245" y="79"/>
      <point x="245" y="57" type="curve" smooth="yes"/>
      <point x="245" y="31"/>
      <point x="258" y="21"/>
      <point x="299" y="19" type="curve" smooth="yes"/>
      <point x="305" y="18"/>
      <point x="320" y="17"/>
      <point x="337" y="16" type="curve"/>
      <point x="337" y="0" type="line"/>
      <point x="52" y="0" type="line"/>
      <point x="56" y="16" type="line"/>
      <point x="119" y="20"/>
      <point x="148" y="39"/>
      <point x="165" y="90" type="curve" smooth="yes"/>
      <point x="192" y="182" type="line"/>
      <point x="27" y="182" type="line"/>
      <point x="39" y="222" type="line"/>
      <point x="203" y="222" type="line"/>
      <point x="226" y="302" type="line"/>
      <point x="223" y="312" type="line"/>
      <point x="60" y="312" type="line"/>
      <point x="72" y="352" type="line"/>
      <point x="212" y="352" type="line"/>
      <point x="149" y="571" type="line" smooth="yes"/>
      <point x="132" y="625"/>
      <point x="127" y="629"/>
      <point x="61" y="637" type="curve"/>
      <point x="61" y="653" type="line"/>
      <point x="300" y="653" type="line"/>
      <point x="300" y="637" type="line"/>
      <point x="236" y="631"/>
      <point x="225" y="626"/>
      <point x="225" y="601" type="curve" smooth="yes"/>
      <point x="225" y="586"/>
      <point x="236" y="543"/>
      <point x="264" y="447" type="curve" smooth="yes"/>
      <point x="293" y="347" type="line"/>
      <point x="308" y="364"/>
      <point x="312" y="370"/>
      <point x="321" y="380" type="curve" smooth="yes"/>
      <point x="434" y="511"/>
      <point x="483" y="578"/>
      <point x="483" y="606" type="curve" smooth="yes"/>
      <point x="483" y="623"/>
      <point x="470" y="631"/>
      <point x="441" y="634" type="curve" smooth="yes"/>
      <point x="436" y="635"/>
      <point x="426" y="636"/>
      <point x="414" y="637" type="curve"/>
      <point x="414" y="653" type="line"/>
      <point x="603" y="653" type="line"/>
      <point x="603" y="637" type="line"/>
      <point x="571" y="623"/>
      <point x="562" y="616"/>
      <point x="530" y="576" type="curve" smooth="yes"/>
      <point x="349" y="352" type="line"/>
      <point x="500" y="352" type="line"/>
      <point x="488" y="312" type="line"/>
      <point x="318" y="312" type="line"/>
      <point x="312" y="304" type="line"/>
      <point x="288" y="222" type="line"/>
      <point x="468" y="222" type="line"/>
    </contour>
  </outline>
</glyph>
<glyph name="section" format="1">
  <advance width="500"/>
  <unicode hex="00A7"/>
  <outline>
    <contour>
      <point x="249" y="398" type="curve"/>
      <point x="251" y="401" type="line"/>
      <point x="201" y="462"/>
      <point x="184" y="497"/>
      <point x="184" y="541" type="curve" smooth="yes"/>
      <point x="184" y="614"/>
      <point x="245" y="666"/>
      <point x="331" y="666" type="curve" smooth="yes"/>
      <point x="407" y="666"/>
      <point x="461" y="625"/>
      <point x="461" y="567" type="curve" smooth="yes"/>
      <point x="461" y="533"/>
      <point x="441" y="512"/>
      <point x="409" y="512" type="curve" smooth="yes"/>
      <point x="382" y="512"/>
      <point x="363" y="531"/>
      <point x="363" y="557" type="curve" smooth="yes"/>
      <point x="363" y="571"/>
      <point x="369" y="582"/>
      <point x="384" y="595" type="curve" smooth="yes"/>
      <point x="393" y="603"/>
      <point x="397" y="609"/>
      <point x="397" y="614" type="curve" smooth="yes"/>
      <point x="397" y="631"/>
      <point x="371" y="645"/>
      <point x="337" y="645" type="curve" smooth="yes"/>
      <point x="280" y="645"/>
      <point x="245" y="613"/>
      <point x="245" y="562" type="curve" smooth="yes"/>
      <point x="245" y="536"/>
      <point x="254" y="510"/>
      <point x="271" y="490" type="curve" smooth="yes"/>
      <point x="394" y="340" type="line" smooth="yes"/>
      <point x="420" y="308"/>
      <point x="435" y="267"/>
      <point x="435" y="226" type="curve" smooth="yes"/>
      <point x="435" y="151"/>
      <point x="387" y="100"/>
      <point x="317" y="100" type="curve" smooth="yes"/>
      <point x="303" y="100"/>
      <point x="296" y="102"/>
      <point x="284" y="107" type="curve"/>
      <point x="282" y="104" type="line"/>
      <point x="335" y="36"/>
      <point x="345" y="15"/>
      <point x="345" y="-25" type="curve" smooth="yes"/>
      <point x="345" y="-103"/>
      <point x="277" y="-162"/>
      <point x="189" y="-162" type="curve" smooth="yes"/>
      <point x="113" y="-162"/>
      <point x="53" y="-115"/>
      <point x="53" y="-54" type="curve" smooth="yes"/>
      <point x="53" y="-19"/>
      <point x="74" y="2"/>
      <point x="109" y="2" type="curve" smooth="yes"/>
      <point x="138" y="2"/>
      <point x="156" y="-14"/>
      <point x="156" y="-41" type="curve" smooth="yes"/>
      <point x="156" y="-63"/>
      <point x="149" y="-74"/>
      <point x="129" y="-87" type="curve" smooth="yes"/>
      <point x="118" y="-94"/>
      <point x="114" y="-98"/>
      <point x="114" y="-104" type="curve" smooth="yes"/>
      <point x="114" y="-124"/>
      <point x="148" y="-141"/>
      <point x="185" y="-141" type="curve" smooth="yes"/>
      <point x="245" y="-141"/>
      <point x="287" y="-104"/>
      <point x="287" y="-51" type="curve" smooth="yes"/>
      <point x="287" y="-21"/>
      <point x="275" y="3"/>
      <point x="237" y="46" type="curve" smooth="yes"/>
      <point x="161" y="133" type="line" smooth="yes"/>
      <point x="114" y="186"/>
      <point x="90" y="239"/>
      <point x="90" y="286" type="curve" smooth="yes"/>
      <point x="90" y="353"/>
      <point x="138" y="409"/>
      <point x="196" y="409" type="curve" smooth="yes"/>
      <point x="213" y="409"/>
      <point x="232" y="405"/>
    </contour>
    <contour>
      <point x="213" y="388" type="curve" smooth="yes"/>
      <point x="177" y="388"/>
      <point x="147" y="359"/>
      <point x="147" y="322" type="curve" smooth="yes"/>
      <point x="147" y="251"/>
      <point x="254" y="121"/>
      <point x="312" y="121" type="curve" smooth="yes"/>
      <point x="347" y="121"/>
      <point x="377" y="154"/>
      <point x="377" y="192" type="curve" smooth="yes"/>
      <point x="377" y="226"/>
      <point x="363" y="256"/>
      <point x="320" y="312" type="curve" smooth="yes"/>
      <point x="281" y="363"/>
      <point x="246" y="388"/>
    </contour>
  </outline>
</glyph>
<glyph name="dieresis" format="1">
  <advance width="332"/>
  <unicode hex="00A8"/>
  <outline>
    <contour>
      <point x="157" y="606" type="curve" smooth="yes"/>
      <point x="182" y="606"/>
      <point x="205" y="582"/>
      <point x="205" y="557" type="curve" smooth="yes"/>
      <point x="205" y="530"/>
      <point x="183" y="508"/>
      <point x="156" y="508" type="curve" smooth="yes"/>
      <point x="129" y="508"/>
      <point x="107" y="530"/>
      <point x="107" y="558" type="curve" smooth="yes"/>
      <point x="107" y="584"/>
      <point x="129" y="606"/>
    </contour>
    <contour>
      <point x="357" y="606" type="curve" smooth="yes"/>
      <point x="382" y="606"/>
      <point x="405" y="582"/>
      <point x="405" y="557" type="curve" smooth="yes"/>
      <point x="405" y="530"/>
      <point x="383" y="508"/>
      <point x="356" y="508" type="curve" smooth="yes"/>
      <point x="329" y="508"/>
      <point x="307" y="530"/>
      <point x="307" y="558" type="curve" smooth="yes"/>
      <point x="307" y="584"/>
      <point x="329" y="606"/>
    </contour>
  </outline>
</glyph>
<glyph name="ordfeminine" format="1">
  <advance width="275"/>
  <unicode hex="00AA"/>
  <outline>
    <contour>
      <point x="299" y="673" type="line"/>
      <point x="352" y="675" type="line"/>
      <point x="319" y="559"/>
      <point x="302" y="493"/>
      <point x="298" y="472" type="curve" smooth="yes"/>
      <point x="295" y="457" type="line" smooth="yes"/>
      <point x="294" y="454"/>
      <point x="294" y="451"/>
      <point x="294" y="449" type="curve" smooth="yes"/>
      <point x="294" y="446"/>
      <point x="296" y="443"/>
      <point x="298" y="443" type="curve" smooth="yes"/>
      <point x="299" y="443"/>
      <point x="300" y="443"/>
      <point x="301" y="444" type="curve" smooth="yes"/>
      <point x="307" y="447" type="line" smooth="yes"/>
      <point x="308" y="447"/>
      <point x="319" y="457"/>
      <point x="329" y="467" type="curve" smooth="yes"/>
      <point x="331" y="470"/>
      <point x="337" y="476"/>
      <point x="343" y="482" type="curve"/>
      <point x="350" y="472" type="line"/>
      <point x="301" y="417"/>
      <point x="286" y="406"/>
      <point x="260" y="406" type="curve" smooth="yes"/>
      <point x="241" y="406"/>
      <point x="229" y="416"/>
      <point x="229" y="432" type="curve" smooth="yes"/>
      <point x="229" y="448"/>
      <point x="232" y="458"/>
      <point x="246" y="493" type="curve"/>
      <point x="197" y="425"/>
      <point x="169" y="406"/>
      <point x="120" y="406" type="curve" smooth="yes"/>
      <point x="72" y="406"/>
      <point x="42" y="433"/>
      <point x="42" y="476" type="curve" smooth="yes"/>
      <point x="42" y="569"/>
      <point x="143" y="676"/>
      <point x="231" y="676" type="curve" smooth="yes"/>
      <point x="265" y="676"/>
      <point x="285" y="665"/>
      <point x="290" y="641" type="curve"/>
      <point x="297" y="671" type="line"/>
    </contour>
    <contour>
      <point x="250" y="658" type="curve" smooth="yes"/>
      <point x="248.457" y="658.212"/>
      <point x="246.883" y="658.316"/>
      <point x="245.282" y="658.316" type="curve" smooth="yes"/>
      <point x="193.993" y="658.316"/>
      <point x="115" y="551.761"/>
      <point x="115" y="480" type="curve" smooth="yes"/>
      <point x="115" y="460"/>
      <point x="129" y="440"/>
      <point x="144" y="440" type="curve" smooth="yes"/>
      <point x="168" y="440"/>
      <point x="196" y="460"/>
      <point x="221" y="496" type="curve" smooth="yes"/>
      <point x="247" y="535"/>
      <point x="269" y="590"/>
      <point x="269" y="620" type="curve" smooth="yes"/>
      <point x="269" y="641"/>
      <point x="261" y="656"/>
    </contour>
  </outline>
</glyph>
<glyph name="guillemotleft" format="1">
  <advance width="500"/>
  <unicode hex="00AB"/>
  <outline>
    <contour>
      <point x="53" y="216" type="curve"/>
      <point x="53" y="225" type="line"/>
      <point x="82" y="248"/>
      <point x="134" y="286"/>
      <point x="165" y="313" type="curve" smooth="yes"/>
      <point x="197" y="341"/>
      <point x="266" y="403"/>
      <point x="275" y="403" type="curve" smooth="yes"/>
      <point x="281" y="403"/>
      <point x="283" y="400"/>
      <point x="283" y="395" type="curve" smooth="yes"/>
      <point x="283" y="378"/>
      <point x="253" y="347"/>
      <point x="127" y="217" type="curve"/>
      <point x="158" y="156"/>
      <point x="209" y="56"/>
      <point x="209" y="45" type="curve" smooth="yes"/>
      <point x="209" y="43"/>
      <point x="209" y="37"/>
      <point x="201" y="37" type="curve" smooth="yes"/>
      <point x="188" y="37"/>
      <point x="135" y="115"/>
      <point x="120" y="132" type="curve" smooth="yes"/>
      <point x="104" y="150"/>
      <point x="60" y="204"/>
    </contour>
    <contour>
      <point x="215" y="216" type="curve"/>
      <point x="215" y="225" type="line"/>
      <point x="244" y="248"/>
      <point x="296" y="286"/>
      <point x="327" y="313" type="curve" smooth="yes"/>
      <point x="359" y="341"/>
      <point x="428" y="403"/>
      <point x="437" y="403" type="curve" smooth="yes"/>
      <point x="443" y="403"/>
      <point x="445" y="400"/>
      <point x="445" y="395" type="curve" smooth="yes"/>
      <point x="445" y="378"/>
      <point x="415" y="347"/>
      <point x="289" y="217" type="curve"/>
      <point x="320" y="156"/>
      <point x="371" y="56"/>
      <point x="371" y="45" type="curve" smooth="yes"/>
      <point x="371" y="43"/>
      <point x="371" y="37"/>
      <point x="363" y="37" type="curve" smooth="yes"/>
      <point x="350" y="37"/>
      <point x="297" y="115"/>
      <point x="282" y="132" type="curve" smooth="yes"/>
      <point x="266" y="150"/>
      <point x="222" y="204"/>
    </contour>
  </outline>
</glyph>
<glyph name="three.superior" format="1">
  <advance width="299"/>
  <unicode hex="00B3"/>
  <outline>
    <contour>
      <point x="154" y="299" type="curve" smooth="yes"/>
      <point x="202" y="299"/>
      <point x="238" y="339"/>
      <point x="238" y="392" type="curve" smooth="yes"/>
      <point x="238" y="475.075"/>
      <point x="172.568" y="489.526"/>
      <point x="136.506" y="489.526" type="curve" smooth="yes"/>
      <point x="132.198" y="489.526"/>
      <point x="128.308" y="489.32"/>
      <point x="125" y="489" type="curve"/>
      <point x="125" y="498" type="line"/>
      <point x="225" y="516"/>
      <point x="272" y="547"/>
      <point x="272" y="592" type="curve" smooth="yes"/>
      <point x="272" y="622"/>
      <point x="250" y="644"/>
      <point x="222" y="644" type="curve" smooth="yes"/>
      <point x="196" y="644"/>
      <point x="178" y="635"/>
      <point x="149" y="608" type="curve"/>
      <point x="139" y="615" type="line"/>
      <point x="159" y="653"/>
      <point x="199" y="676"/>
      <point x="244" y="676" type="curve" smooth="yes"/>
      <point x="298" y="676"/>
      <point x="339" y="643"/>
      <point x="339" y="600" type="curve" smooth="yes"/>
      <point x="339" y="561"/>
      <point x="315" y="540"/>
      <point x="238" y="513" type="curve"/>
      <point x="242" y="511" type="line" smooth="yes"/>
      <point x="270" y="497"/>
      <point x="301" y="482"/>
      <point x="301" y="425" type="curve" smooth="yes"/>
      <point x="301" y="334"/>
      <point x="224" y="268"/>
      <point x="116" y="268" type="curve" smooth="yes"/>
      <point x="69" y="268"/>
      <point x="43" y="282"/>
      <point x="43" y="307" type="curve" smooth="yes"/>
      <point x="43" y="322"/>
      <point x="56" y="335"/>
      <point x="73" y="335" type="curve" smooth="yes"/>
      <point x="96" y="335"/>
      <point x="126" y="299"/>
    </contour>
  </outline>
</glyph>
<glyph name="mu" format="1">
  <advance width="500"/>
  <unicode hex="00B5"/>
  <outline>
    <contour>
      <point x="73" y="18" type="curve" smooth="yes"/>
      <point x="73" y="-31"/>
      <point x="75" y="-17"/>
      <point x="75" y="-66" type="curve" smooth="yes"/>
      <point x="75" y="-153"/>
      <point x="47" y="-209"/>
      <point x="4" y="-209" type="curve" smooth="yes"/>
      <point x="-19" y="-209"/>
      <point x="-30" y="-194"/>
      <point x="-30" y="-164" type="curve" smooth="yes"/>
      <point x="-30" y="-84"/>
      <point x="16" y="-63"/>
      <point x="42" y="54" type="curve" smooth="yes"/>
      <point x="127" y="428" type="line"/>
      <point x="215" y="428" type="line"/>
      <point x="148" y="144" type="line" smooth="yes"/>
      <point x="146" y="137"/>
      <point x="145" y="123"/>
      <point x="145" y="114" type="curve" smooth="yes"/>
      <point x="145" y="72"/>
      <point x="172" y="45"/>
      <point x="214" y="45" type="curve" smooth="yes"/>
      <point x="257" y="45"/>
      <point x="301" y="70"/>
      <point x="336" y="115" type="curve"/>
      <point x="409" y="428" type="line"/>
      <point x="497" y="428" type="line"/>
      <point x="419" y="92" type="line" smooth="yes"/>
      <point x="413" y="70"/>
      <point x="413" y="68"/>
      <point x="413" y="58" type="curve" smooth="yes"/>
      <point x="413" y="40"/>
      <point x="422" y="30"/>
      <point x="439" y="30" type="curve" smooth="yes"/>
      <point x="456" y="30"/>
      <point x="470" y="37"/>
      <point x="495" y="56" type="curve"/>
      <point x="490" y="42"/>
      <point x="447" y="-10"/>
      <point x="385" y="-10" type="curve" smooth="yes"/>
      <point x="347" y="-10"/>
      <point x="328" y="10"/>
      <point x="328" y="49" type="curve" smooth="yes"/>
      <point x="328" y="59"/>
      <point x="329" y="66"/>
      <point x="332" y="80" type="curve"/>
      <point x="279" y="18"/>
      <point x="231" y="-10"/>
      <point x="178" y="-10" type="curve" smooth="yes"/>
      <point x="125" y="-10"/>
      <point x="94" y="14"/>
      <point x="75" y="66" type="curve"/>
      <point x="74" y="45"/>
      <point x="73" y="34"/>
    </contour>
  </outline>
</glyph>
<glyph name="guillemotright" format="1">
  <advance width="500"/>
  <unicode hex="00BB"/>
  <outline>
    <contour>
      <point x="447" y="224" type="curve"/>
      <point x="447" y="215" type="line"/>
      <point x="418" y="192"/>
      <point x="366" y="154"/>
      <point x="335" y="127" type="curve" smooth="yes"/>
      <point x="303" y="99"/>
      <point x="234" y="37"/>
      <point x="225" y="37" type="curve" smooth="yes"/>
      <point x="219" y="37"/>
      <point x="217" y="40"/>
      <point x="217" y="45" type="curve" smooth="yes"/>
      <point x="217" y="62"/>
      <point x="247" y="93"/>
      <point x="373" y="223" type="curve"/>
      <point x="342" y="284"/>
      <point x="291" y="384"/>
      <point x="291" y="395" type="curve" smooth="yes"/>
      <point x="291" y="397"/>
      <point x="291" y="403"/>
      <point x="299" y="403" type="curve" smooth="yes"/>
      <point x="312" y="403"/>
      <point x="365" y="325"/>
      <point x="380" y="308" type="curve" smooth="yes"/>
      <point x="396" y="290"/>
      <point x="440" y="236"/>
    </contour>
    <contour>
      <point x="285" y="224" type="curve"/>
      <point x="285" y="215" type="line"/>
      <point x="256" y="192"/>
      <point x="204" y="154"/>
      <point x="173" y="127" type="curve" smooth="yes"/>
      <point x="141" y="99"/>
      <point x="72" y="37"/>
      <point x="63" y="37" type="curve" smooth="yes"/>
      <point x="57" y="37"/>
      <point x="55" y="40"/>
      <point x="55" y="45" type="curve" smooth="yes"/>
      <point x="55" y="62"/>
      <point x="85" y="93"/>
      <point x="211" y="223" type="curve"/>
      <point x="180" y="284"/>
      <point x="129" y="384"/>
      <point x="129" y="395" type="curve" smooth="yes"/>
      <point x="129" y="397"/>
      <point x="129" y="403"/>
      <point x="137" y="403" type="curve" smooth="yes"/>
      <point x="150" y="403"/>
      <point x="203" y="325"/>
      <point x="218" y="308" type="curve" smooth="yes"/>
      <point x="234" y="290"/>
      <point x="278" y="236"/>
    </contour>
  </outline>
</glyph>
<glyph name="threequarters" format="1">
  <advance width="750"/>
  <unicode hex="00BE"/>
  <outline>
    <contour>
      <point x="134" y="299" type="curve" smooth="yes"/>
      <point x="182" y="299"/>
      <point x="218" y="339"/>
      <point x="218" y="392" type="curve" smooth="yes"/>
      <point x="218" y="475.075"/>
      <point x="152.568" y="489.526"/>
      <point x="116.506" y="489.526" type="curve" smooth="yes"/>
      <point x="112.198" y="489.526"/>
      <point x="108.308" y="489.32"/>
      <point x="105" y="489" type="curve"/>
      <point x="105" y="498" type="line"/>
      <point x="205" y="516"/>
      <point x="252" y="547"/>
      <point x="252" y="592" type="curve" smooth="yes"/>
      <point x="252" y="622"/>
      <point x="230" y="644"/>
      <point x="202" y="644" type="curve" smooth="yes"/>
      <point x="176" y="644"/>
      <point x="158" y="635"/>
      <point x="129" y="608" type="curve"/>
      <point x="119" y="615" type="line"/>
      <point x="139" y="653"/>
      <point x="179" y="676"/>
      <point x="224" y="676" type="curve" smooth="yes"/>
      <point x="278" y="676"/>
      <point x="319" y="643"/>
      <point x="319" y="600" type="curve" smooth="yes"/>
      <point x="319" y="561"/>
      <point x="295" y="540"/>
      <point x="218" y="513" type="curve"/>
      <point x="222" y="511" type="line" smooth="yes"/>
      <point x="250" y="497"/>
      <point x="281" y="482"/>
      <point x="281" y="425" type="curve" smooth="yes"/>
      <point x="281" y="334"/>
      <point x="204" y="268"/>
      <point x="96" y="268" type="curve" smooth="yes"/>
      <point x="49" y="268"/>
      <point x="23" y="282"/>
      <point x="23" y="307" type="curve" smooth="yes"/>
      <point x="23" y="322"/>
      <point x="36" y="335"/>
      <point x="53" y="335" type="curve" smooth="yes"/>
      <point x="76" y="335"/>
      <point x="106" y="299"/>
    </contour>
    <contour>
      <point x="650" y="676" type="line"/>
      <point x="195" y="-10" type="line"/>
      <point x="144" y="-10" type="line"/>
      <point x="599" y="676" type="line"/>
    </contour>
    <contour>
      <point x="712" y="147" type="line"/>
      <point x="703" y="104" type="line"/>
      <point x="645" y="104" type="line"/>
      <point x="615" y="0" type="line"/>
      <point x="552" y="0" type="line"/>
      <point x="584" y="105" type="line"/>
      <point x="416" y="105" type="line"/>
      <point x="429" y="147" type="line"/>
      <point x="700" y="406" type="line"/>
      <point x="736" y="406" type="line"/>
      <point x="657" y="147" type="line"/>
    </contour>
    <contour>
      <point x="653" y="333" type="line"/>
      <point x="464" y="147" type="line"/>
      <point x="593" y="147" type="line"/>
    </contour>
  </outline>
</glyph>
<glyph name="Edieresis" format="1">
  <advance width="603"/>
  <unicode hex="00CB"/>
  <outline>
    <contour>
      <point x="315" y="325" type="curve" smooth="yes"/>
      <point x="303" y="325"/>
      <point x="237" y="328"/>
      <point x="237" y="328" type="curve"/>
      <point x="170" y="76" type="line" smooth="yes"/>
      <point x="168.921" y="72.0421"/>
      <point x="168.388" y="68.4151"/>
      <point x="168.388" y="65.0965" type="curve" smooth="yes"/>
      <point x="168.388" y="40.7451"/>
      <point x="197.076" y="33"/>
      <point x="249" y="33" type="curve" smooth="yes"/>
      <point x="324" y="33"/>
      <point x="392" y="43"/>
      <point x="429" y="60" type="curve" smooth="yes"/>
      <point x="472" y="80"/>
      <point x="498" y="106"/>
      <point x="545" y="170" type="curve"/>
      <point x="561" y="162" type="line"/>
      <point x="499" y="0" type="line"/>
      <point x="-8" y="0" type="line"/>
      <point x="-8" y="16" type="line"/>
      <point x="48" y="26"/>
      <point x="56" y="33"/>
      <point x="73" y="90" type="curve" smooth="yes"/>
      <point x="196" y="532" type="line" smooth="yes"/>
      <point x="201" y="550"/>
      <point x="207" y="585"/>
      <point x="207" y="596" type="curve" smooth="yes"/>
      <point x="207" y="623"/>
      <point x="192" y="631"/>
      <point x="130" y="637" type="curve"/>
      <point x="130" y="653" type="line"/>
      <point x="627" y="653" type="line"/>
      <point x="596" y="500" type="line"/>
      <point x="575" y="502" type="line"/>
      <point x="576" y="519"/>
      <point x="577" y="534"/>
      <point x="577" y="547" type="curve" smooth="yes"/>
      <point x="577" y="607"/>
      <point x="542" y="620"/>
      <point x="385" y="620" type="curve" smooth="yes"/>
      <point x="329" y="620"/>
      <point x="318" y="616"/>
      <point x="312" y="594" type="curve" smooth="yes"/>
      <point x="246" y="361" type="line"/>
      <point x="246" y="361"/>
      <point x="313" y="363"/>
      <point x="325" y="363" type="curve" smooth="yes"/>
      <point x="416" y="367"/>
      <point x="425" y="373"/>
      <point x="463" y="458" type="curve"/>
      <point x="481" y="454" type="line"/>
      <point x="413" y="222" type="line"/>
      <point x="393" y="227" type="line"/>
      <point x="398" y="249"/>
      <point x="400" y="262"/>
      <point x="400" y="279" type="curve" smooth="yes"/>
      <point x="400" y="309"/>
      <point x="398" y="325"/>
    </contour>
    <contour>
      <point x="329" y="818" type="curve" smooth="yes"/>
      <point x="354" y="818"/>
      <point x="377" y="794"/>
      <point x="377" y="769" type="curve" smooth="yes"/>
      <point x="377" y="742"/>
      <point x="355" y="720"/>
      <point x="328" y="720" type="curve" smooth="yes"/>
      <point x="301" y="720"/>
      <point x="279" y="742"/>
      <point x="279" y="770" type="curve" smooth="yes"/>
      <point x="279" y="796"/>
      <point x="301" y="818"/>
    </contour>
    <contour>
      <point x="529" y="818" type="curve" smooth="yes"/>
      <point x="554" y="818"/>
      <point x="577" y="794"/>
      <point x="577" y="769" type="curve" smooth="yes"/>
      <point x="577" y="742"/>
      <point x="555" y="720"/>
      <point x="528" y="720" type="curve" smooth="yes"/>
      <point x="501" y="720"/>
      <point x="479" y="742"/>
      <point x="479" y="770" type="curve" smooth="yes"/>
      <point x="479" y="796"/>
      <point x="501" y="818"/>
    </contour>
  </outline>
</glyph>
<glyph name="Iacute" format="1">
  <advance width="338"/>
  <unicode hex="00CD"/>
  <outline>
    <contour>
      <point x="-8" y="0" type="line"/>
      <point x="-8" y="16" type="line"/>
      <point x="48" y="26"/>
      <point x="57" y="31"/>
      <point x="73" y="90" type="curve" smooth="yes"/>
      <point x="196" y="532" type="line" smooth="yes"/>
      <point x="203" y="557"/>
      <point x="207" y="580"/>
      <point x="207" y="594" type="curve" smooth="yes"/>
      <point x="207" y="622"/>
      <point x="195" y="630"/>
      <point x="137" y="637" type="curve"/>
      <point x="137" y="653" type="line"/>
      <point x="384" y="653" type="line"/>
      <point x="384" y="637" type="line"/>
      <point x="327" y="627"/>
      <point x="318" y="622"/>
      <point x="302" y="563" type="curve" smooth="yes"/>
      <point x="179" y="120" type="line" smooth="yes"/>
      <point x="170" y="88"/>
      <point x="168" y="76"/>
      <point x="168" y="57" type="curve" smooth="yes"/>
      <point x="168" y="29"/>
      <point x="179" y="23"/>
      <point x="236" y="16" type="curve"/>
      <point x="236" y="0" type="line"/>
    </contour>
    <contour>
      <point x="220" y="706" type="line"/>
      <point x="382" y="866" type="line" smooth="yes"/>
      <point x="389" y="872"/>
      <point x="397" y="876"/>
      <point x="407" y="876" type="curve" smooth="yes"/>
      <point x="427" y="876"/>
      <point x="443" y="860"/>
      <point x="443" y="840" type="curve" smooth="yes"/>
      <point x="443" y="828"/>
      <point x="438" y="819"/>
      <point x="426" y="812" type="curve" smooth="yes"/>
      <point x="255" y="706" type="line"/>
    </contour>
  </outline>
</glyph>
<glyph name="Icircumflex" format="1">
  <advance width="338"/>
  <unicode hex="00CE"/>
  <outline>
    <contour>
      <point x="-8" y="0" type="line"/>
      <point x="-8" y="16" type="line"/>
      <point x="48" y="26"/>
      <point x="57" y="31"/>
      <point x="73" y="90" type="curve" smooth="yes"/>
      <point x="196" y="532" type="line" smooth="yes"/>
      <point x="203" y="557"/>
      <point x="207" y="580"/>
      <point x="207" y="594" type="curve" smooth="yes"/>
      <point x="207" y="622"/>
      <point x="195" y="630"/>
      <point x="137" y="637" type="curve"/>
      <point x="137" y="653" type="line"/>
      <point x="384" y="653" type="line"/>
      <point x="384" y="637" type="line"/>
      <point x="327" y="627"/>
      <point x="318" y="622"/>
      <point x="302" y="563" type="curve" smooth="yes"/>
      <point x="179" y="120" type="line" smooth="yes"/>
      <point x="170" y="88"/>
      <point x="168" y="76"/>
      <point x="168" y="57" type="curve" smooth="yes"/>
      <point x="168" y="29"/>
      <point x="179" y="23"/>
      <point x="236" y="16" type="curve"/>
      <point x="236" y="0" type="line"/>
    </contour>
    <contour>
      <point x="337" y="873" type="line"/>
      <point x="425" y="704" type="line"/>
      <point x="389" y="704" type="line"/>
      <point x="307" y="808" type="line"/>
      <point x="170" y="704" type="line"/>
      <point x="131" y="704" type="line"/>
      <point x="288" y="873" type="line"/>
    </contour>
  </outline>
</glyph>
<glyph name="Eth" format="1">
  <advance width="721"/>
  <unicode hex="00D0"/>
  <outline>
    <contour>
      <point x="48" y="326" type="line"/>
      <point x="60" y="368" type="line"/>
      <point x="150" y="368" type="line"/>
      <point x="196" y="532" type="line" smooth="yes"/>
      <point x="203" y="556"/>
      <point x="207" y="580"/>
      <point x="207" y="596" type="curve" smooth="yes"/>
      <point x="207" y="623"/>
      <point x="193" y="631"/>
      <point x="130" y="637" type="curve"/>
      <point x="130" y="653" type="line"/>
      <point x="408" y="653" type="line" smooth="yes"/>
      <point x="586" y="653"/>
      <point x="700" y="548"/>
      <point x="700" y="384" type="curve" smooth="yes"/>
      <point x="700" y="268"/>
      <point x="643" y="158"/>
      <point x="546" y="87" type="curve" smooth="yes"/>
      <point x="469" y="31"/>
      <point x="362" y="0"/>
      <point x="245" y="0" type="curve" smooth="yes"/>
      <point x="-8" y="0" type="line"/>
      <point x="-8" y="16" type="line"/>
      <point x="48" y="26"/>
      <point x="56" y="32"/>
      <point x="73" y="90" type="curve" smooth="yes"/>
      <point x="138" y="326" type="line"/>
    </contour>
    <contour>
      <point x="377" y="623" type="curve" smooth="yes"/>
      <point x="335" y="623"/>
      <point x="319" y="616"/>
      <point x="313" y="594" type="curve" smooth="yes"/>
      <point x="250" y="368" type="line"/>
      <point x="403" y="368" type="line"/>
      <point x="391" y="326" type="line"/>
      <point x="238" y="326" type="line"/>
      <point x="192" y="162" type="line" smooth="yes"/>
      <point x="176" y="106"/>
      <point x="170" y="79"/>
      <point x="170" y="67" type="curve" smooth="yes"/>
      <point x="170" y="41"/>
      <point x="189" y="30"/>
      <point x="235" y="30" type="curve" smooth="yes"/>
      <point x="339" y="30"/>
      <point x="420" y="60"/>
      <point x="479" y="120" type="curve" smooth="yes"/>
      <point x="547" y="188"/>
      <point x="589" y="300"/>
      <point x="589" y="408" type="curve" smooth="yes"/>
      <point x="589" y="612"/>
      <point x="432" y="623"/>
    </contour>
  </outline>
</glyph>
<glyph name="ccedilla" format="1">
  <advance width="443"/>
  <unicode hex="00E7"/>
  <outline>
    <contour>
      <point x="168" y="-11" type="line"/>
      <point x="131" y="-66" type="line"/>
      <point x="141" y="-64"/>
      <point x="148" y="-63"/>
      <point x="156" y="-63" type="curve" smooth="yes"/>
      <point x="206" y="-63"/>
      <point x="238" y="-90"/>
      <point x="238" y="-131" type="curve" smooth="yes"/>
      <point x="238" y="-181"/>
      <point x="188" y="-217"/>
      <point x="119" y="-217" type="curve" smooth="yes"/>
      <point x="91" y="-217"/>
      <point x="68" y="-212"/>
      <point x="26" y="-196" type="curve"/>
      <point x="43" y="-167" type="line"/>
      <point x="72" y="-178"/>
      <point x="90" y="-182"/>
      <point x="111" y="-182" type="curve" smooth="yes"/>
      <point x="145" y="-182"/>
      <point x="164" y="-167"/>
      <point x="164" y="-141" type="curve" smooth="yes"/>
      <point x="164" y="-115"/>
      <point x="145" y="-97"/>
      <point x="118" y="-97" type="curve" smooth="yes"/>
      <point x="108" y="-97"/>
      <point x="100" y="-99"/>
      <point x="86" y="-104" type="curve"/>
      <point x="77" y="-96" type="line"/>
      <point x="133" y="-6" type="line"/>
      <point x="66" y="10"/>
      <point x="30" y="60"/>
      <point x="30" y="139" type="curve" smooth="yes"/>
      <point x="30" y="295"/>
      <point x="170" y="441"/>
      <point x="320" y="441" type="curve" smooth="yes"/>
      <point x="380" y="441"/>
      <point x="425" y="406"/>
      <point x="425" y="360" type="curve" smooth="yes"/>
      <point x="425" y="334"/>
      <point x="404" y="314"/>
      <point x="377" y="314" type="curve" smooth="yes"/>
      <point x="353" y="314"/>
      <point x="338" y="328"/>
      <point x="338" y="352" type="curve" smooth="yes"/>
      <point x="338" y="361"/>
      <point x="340" y="368"/>
      <point x="347" y="381" type="curve" smooth="yes"/>
      <point x="351" y="390"/>
      <point x="353" y="395"/>
      <point x="353" y="400" type="curve" smooth="yes"/>
      <point x="353" y="412"/>
      <point x="338" y="420"/>
      <point x="316" y="420" type="curve" smooth="yes"/>
      <point x="276" y="420"/>
      <point x="236" y="402"/>
      <point x="207" y="372" type="curve" smooth="yes"/>
      <point x="151" y="314"/>
      <point x="116" y="224"/>
      <point x="116" y="139" type="curve" smooth="yes"/>
      <point x="116" y="68"/>
      <point x="150" y="25"/>
      <point x="207" y="25" type="curve" smooth="yes"/>
      <point x="256" y="25"/>
      <point x="295" y="47"/>
      <point x="350" y="106" type="curve"/>
      <point x="366" y="96" type="line"/>
      <point x="306" y="19"/>
      <point x="252" y="-11"/>
      <point x="176" y="-11" type="curve" smooth="yes"/>
    </contour>
  </outline>
</glyph>
<glyph name="iacute" format="1">
  <advance width="277"/>
  <unicode hex="00ED"/>
  <outline>
    <contour>
      <point x="124" y="51" type="curve" smooth="yes"/>
      <point x="124" y="44"/>
      <point x="132" y="36"/>
      <point x="140" y="36" type="curve" smooth="yes"/>
      <point x="149" y="36"/>
      <point x="164" y="46"/>
      <point x="181" y="63" type="curve" smooth="yes"/>
      <point x="191" y="74"/>
      <point x="198" y="82"/>
      <point x="222" y="114" type="curve"/>
      <point x="235" y="103" type="line"/>
      <point x="178" y="19"/>
      <point x="141" y="-11"/>
      <point x="95" y="-11" type="curve" smooth="yes"/>
      <point x="65" y="-11"/>
      <point x="49" y="9"/>
      <point x="49" y="46" type="curve" smooth="yes"/>
      <point x="49" y="66"/>
      <point x="55" y="97"/>
      <point x="71" y="155" type="curve" smooth="yes"/>
      <point x="119" y="332" type="line" smooth="yes"/>
      <point x="125" y="352"/>
      <point x="128" y="368"/>
      <point x="128" y="376" type="curve" smooth="yes"/>
      <point x="128" y="396"/>
      <point x="118" y="399"/>
      <point x="65" y="400" type="curve"/>
      <point x="65" y="416" type="line"/>
      <point x="104" y="419"/>
      <point x="124" y="422"/>
      <point x="225" y="441" type="curve"/>
      <point x="228" y="439" type="line"/>
      <point x="140" y="117" type="line" smooth="yes"/>
      <point x="120" y="44"/>
      <point x="124" y="61"/>
    </contour>
    <contour>
      <point x="128" y="494" type="line"/>
      <point x="290" y="654" type="line" smooth="yes"/>
      <point x="297" y="660"/>
      <point x="305" y="664"/>
      <point x="315" y="664" type="curve" smooth="yes"/>
      <point x="335" y="664"/>
      <point x="351" y="648"/>
      <point x="351" y="628" type="curve" smooth="yes"/>
      <point x="351" y="616"/>
      <point x="346" y="607"/>
      <point x="334" y="600" type="curve" smooth="yes"/>
      <point x="163" y="494" type="line"/>
    </contour>
  </outline>
</glyph>
<glyph name="eth" format="1">
  <advance width="500"/>
  <unicode hex="00F0"/>
  <outline>
    <contour>
      <point x="324" y="567" type="curve"/>
      <point x="207" y="516" type="line"/>
      <point x="174" y="545" type="line"/>
      <point x="297" y="599" type="line"/>
      <point x="262" y="632"/>
      <point x="236" y="649"/>
      <point x="194" y="666" type="curve"/>
      <point x="229" y="683" type="line"/>
      <point x="274" y="673"/>
      <point x="311" y="655"/>
      <point x="351" y="622" type="curve"/>
      <point x="450" y="665" type="line"/>
      <point x="482" y="637" type="line"/>
      <point x="381" y="592" type="line"/>
      <point x="442" y="519"/>
      <point x="467" y="452"/>
      <point x="467" y="359" type="curve" smooth="yes"/>
      <point x="467" y="161"/>
      <point x="331" y="-11"/>
      <point x="174" y="-11" type="curve" smooth="yes"/>
      <point x="83" y="-11"/>
      <point x="27" y="43"/>
      <point x="27" y="129" type="curve" smooth="yes"/>
      <point x="27" y="280"/>
      <point x="173" y="441"/>
      <point x="310" y="441" type="curve" smooth="yes"/>
      <point x="348" y="441"/>
      <point x="377" y="424"/>
      <point x="394" y="392" type="curve"/>
      <point x="396" y="393" type="line"/>
      <point x="386" y="462"/>
      <point x="364" y="515"/>
    </contour>
    <contour>
      <point x="313" y="420" type="curve" smooth="yes"/>
      <point x="270" y="420"/>
      <point x="228" y="390"/>
      <point x="189" y="334" type="curve" smooth="yes"/>
      <point x="141" y="263"/>
      <point x="111" y="175"/>
      <point x="111" y="101" type="curve" smooth="yes"/>
      <point x="111" y="47"/>
      <point x="142" y="10"/>
      <point x="189" y="10" type="curve" smooth="yes"/>
      <point x="232" y="10"/>
      <point x="270" y="35"/>
      <point x="306" y="88" type="curve" smooth="yes"/>
      <point x="351" y="152"/>
      <point x="384" y="253"/>
      <point x="384" y="326" type="curve" smooth="yes"/>
      <point x="384" y="383"/>
      <point x="356" y="420"/>
    </contour>
  </outline>
</glyph>
<glyph name="odieresis" format="1">
  <advance width="500"/>
  <unicode hex="00F6"/>
  <outline>
    <contour>
      <point x="468" y="293" type="curve" smooth="yes"/>
      <point x="468" y="156"/>
      <point x="318" y="-11"/>
      <point x="178" y="-11" type="curve" smooth="yes"/>
      <point x="85" y="-11"/>
      <point x="27" y="38"/>
      <point x="27" y="133" type="curve" smooth="yes"/>
      <point x="27" y="278"/>
      <point x="173" y="441"/>
      <point x="321" y="441" type="curve" smooth="yes"/>
      <point x="414" y="441"/>
      <point x="468" y="385"/>
    </contour>
    <contour>
      <point x="384" y="324" type="curve" smooth="yes"/>
      <point x="384" y="368"/>
      <point x="366" y="420"/>
      <point x="314" y="420" type="curve" smooth="yes"/>
      <point x="193" y="420"/>
      <point x="111" y="203"/>
      <point x="111" y="103" type="curve" smooth="yes"/>
      <point x="111" y="53"/>
      <point x="136" y="10"/>
      <point x="191" y="10" type="curve" smooth="yes"/>
      <point x="310" y="10"/>
      <point x="384" y="227"/>
    </contour>
    <contour>
      <point x="259" y="606" type="curve" smooth="yes"/>
      <point x="284" y="606"/>
      <point x="307" y="582"/>
      <point x="307" y="557" type="curve" smooth="yes"/>
      <point x="307" y="530"/>
      <point x="285" y="508"/>
      <point x="258" y="508" type="curve" smooth="yes"/>
      <point x="231" y="508"/>
      <point x="209" y="530"/>
      <point x="209" y="558" type="curve" smooth="yes"/>
      <point x="209" y="584"/>
      <point x="231" y="606"/>
    </contour>
    <contour>
      <point x="459" y="606" type="curve" smooth="yes"/>
      <point x="484" y="606"/>
      <point x="507" y="582"/>
      <point x="507" y="557" type="curve" smooth="yes"/>
      <point x="507" y="530"/>
      <point x="485" y="508"/>
      <point x="458" y="508" type="curve" smooth="yes"/>
      <point x="431" y="508"/>
      <point x="409" y="530"/>
      <point x="409" y="558" type="curve" smooth="yes"/>
      <point x="409" y="584"/>
      <point x="431" y="606"/>
    </contour>
  </outline>
</glyph>
<glyph name="divide" format="1">
  <advance width="674"/>
  <unicode hex="00F7"/>
  <outline>
    <contour>
      <point x="338" y="100" type="curve" smooth="yes"/>
      <point x="368" y="100"/>
      <point x="394" y="74"/>
      <point x="394" y="43" type="curve" smooth="yes"/>
      <point x="394" y="13"/>
      <point x="368" y="-11"/>
      <point x="336" y="-11" type="curve" smooth="yes"/>
      <point x="308" y="-11"/>
      <point x="283" y="14"/>
      <point x="283" y="43" type="curve" smooth="yes"/>
      <point x="283" y="74"/>
      <point x="308" y="100"/>
    </contour>
    <contour>
      <point x="590" y="220" type="line"/>
      <point x="86" y="220" type="line"/>
      <point x="86" y="286" type="line"/>
      <point x="590" y="286" type="line"/>
    </contour>
    <contour>
      <point x="338" y="517" type="curve" smooth="yes"/>
      <point x="368" y="517"/>
      <point x="394" y="491"/>
      <point x="394" y="460" type="curve" smooth="yes"/>
      <point x="394" y="431"/>
      <point x="368" y="406"/>
      <point x="337" y="406" type="curve" smooth="yes"/>
      <point x="308" y="406"/>
      <point x="283" y="431"/>
      <point x="283" y="460" type="curve" smooth="yes"/>
      <point x="283" y="491"/>
      <point x="308" y="517"/>
    </contour>
  </outline>
</glyph>
<glyph name="Aogonek" format="1">
  <advance width="630"/>
  <unicode hex="0104"/>
  <outline>
    <contour>
      <point x="394" y="226" type="line"/>
      <point x="174" y="226" type="line"/>
      <point x="117" y="113" type="line" smooth="yes"/>
      <point x="100" y="79"/>
      <point x="97" y="70"/>
      <point x="97" y="51" type="curve" smooth="yes"/>
      <point x="97" y="26"/>
      <point x="105" y="21"/>
      <point x="156" y="16" type="curve"/>
      <point x="156" y="0" type="line"/>
      <point x="-31" y="0" type="line"/>
      <point x="-31" y="16" type="line"/>
      <point x="9" y="24"/>
      <point x="20" y="34"/>
      <point x="98" y="168" type="curve" smooth="yes"/>
      <point x="388" y="668" type="line"/>
      <point x="414" y="668" type="line"/>
      <point x="508" y="102" type="line" smooth="yes"/>
      <point x="521" y="29"/>
      <point x="527" y="21"/>
      <point x="584" y="16" type="curve"/>
      <point x="584" y="0" type="line"/>
      <point x="573" y="-11"/>
      <point x="568" y="-27"/>
      <point x="568" y="-49" type="curve" smooth="yes"/>
      <point x="568" y="-85"/>
      <point x="590" y="-106"/>
      <point x="627" y="-106" type="curve" smooth="yes"/>
      <point x="658" y="-106"/>
      <point x="683" y="-96"/>
      <point x="710" y="-74" type="curve"/>
      <point x="727" y="-92" type="line"/>
      <point x="692" y="-143"/>
      <point x="650" y="-169"/>
      <point x="602" y="-169" type="curve" smooth="yes"/>
      <point x="550" y="-169"/>
      <point x="507" y="-126"/>
      <point x="507" y="-73" type="curve" smooth="yes"/>
      <point x="507" y="-46"/>
      <point x="513" y="-30"/>
      <point x="535" y="0" type="curve"/>
      <point x="338" y="0" type="line"/>
      <point x="338" y="16" type="line"/>
      <point x="402" y="22"/>
      <point x="416" y="31"/>
      <point x="416" y="69" type="curve" smooth="yes"/>
      <point x="416" y="77"/>
      <point x="415" y="86"/>
      <point x="414" y="95" type="curve" smooth="yes"/>
    </contour>
    <contour>
      <point x="195" y="262" type="line"/>
      <point x="389" y="262" type="line"/>
      <point x="345" y="522" type="line"/>
    </contour>
  </outline>
</glyph>
<glyph name="Emacron" format="1">
  <advance width="603"/>
  <unicode hex="0112"/>
  <outline>
    <contour>
      <point x="315" y="325" type="curve" smooth="yes"/>
      <point x="303" y="325"/>
      <point x="237" y="328"/>
      <point x="237" y="328" type="curve"/>
      <point x="170" y="76" type="line" smooth="yes"/>
      <point x="168.921" y="72.0421"/>
      <point x="168.388" y="68.4151"/>
      <point x="168.388" y="65.0965" type="curve" smooth="yes"/>
      <point x="168.388" y="40.7451"/>
      <point x="197.076" y="33"/>
      <point x="249" y="33" type="curve" smooth="yes"/>
      <point x="324" y="33"/>
      <point x="392" y="43"/>
      <point x="429" y="60" type="curve" smooth="yes"/>
      <point x="472" y="80"/>
      <point x="498" y="106"/>
      <point x="545" y="170" type="curve"/>
      <point x="561" y="162" type="line"/>
      <point x="499" y="0" type="line"/>
      <point x="-8" y="0" type="line"/>
      <point x="-8" y="16" type="line"/>
      <point x="48" y="26"/>
      <point x="56" y="33"/>
      <point x="73" y="90" type="curve" smooth="yes"/>
      <point x="196" y="532" type="line" smooth="yes"/>
      <point x="201" y="550"/>
      <point x="207" y="585"/>
      <point x="207" y="596" type="curve" smooth="yes"/>
      <point x="207" y="623"/>
      <point x="192" y="631"/>
      <point x="130" y="637" type="curve"/>
      <point x="130" y="653" type="line"/>
      <point x="627" y="653" type="line"/>
      <point x="596" y="500" type="line"/>
      <point x="575" y="502" type="line"/>
      <point x="576" y="519"/>
      <point x="577" y="534"/>
      <point x="577" y="547" type="curve" smooth="yes"/>
      <point x="577" y="607"/>
      <point x="542" y="620"/>
      <point x="385" y="620" type="curve" smooth="yes"/>
      <point x="329" y="620"/>
      <point x="318" y="616"/>
      <point x="312" y="594" type="curve" smooth="yes"/>
      <point x="246" y="361" type="line"/>
      <point x="246" y="361"/>
      <point x="313" y="363"/>
      <point x="325" y="363" type="curve" smooth="yes"/>
      <point x="416" y="367"/>
      <point x="425" y="373"/>
      <point x="463" y="458" type="curve"/>
      <point x="481" y="454" type="line"/>
      <point x="413" y="222" type="line"/>
      <point x="393" y="227" type="line"/>
      <point x="398" y="249"/>
      <point x="400" y="262"/>
      <point x="400" y="279" type="curve" smooth="yes"/>
      <point x="400" y="309"/>
      <point x="398" y="325"/>
    </contour>
    <contour>
      <point x="589" y="798" type="line"/>
      <point x="575" y="744" type="line"/>
      <point x="264" y="744" type="line"/>
      <point x="278" y="798" type="line"/>
    </contour>
  </outline>
</glyph>
<glyph name="edotaccent" format="1">
  <advance width="443"/>
  <unicode hex="0117"/>
  <outline>
    <contour>
      <point x="358" y="109" type="curve"/>
      <point x="370" y="97" type="line"/>
      <point x="311" y="30"/>
      <point x="234" y="-11"/>
      <point x="163" y="-11" type="curve" smooth="yes"/>
      <point x="85" y="-11"/>
      <point x="31" y="45"/>
      <point x="31" y="126" type="curve" smooth="yes"/>
      <point x="31" y="276"/>
      <point x="188" y="441"/>
      <point x="332" y="441" type="curve" smooth="yes"/>
      <point x="382" y="441"/>
      <point x="412" y="415"/>
      <point x="412" y="373" type="curve" smooth="yes"/>
      <point x="412" y="287"/>
      <point x="306" y="211"/>
      <point x="156" y="190" type="curve" smooth="yes"/>
      <point x="128" y="186" type="line"/>
      <point x="120" y="154"/>
      <point x="118" y="139"/>
      <point x="118" y="124" type="curve" smooth="yes"/>
      <point x="118" y="70"/>
      <point x="155" y="34"/>
      <point x="212" y="34" type="curve" smooth="yes"/>
      <point x="255" y="34"/>
      <point x="286" y="50"/>
    </contour>
    <contour>
      <point x="152" y="252" type="curve" smooth="yes"/>
      <point x="135" y="208" type="line"/>
      <point x="221" y="229"/>
      <point x="259" y="247"/>
      <point x="296" y="282" type="curve" smooth="yes"/>
      <point x="327" y="312"/>
      <point x="346" y="348"/>
      <point x="346" y="379" type="curve" smooth="yes"/>
      <point x="346" y="402"/>
      <point x="332" y="418"/>
      <point x="311" y="418" type="curve" smooth="yes"/>
      <point x="260" y="418"/>
      <point x="186" y="341"/>
    </contour>
    <contour>
      <point x="392" y="556" type="curve" smooth="yes"/>
      <point x="392" y="529"/>
      <point x="371" y="508"/>
      <point x="344" y="508" type="curve" smooth="yes"/>
      <point x="317" y="508"/>
      <point x="296" y="529"/>
      <point x="296" y="556" type="curve" smooth="yes"/>
      <point x="296" y="583"/>
      <point x="317" y="604"/>
      <point x="344" y="604" type="curve" smooth="yes"/>
      <point x="371" y="604"/>
      <point x="392" y="583"/>
    </contour>
  </outline>
</glyph>
<glyph name="Gbreve" format="1">
  <advance width="721"/>
  <unicode hex="011E"/>
  <outline>
    <contour>
      <point x="722" y="303" type="line"/>
      <point x="664" y="300"/>
      <point x="641" y="290"/>
      <point x="625" y="231" type="curve" smooth="yes"/>
      <point x="576" y="44" type="line"/>
      <point x="512" y="4"/>
      <point x="421" y="-18"/>
      <point x="345" y="-18" type="curve" smooth="yes"/>
      <point x="192" y="-18"/>
      <point x="52" y="76"/>
      <point x="52" y="240" type="curve" smooth="yes"/>
      <point x="52" y="458"/>
      <point x="233" y="666"/>
      <point x="457" y="666" type="curve" smooth="yes"/>
      <point x="525" y="666"/>
      <point x="591" y="632"/>
      <point x="630" y="632" type="curve" smooth="yes"/>
      <point x="657" y="632"/>
      <point x="679" y="643"/>
      <point x="693" y="666" type="curve"/>
      <point x="708" y="662" type="line"/>
      <point x="659" y="465" type="line"/>
      <point x="641" y="468" type="line"/>
      <point x="634" y="573"/>
      <point x="563" y="632"/>
      <point x="461" y="632" type="curve" smooth="yes"/>
      <point x="263" y="632"/>
      <point x="162" y="390"/>
      <point x="162" y="221" type="curve" smooth="yes"/>
      <point x="162" y="94"/>
      <point x="235" y="19"/>
      <point x="364" y="19" type="curve" smooth="yes"/>
      <point x="403" y="19"/>
      <point x="439" y="27"/>
      <point x="469" y="53" type="curve" smooth="yes"/>
      <point x="493" y="74"/>
      <point x="534" y="231"/>
      <point x="534" y="266" type="curve" smooth="yes"/>
      <point x="534" y="302"/>
      <point x="481" y="301"/>
      <point x="456" y="303" type="curve"/>
      <point x="456" y="319" type="line"/>
      <point x="722" y="319" type="line"/>
    </contour>
    <contour>
      <point x="678" y="861" type="line"/>
      <point x="648" y="777"/>
      <point x="592" y="705"/>
      <point x="495" y="705" type="curve" smooth="yes"/>
      <point x="430" y="705"/>
      <point x="388" y="742"/>
      <point x="388" y="808" type="curve" smooth="yes"/>
      <point x="388" y="821"/>
      <point x="391" y="850"/>
      <point x="397" y="861" type="curve"/>
      <point x="426" y="861" type="line"/>
      <point x="425" y="847" type="line" smooth="yes"/>
      <point x="424.886" y="844.914"/>
      <point x="424.83" y="842.868"/>
      <point x="424.83" y="840.862" type="curve" smooth="yes"/>
      <point x="424.83" y="789.991"/>
      <point x="461.01" y="765"/>
      <point x="512" y="765" type="curve" smooth="yes"/>
      <point x="584" y="765"/>
      <point x="614" y="806"/>
      <point x="649" y="861" type="curve"/>
    </contour>
  </outline>
</glyph>
<glyph name="gcedilla" format="1">
  <advance width="500"/>
  <unicode hex="0123"/>
  <outline>
    <contour>
      <point x="416" y="701" type="curve"/>
      <point x="425" y="684" type="line"/>
      <point x="376" y="665"/>
      <point x="354" y="645"/>
      <point x="354" y="618" type="curve" smooth="yes"/>
      <point x="354" y="608"/>
      <point x="361" y="601"/>
      <point x="370" y="594" type="curve" smooth="yes"/>
      <point x="391" y="578"/>
      <point x="399" y="563"/>
      <point x="399" y="539" type="curve" smooth="yes"/>
      <point x="399" y="512"/>
      <point x="377" y="492"/>
      <point x="348" y="492" type="curve" smooth="yes"/>
      <point x="315" y="492"/>
      <point x="290" y="523"/>
      <point x="290" y="563" type="curve" smooth="yes"/>
      <point x="290" y="619"/>
      <point x="330" y="667"/>
    </contour>
    <contour>
      <point x="297" y="441" type="curve" smooth="yes"/>
      <point x="375" y="441"/>
      <point x="396" y="405"/>
      <point x="411" y="405" type="curve" smooth="yes"/>
      <point x="472" y="405" type="line"/>
      <point x="472" y="366" type="line"/>
      <point x="422" y="366" type="line"/>
      <point x="428" y="346"/>
      <point x="431" y="326"/>
      <point x="431" y="310" type="curve" smooth="yes"/>
      <point x="431" y="232"/>
      <point x="337" y="151"/>
      <point x="246" y="151" type="curve" smooth="yes"/>
      <point x="222" y="151"/>
      <point x="214" y="155"/>
      <point x="208" y="155" type="curve" smooth="yes"/>
      <point x="195" y="155"/>
      <point x="172" y="129"/>
      <point x="172" y="114" type="curve" smooth="yes"/>
      <point x="172" y="99"/>
      <point x="198" y="83"/>
      <point x="242" y="72" type="curve" smooth="yes"/>
      <point x="337" y="47"/>
      <point x="385" y="3"/>
      <point x="385" y="-60" type="curve" smooth="yes"/>
      <point x="385" y="-147"/>
      <point x="301" y="-206"/>
      <point x="175" y="-206" type="curve" smooth="yes"/>
      <point x="74" y="-206"/>
      <point x="8" y="-161"/>
      <point x="8" y="-92" type="curve" smooth="yes"/>
      <point x="8" y="-46"/>
      <point x="26" y="-26"/>
      <point x="125" y="39" type="curve"/>
      <point x="106" y="53"/>
      <point x="98" y="65"/>
      <point x="98" y="78" type="curve" smooth="yes"/>
      <point x="98" y="102"/>
      <point x="116" y="122"/>
      <point x="175" y="162" type="curve"/>
      <point x="118" y="188"/>
      <point x="96" y="218"/>
      <point x="96" y="270" type="curve" smooth="yes"/>
      <point x="96" y="364"/>
      <point x="186" y="441"/>
    </contour>
    <contour>
      <point x="148" y="28" type="curve" smooth="yes"/>
      <point x="140" y="28"/>
      <point x="98" y="-5"/>
      <point x="85" y="-22" type="curve" smooth="yes"/>
      <point x="69" y="-41"/>
      <point x="63" y="-58"/>
      <point x="63" y="-82" type="curve" smooth="yes"/>
      <point x="63" y="-146"/>
      <point x="110" y="-184"/>
      <point x="190" y="-184" type="curve" smooth="yes"/>
      <point x="267" y="-184"/>
      <point x="325" y="-144"/>
      <point x="325" y="-90" type="curve" smooth="yes"/>
      <point x="325" y="-20"/>
      <point x="226" y="2"/>
      <point x="153" y="26" type="curve" smooth="yes"/>
      <point x="151" y="27"/>
      <point x="149" y="28"/>
    </contour>
    <contour>
      <point x="234" y="172" type="curve" smooth="yes"/>
      <point x="308" y="172"/>
      <point x="352" y="279"/>
      <point x="352" y="348" type="curve" smooth="yes"/>
      <point x="352" y="395"/>
      <point x="333" y="419"/>
      <point x="296" y="419" type="curve" smooth="yes"/>
      <point x="231" y="419"/>
      <point x="174" y="339"/>
      <point x="174" y="247" type="curve" smooth="yes"/>
      <point x="174" y="200"/>
      <point x="196" y="172"/>
    </contour>
  </outline>
</glyph>
<glyph name="itilde" format="1">
  <advance width="277"/>
  <unicode hex="0129"/>
  <outline>
    <contour>
      <point x="124" y="51" type="curve" smooth="yes"/>
      <point x="124" y="44"/>
      <point x="132" y="36"/>
      <point x="140" y="36" type="curve" smooth="yes"/>
      <point x="149" y="36"/>
      <point x="164" y="46"/>
      <point x="181" y="63" type="curve" smooth="yes"/>
      <point x="191" y="74"/>
      <point x="198" y="82"/>
      <point x="222" y="114" type="curve"/>
      <point x="235" y="103" type="line"/>
      <point x="178" y="19"/>
      <point x="141" y="-11"/>
      <point x="95" y="-11" type="curve" smooth="yes"/>
      <point x="65" y="-11"/>
      <point x="49" y="9"/>
      <point x="49" y="46" type="curve" smooth="yes"/>
      <point x="49" y="66"/>
      <point x="55" y="97"/>
      <point x="71" y="155" type="curve" smooth="yes"/>
      <point x="119" y="332" type="line" smooth="yes"/>
      <point x="125" y="352"/>
      <point x="128" y="368"/>
      <point x="128" y="376" type="curve" smooth="yes"/>
      <point x="128" y="396"/>
      <point x="118" y="399"/>
      <point x="65" y="400" type="curve"/>
      <point x="65" y="416" type="line"/>
      <point x="104" y="419"/>
      <point x="124" y="422"/>
      <point x="225" y="441" type="curve"/>
      <point x="228" y="439" type="line"/>
      <point x="140" y="117" type="line" smooth="yes"/>
      <point x="120" y="44"/>
      <point x="124" y="61"/>
    </contour>
    <contour>
      <point x="347" y="624" type="curve"/>
      <point x="375" y="624" type="line"/>
      <point x="361" y="557"/>
      <point x="328" y="520"/>
      <point x="280" y="520" type="curve" smooth="yes"/>
      <point x="268" y="520"/>
      <point x="249" y="525"/>
      <point x="223" y="535" type="curve" smooth="yes"/>
      <point x="169" y="557"/>
      <point x="145" y="564"/>
      <point x="128" y="564" type="curve" smooth="yes"/>
      <point x="103" y="564"/>
      <point x="87" y="549"/>
      <point x="77" y="517" type="curve"/>
      <point x="48" y="517" type="line"/>
      <point x="68" y="594"/>
      <point x="96" y="623"/>
      <point x="148" y="623" type="curve" smooth="yes"/>
      <point x="170" y="623"/>
      <point x="196" y="616"/>
      <point x="234" y="599" type="curve" smooth="yes"/>
      <point x="264" y="585"/>
      <point x="281" y="580"/>
      <point x="296" y="580" type="curve" smooth="yes"/>
      <point x="323" y="580"/>
      <point x="336" y="591"/>
    </contour>
  </outline>
</glyph>
<glyph name="iogonek" format="1">
  <advance width="277"/>
  <unicode hex="012F"/>
  <outline>
    <contour>
      <point x="134" y="95" type="line" smooth="yes"/>
      <point x="129" y="75"/>
      <point x="124" y="61"/>
      <point x="124" y="51" type="curve" smooth="yes"/>
      <point x="124" y="44"/>
      <point x="132" y="36"/>
      <point x="140" y="36" type="curve" smooth="yes"/>
      <point x="157" y="36"/>
      <point x="184" y="64"/>
      <point x="222" y="114" type="curve"/>
      <point x="235" y="103" type="line"/>
      <point x="203" y="55"/>
      <point x="187" y="36"/>
      <point x="159" y="13" type="curve" smooth="yes"/>
      <point x="124" y="-15"/>
      <point x="119" y="-23"/>
      <point x="119" y="-50" type="curve" smooth="yes"/>
      <point x="119" y="-85"/>
      <point x="141" y="-106"/>
      <point x="178" y="-106" type="curve" smooth="yes"/>
      <point x="209" y="-106"/>
      <point x="234" y="-96"/>
      <point x="261" y="-74" type="curve"/>
      <point x="278" y="-92" type="line"/>
      <point x="243" y="-144"/>
      <point x="201" y="-169"/>
      <point x="153" y="-169" type="curve" smooth="yes"/>
      <point x="100" y="-169"/>
      <point x="58" y="-126"/>
      <point x="58" y="-72" type="curve" smooth="yes"/>
      <point x="58" y="-48"/>
      <point x="63" y="-32"/>
      <point x="80" y="-9" type="curve"/>
      <point x="58" y="-1"/>
      <point x="49" y="15"/>
      <point x="49" y="46" type="curve" smooth="yes"/>
      <point x="49" y="66"/>
      <point x="55" y="97"/>
      <point x="71" y="155" type="curve" smooth="yes"/>
      <point x="119" y="332" type="line" smooth="yes"/>
      <point x="125" y="352"/>
      <point x="128" y="368"/>
      <point x="128" y="376" type="curve" smooth="yes"/>
      <point x="128" y="396"/>
      <point x="118" y="399"/>
      <point x="65" y="400" type="curve"/>
      <point x="65" y="416" type="line"/>
      <point x="104" y="419"/>
      <point x="124" y="422"/>
      <point x="225" y="441" type="curve"/>
      <point x="228" y="439" type="line"/>
    </contour>
    <contour>
      <point x="214" y="654" type="curve" smooth="yes"/>
      <point x="241" y="654"/>
      <point x="264" y="628"/>
      <point x="264" y="599" type="curve" smooth="yes"/>
      <point x="264" y="571"/>
      <point x="241" y="548"/>
      <point x="215" y="548" type="curve" smooth="yes"/>
      <point x="186" y="548"/>
      <point x="167" y="569"/>
      <point x="167" y="601" type="curve" smooth="yes"/>
      <point x="167" y="631"/>
      <point x="187" y="654"/>
    </contour>
  </outline>
</glyph>
<glyph name="lcedilla" format="1">
  <advance width="277"/>
  <unicode hex="013C"/>
  <outline>
    <contour>
      <point x="2" y="-212" type="curve"/>
      <point x="-6" y="-197" type="line"/>
      <point x="34" y="-186"/>
      <point x="59" y="-167"/>
      <point x="59" y="-143" type="curve" smooth="yes"/>
      <point x="59" y="-139"/>
      <point x="59" y="-130"/>
      <point x="50" y="-125" type="curve" smooth="yes"/>
      <point x="32" y="-116"/>
      <point x="20" y="-106"/>
      <point x="20" y="-82" type="curve" smooth="yes"/>
      <point x="20" y="-58"/>
      <point x="40" y="-40"/>
      <point x="66" y="-40" type="curve" smooth="yes"/>
      <point x="96" y="-40"/>
      <point x="115" y="-67"/>
      <point x="115" y="-102" type="curve" smooth="yes"/>
      <point x="115" y="-155"/>
      <point x="72" y="-190"/>
    </contour>
    <contour>
      <point x="228" y="123" type="curve"/>
      <point x="241" y="114" type="line"/>
      <point x="176" y="18"/>
      <point x="141" y="-11"/>
      <point x="89" y="-11" type="curve" smooth="yes"/>
      <point x="57" y="-11"/>
      <point x="40" y="9"/>
      <point x="40" y="45" type="curve" smooth="yes"/>
      <point x="40" y="50"/>
      <point x="42" y="60"/>
      <point x="45" y="71" type="curve" smooth="yes"/>
      <point x="182" y="599" type="line" smooth="yes"/>
      <point x="185" y="608"/>
      <point x="186" y="614"/>
      <point x="186" y="617" type="curve" smooth="yes"/>
      <point x="186" y="633"/>
      <point x="166" y="640"/>
      <point x="118" y="640" type="curve"/>
      <point x="118" y="656" type="line"/>
      <point x="177" y="663"/>
      <point x="215" y="670"/>
      <point x="274" y="683" type="curve"/>
      <point x="279" y="678" type="line"/>
      <point x="128" y="99" type="line" smooth="yes"/>
      <point x="127" y="97"/>
      <point x="117" y="60"/>
      <point x="117" y="50" type="curve" smooth="yes"/>
      <point x="117" y="39"/>
      <point x="122" y="32"/>
      <point x="132" y="32" type="curve" smooth="yes"/>
      <point x="150" y="32"/>
      <point x="169" y="47"/>
      <point x="201" y="89" type="curve" smooth="yes"/>
      <point x="210" y="101"/>
      <point x="219" y="112"/>
    </contour>
  </outline>
</glyph>
<glyph name="lcaron" format="1">
  <advance width="356"/>
  <unicode hex="013E"/>
  <outline>
    <contour>
      <point x="285" y="457" type="curve"/>
      <point x="276" y="474" type="line"/>
      <point x="325" y="493"/>
      <point x="347" y="513"/>
      <point x="347" y="540" type="curve" smooth="yes"/>
      <point x="347" y="550"/>
      <point x="340" y="557"/>
      <point x="331" y="564" type="curve" smooth="yes"/>
      <point x="310" y="580"/>
      <point x="302" y="595"/>
      <point x="302" y="619" type="curve" smooth="yes"/>
      <point x="302" y="646"/>
      <point x="324" y="666"/>
      <point x="353" y="666" type="curve" smooth="yes"/>
      <point x="386" y="666"/>
      <point x="411" y="635"/>
      <point x="411" y="595" type="curve" smooth="yes"/>
      <point x="411" y="539"/>
      <point x="371" y="491"/>
    </contour>
    <contour>
      <point x="228" y="123" type="curve"/>
      <point x="241" y="114" type="line"/>
      <point x="176" y="18"/>
      <point x="141" y="-11"/>
      <point x="89" y="-11" type="curve" smooth="yes"/>
      <point x="57" y="-11"/>
      <point x="40" y="9"/>
      <point x="40" y="45" type="curve" smooth="yes"/>
      <point x="40" y="50"/>
      <point x="42" y="60"/>
      <point x="45" y="71" type="curve" smooth="yes"/>
      <point x="182" y="599" type="line" smooth="yes"/>
      <point x="185" y="608"/>
      <point x="186" y="614"/>
      <point x="186" y="617" type="curve" smooth="yes"/>
      <point x="186" y="633"/>
      <point x="166" y="640"/>
      <point x="118" y="640" type="curve"/>
      <point x="118" y="656" type="line"/>
      <point x="177" y="663"/>
      <point x="215" y="670"/>
      <point x="274" y="683" type="curve"/>
      <point x="279" y="678" type="line"/>
      <point x="128" y="99" type="line" smooth="yes"/>
      <point x="127" y="97"/>
      <point x="117" y="60"/>
      <point x="117" y="50" type="curve" smooth="yes"/>
      <point x="117" y="39"/>
      <point x="122" y="32"/>
      <point x="132" y="32" type="curve" smooth="yes"/>
      <point x="150" y="32"/>
      <point x="169" y="47"/>
      <point x="201" y="89" type="curve" smooth="yes"/>
      <point x="210" y="101"/>
      <point x="219" y="112"/>
    </contour>
  </outline>
</glyph>
<glyph name="Lslash" format="1">
  <advance width="555"/>
  <unicode hex="0141"/>
  <outline>
    <contour>
      <point x="168" y="70" type="curve" smooth="yes"/>
      <point x="168" y="44"/>
      <point x="194" y="36"/>
      <point x="273" y="36" type="curve" smooth="yes"/>
      <point x="357" y="36"/>
      <point x="398" y="42"/>
      <point x="433" y="59" type="curve" smooth="yes"/>
      <point x="477" y="81"/>
      <point x="504" y="113"/>
      <point x="539" y="185" type="curve"/>
      <point x="559" y="179" type="line"/>
      <point x="501" y="0" type="line"/>
      <point x="-8" y="0" type="line"/>
      <point x="-8" y="16" type="line"/>
      <point x="48" y="26"/>
      <point x="57" y="31"/>
      <point x="73" y="90" type="curve" smooth="yes"/>
      <point x="127" y="284" type="line"/>
      <point x="28" y="225" type="line"/>
      <point x="41" y="273" type="line"/>
      <point x="140" y="332" type="line"/>
      <point x="196" y="532" type="line" smooth="yes"/>
      <point x="203" y="557"/>
      <point x="207" y="580"/>
      <point x="207" y="594" type="curve" smooth="yes"/>
      <point x="207" y="623"/>
      <point x="192" y="631"/>
      <point x="130" y="637" type="curve"/>
      <point x="130" y="653" type="line"/>
      <point x="403" y="653" type="line"/>
      <point x="403" y="637" type="line"/>
      <point x="343" y="633"/>
      <point x="317" y="614"/>
      <point x="302" y="563" type="curve" smooth="yes"/>
      <point x="253" y="388" type="line"/>
      <point x="396" y="473" type="line"/>
      <point x="382" y="424" type="line"/>
      <point x="240" y="341" type="line"/>
      <point x="240" y="341"/>
      <point x="168" y="80"/>
    </contour>
  </outline>
</glyph>
<glyph name="lslash" format="1">
  <advance width="277"/>
  <unicode hex="0142"/>
  <outline>
    <contour>
      <point x="209" y="410" type="line"/>
      <point x="307" y="460" type="line"/>
      <point x="295" y="414" type="line"/>
      <point x="197" y="364" type="line"/>
      <point x="128" y="99" type="line"/>
      <point x="128" y="97" type="line" smooth="yes"/>
      <point x="127" y="96"/>
      <point x="126" y="93"/>
      <point x="126" y="89" type="curve" smooth="yes"/>
      <point x="121" y="70"/>
      <point x="118" y="57"/>
      <point x="118" y="50" type="curve" smooth="yes"/>
      <point x="118" y="38"/>
      <point x="123" y="32"/>
      <point x="133" y="32" type="curve" smooth="yes"/>
      <point x="151" y="32"/>
      <point x="169" y="47"/>
      <point x="202" y="89" type="curve" smooth="yes"/>
      <point x="211" y="101"/>
      <point x="219" y="112"/>
      <point x="228" y="123" type="curve"/>
      <point x="241" y="114" type="line"/>
      <point x="176" y="18"/>
      <point x="142" y="-11"/>
      <point x="90" y="-11" type="curve" smooth="yes"/>
      <point x="58" y="-11"/>
      <point x="41" y="8"/>
      <point x="41" y="45" type="curve" smooth="yes"/>
      <point x="41" y="66"/>
      <point x="59" y="141"/>
      <point x="88" y="238" type="curve" smooth="yes"/>
      <point x="91" y="248"/>
      <point x="100" y="280"/>
      <point x="109" y="314" type="curve"/>
      <point x="37" y="278" type="line"/>
      <point x="49" y="324" type="line"/>
      <point x="121" y="360" type="line"/>
      <point x="165" y="525"/>
      <point x="186" y="608"/>
      <point x="186" y="616" type="curve" smooth="yes"/>
      <point x="186" y="633"/>
      <point x="167" y="640"/>
      <point x="118" y="640" type="curve"/>
      <point x="118" y="656" type="line"/>
      <point x="177" y="663"/>
      <point x="215" y="670"/>
      <point x="274" y="683" type="curve"/>
      <point x="279" y="678" type="line"/>
    </contour>
  </outline>
</glyph>
<glyph name="ohungarumlaut" format="1">
  <advance width="500"/>
  <unicode hex="0151"/>
  <outline>
    <contour>
      <point x="468" y="293" type="curve" smooth="yes"/>
      <point x="468" y="156"/>
      <point x="318" y="-11"/>
      <point x="178" y="-11" type="curve" smooth="yes"/>
      <point x="85" y="-11"/>
      <point x="27" y="38"/>
      <point x="27" y="133" type="curve" smooth="yes"/>
      <point x="27" y="278"/>
      <point x="173" y="441"/>
      <point x="321" y="441" type="curve" smooth="yes"/>
      <point x="414" y="441"/>
      <point x="468" y="385"/>
    </contour>
    <contour>
      <point x="384" y="324" type="curve" smooth="yes"/>
      <point x="384" y="368"/>
      <point x="366" y="420"/>
      <point x="314" y="420" type="curve" smooth="yes"/>
      <point x="193" y="420"/>
      <point x="111" y="203"/>
      <point x="111" y="103" type="curve" smooth="yes"/>
      <point x="111" y="53"/>
      <point x="136" y="10"/>
      <point x="191" y="10" type="curve" smooth="yes"/>
      <point x="310" y="10"/>
      <point x="384" y="227"/>
    </contour>
    <contour>
      <point x="215" y="494" type="line"/>
      <point x="377" y="654" type="line" smooth="yes"/>
      <point x="384" y="660"/>
      <point x="392" y="664"/>
      <point x="402" y="664" type="curve" smooth="yes"/>
      <point x="422" y="664"/>
      <point x="438" y="648"/>
      <point x="438" y="628" type="curve" smooth="yes"/>
      <point x="438" y="616"/>
      <point x="433" y="607"/>
      <point x="421" y="600" type="curve" smooth="yes"/>
      <point x="250" y="494" type="line"/>
    </contour>
    <contour>
      <point x="385" y="494" type="line"/>
      <point x="547" y="654" type="line" smooth="yes"/>
      <point x="554" y="660"/>
      <point x="562" y="664"/>
      <point x="572" y="664" type="curve" smooth="yes"/>
      <point x="592" y="664"/>
      <point x="608" y="648"/>
      <point x="608" y="628" type="curve" smooth="yes"/>
      <point x="608" y="616"/>
      <point x="603" y="607"/>
      <point x="591" y="600" type="curve" smooth="yes"/>
      <point x="420" y="494" type="line"/>
    </contour>
  </outline>
</glyph>
<glyph name="racute" format="1">
  <advance width="388"/>
  <unicode hex="0155"/>
  <outline>
    <contour>
      <point x="366" y="340" type="curve" smooth="yes"/>
      <point x="322" y="340"/>
      <point x="336" y="376"/>
      <point x="314" y="376" type="curve" smooth="yes"/>
      <point x="297" y="376"/>
      <point x="269" y="345"/>
      <point x="236" y="289" type="curve" smooth="yes"/>
      <point x="190" y="213"/>
      <point x="173" y="170"/>
      <point x="121" y="0" type="curve"/>
      <point x="45" y="0" type="line"/>
      <point x="126" y="292" type="line" smooth="yes"/>
      <point x="140.44" y="342.92"/>
      <point x="142.173" y="355.718"/>
      <point x="142.173" y="365.074" type="curve" smooth="yes"/>
      <point x="142.173" y="368.029"/>
      <point x="142" y="370.64"/>
      <point x="142" y="374" type="curve" smooth="yes"/>
      <point x="142" y="392"/>
      <point x="129" y="402"/>
      <point x="107" y="402" type="curve" smooth="yes"/>
      <point x="100" y="402"/>
      <point x="97" y="402"/>
      <point x="73" y="397" type="curve"/>
      <point x="73" y="414" type="line"/>
      <point x="146" y="426"/>
      <point x="155" y="428"/>
      <point x="228" y="441" type="curve"/>
      <point x="231" y="439" type="line"/>
      <point x="178" y="222" type="line"/>
      <point x="192" y="258" type="line" smooth="yes"/>
      <point x="209" y="301"/>
      <point x="296" y="441"/>
      <point x="365" y="441" type="curve" smooth="yes"/>
      <point x="393" y="441"/>
      <point x="412" y="420"/>
      <point x="412" y="389" type="curve" smooth="yes"/>
      <point x="412" y="358"/>
      <point x="395" y="340"/>
    </contour>
    <contour>
      <point x="208" y="494" type="line"/>
      <point x="370" y="654" type="line" smooth="yes"/>
      <point x="377" y="660"/>
      <point x="385" y="664"/>
      <point x="395" y="664" type="curve" smooth="yes"/>
      <point x="415" y="664"/>
      <point x="431" y="648"/>
      <point x="431" y="628" type="curve" smooth="yes"/>
      <point x="431" y="616"/>
      <point x="426" y="607"/>
      <point x="414" y="600" type="curve" smooth="yes"/>
      <point x="243" y="494" type="line"/>
    </contour>
  </outline>
</glyph>
<glyph name="Rcedilla" format="1">
  <advance width="627"/>
  <unicode hex="0156"/>
  <outline>
    <contour>
      <point x="210" y="-212" type="curve"/>
      <point x="202" y="-197" type="line"/>
      <point x="242" y="-186"/>
      <point x="267" y="-167"/>
      <point x="267" y="-143" type="curve" smooth="yes"/>
      <point x="267" y="-139"/>
      <point x="267" y="-130"/>
      <point x="258" y="-125" type="curve" smooth="yes"/>
      <point x="240" y="-116"/>
      <point x="228" y="-106"/>
      <point x="228" y="-82" type="curve" smooth="yes"/>
      <point x="228" y="-58"/>
      <point x="248" y="-40"/>
      <point x="274" y="-40" type="curve" smooth="yes"/>
      <point x="304" y="-40"/>
      <point x="323" y="-67"/>
      <point x="323" y="-102" type="curve" smooth="yes"/>
      <point x="323" y="-155"/>
      <point x="280" y="-190"/>
    </contour>
    <contour>
      <point x="137" y="637" type="curve"/>
      <point x="137" y="653" type="line"/>
      <point x="385" y="653" type="line" smooth="yes"/>
      <point x="519" y="653"/>
      <point x="593" y="602"/>
      <point x="593" y="509" type="curve" smooth="yes"/>
      <point x="593" y="408"/>
      <point x="502" y="350"/>
      <point x="396" y="333" type="curve"/>
      <point x="489" y="88" type="line" smooth="yes"/>
      <point x="508" y="36"/>
      <point x="528" y="19"/>
      <point x="572" y="16" type="curve"/>
      <point x="572" y="0" type="line"/>
      <point x="424" y="0" type="line"/>
      <point x="301" y="324" type="line"/>
      <point x="236" y="329" type="line"/>
      <point x="180" y="120" type="line" smooth="yes"/>
      <point x="171" y="85"/>
      <point x="168" y="72"/>
      <point x="168" y="62" type="curve" smooth="yes"/>
      <point x="168" y="29"/>
      <point x="175" y="24"/>
      <point x="236" y="16" type="curve"/>
      <point x="236" y="0" type="line"/>
      <point x="-8" y="0" type="line"/>
      <point x="-8" y="16" type="line"/>
      <point x="48" y="25"/>
      <point x="56" y="31"/>
      <point x="73" y="90" type="curve" smooth="yes"/>
      <point x="196" y="532" type="line" smooth="yes"/>
      <point x="203" y="559"/>
      <point x="208" y="583"/>
      <point x="208" y="595" type="curve" smooth="yes"/>
      <point x="208" y="614"/>
      <point x="190" y="637"/>
    </contour>
    <contour>
      <point x="313" y="595" type="curve" smooth="yes"/>
      <point x="248" y="366" type="line"/>
      <point x="272" y="362"/>
      <point x="283" y="361"/>
      <point x="299" y="361" type="curve" smooth="yes"/>
      <point x="424" y="361"/>
      <point x="488" y="412"/>
      <point x="488" y="511" type="curve" smooth="yes"/>
      <point x="488" y="585"/>
      <point x="447" y="623"/>
      <point x="364" y="623" type="curve" smooth="yes"/>
      <point x="332" y="623"/>
      <point x="319" y="616"/>
    </contour>
  </outline>
</glyph>
<glyph name="Scircumflex" format="1">
  <advance width="500"/>
  <unicode hex="015C"/>
  <outline>
    <contour>
      <point x="508" y="667" type="line"/>
      <point x="468" y="468" type="line"/>
      <point x="450" y="471" type="line"/>
      <point x="449" y="558"/>
      <point x="430" y="633"/>
      <point x="325" y="633" type="curve" smooth="yes"/>
      <point x="265" y="633"/>
      <point x="219" y="595"/>
      <point x="219" y="533" type="curve" smooth="yes"/>
      <point x="219" y="403"/>
      <point x="431" y="346"/>
      <point x="431" y="180" type="curve" smooth="yes"/>
      <point x="431" y="66"/>
      <point x="341" y="-18"/>
      <point x="228" y="-18" type="curve" smooth="yes"/>
      <point x="171" y="-18"/>
      <point x="121" y="18"/>
      <point x="74" y="18" type="curve" smooth="yes"/>
      <point x="52" y="18"/>
      <point x="40" y="5"/>
      <point x="35" y="-15" type="curve"/>
      <point x="17" y="-15" type="line"/>
      <point x="51" y="208" type="line"/>
      <point x="71" y="206" type="line"/>
      <point x="70" y="199"/>
      <point x="69" y="192"/>
      <point x="69" y="185" type="curve" smooth="yes"/>
      <point x="69" y="99"/>
      <point x="123" y="17"/>
      <point x="215" y="17" type="curve" smooth="yes"/>
      <point x="289" y="17"/>
      <point x="344" y="76"/>
      <point x="344" y="149" type="curve" smooth="yes"/>
      <point x="344" y="285"/>
      <point x="131" y="348"/>
      <point x="131" y="502" type="curve" smooth="yes"/>
      <point x="131" y="598"/>
      <point x="209" y="666"/>
      <point x="303" y="666" type="curve" smooth="yes"/>
      <point x="364" y="666"/>
      <point x="405" y="641"/>
      <point x="441" y="641" type="curve" smooth="yes"/>
      <point x="463" y="641"/>
      <point x="474" y="649"/>
      <point x="485" y="667" type="curve"/>
    </contour>
    <contour>
      <point x="411" y="873" type="line"/>
      <point x="499" y="704" type="line"/>
      <point x="463" y="704" type="line"/>
      <point x="381" y="808" type="line"/>
      <point x="244" y="704" type="line"/>
      <point x="205" y="704" type="line"/>
      <point x="362" y="873" type="line"/>
    </contour>
  </outline>
</glyph>
<glyph name="Scedilla" format="1">
  <advance width="500"/>
  <unicode hex="015E"/>
  <outline>
    <contour>
      <point x="193" y="-15" type="curve"/>
      <point x="159" y="-66" type="line"/>
      <point x="169" y="-64"/>
      <point x="175" y="-63"/>
      <point x="184" y="-63" type="curve" smooth="yes"/>
      <point x="234" y="-63"/>
      <point x="266" y="-90"/>
      <point x="266" y="-131" type="curve" smooth="yes"/>
      <point x="266" y="-181"/>
      <point x="216" y="-217"/>
      <point x="147" y="-217" type="curve" smooth="yes"/>
      <point x="118" y="-217"/>
      <point x="96" y="-212"/>
      <point x="54" y="-196" type="curve"/>
      <point x="71" y="-167" type="line"/>
      <point x="100" y="-178"/>
      <point x="118" y="-182"/>
      <point x="139" y="-182" type="curve" smooth="yes"/>
      <point x="173" y="-182"/>
      <point x="192" y="-167"/>
      <point x="192" y="-141" type="curve" smooth="yes"/>
      <point x="192" y="-115"/>
      <point x="172" y="-97"/>
      <point x="146" y="-97" type="curve" smooth="yes"/>
      <point x="135" y="-97"/>
      <point x="127" y="-99"/>
      <point x="114" y="-104" type="curve"/>
      <point x="105" y="-96" type="line"/>
      <point x="160" y="-7" type="line"/>
      <point x="148" y="-3"/>
      <point x="141" y="-1"/>
      <point x="125" y="5" type="curve" smooth="yes"/>
      <point x="99" y="14"/>
      <point x="84" y="18"/>
      <point x="73" y="18" type="curve" smooth="yes"/>
      <point x="53" y="18"/>
      <point x="42" y="8"/>
      <point x="35" y="-15" type="curve"/>
      <point x="17" y="-15" type="line"/>
      <point x="51" y="208" type="line"/>
      <point x="71" y="206" type="line"/>
      <point x="70" y="199"/>
      <point x="69" y="191"/>
      <point x="69" y="183" type="curve" smooth="yes"/>
      <point x="69" y="88"/>
      <point x="132" y="17"/>
      <point x="215" y="17" type="curve" smooth="yes"/>
      <point x="288" y="17"/>
      <point x="344" y="75"/>
      <point x="344" y="150" type="curve" smooth="yes"/>
      <point x="344" y="281"/>
      <point x="131" y="350"/>
      <point x="131" y="499" type="curve" smooth="yes"/>
      <point x="131" y="597"/>
      <point x="205" y="666"/>
      <point x="309" y="666" type="curve" smooth="yes"/>
      <point x="340" y="666"/>
      <point x="372" y="661"/>
      <point x="394" y="652" type="curve" smooth="yes"/>
      <point x="417" y="644"/>
      <point x="428" y="641"/>
      <point x="440" y="641" type="curve" smooth="yes"/>
      <point x="462" y="641"/>
      <point x="471" y="646"/>
      <point x="485" y="667" type="curve"/>
      <point x="508" y="667" type="line"/>
      <point x="468" y="468" type="line"/>
      <point x="450" y="471" type="line"/>
      <point x="448" y="537"/>
      <point x="440" y="571"/>
      <point x="418" y="596" type="curve" smooth="yes"/>
      <point x="397" y="620"/>
      <point x="366" y="633"/>
      <point x="329" y="633" type="curve" smooth="yes"/>
      <point x="261" y="633"/>
      <point x="219" y="594"/>
      <point x="219" y="531" type="curve" smooth="yes"/>
      <point x="219" y="400"/>
      <point x="431" y="347"/>
      <point x="431" y="182" type="curve" smooth="yes"/>
      <point x="431" y="68"/>
      <point x="344" y="-18"/>
      <point x="229" y="-18" type="curve" smooth="yes"/>
      <point x="218" y="-18"/>
      <point x="210" y="-17"/>
    </contour>
  </outline>
</glyph>
<glyph name="uni0162" format="1">
  <advance width="555"/>
  <unicode hex="0162"/>
  <outline>
    <contour>
      <point x="355" y="16" type="curve"/>
      <point x="355" y="0" type="line"/>
      <point x="222" y="0" type="line"/>
      <point x="178" y="-66" type="line"/>
      <point x="188" y="-64"/>
      <point x="195" y="-63"/>
      <point x="203" y="-63" type="curve" smooth="yes"/>
      <point x="253" y="-63"/>
      <point x="285" y="-90"/>
      <point x="285" y="-131" type="curve" smooth="yes"/>
      <point x="285" y="-181"/>
      <point x="235" y="-217"/>
      <point x="166" y="-217" type="curve" smooth="yes"/>
      <point x="138" y="-217"/>
      <point x="115" y="-212"/>
      <point x="73" y="-196" type="curve"/>
      <point x="90" y="-167" type="line"/>
      <point x="120" y="-178"/>
      <point x="137" y="-182"/>
      <point x="158" y="-182" type="curve" smooth="yes"/>
      <point x="192" y="-182"/>
      <point x="211" y="-167"/>
      <point x="211" y="-141" type="curve" smooth="yes"/>
      <point x="211" y="-115"/>
      <point x="192" y="-97"/>
      <point x="165" y="-97" type="curve" smooth="yes"/>
      <point x="155" y="-97"/>
      <point x="147" y="-99"/>
      <point x="133" y="-104" type="curve"/>
      <point x="124" y="-96" type="line"/>
      <point x="184" y="0" type="line"/>
      <point x="65" y="0" type="line"/>
      <point x="65" y="16" type="line"/>
      <point x="131" y="21"/>
      <point x="155" y="37"/>
      <point x="171" y="90" type="curve" smooth="yes"/>
      <point x="315" y="618" type="line"/>
      <point x="307.622" y="618.096"/>
      <point x="300.525" y="618.149"/>
      <point x="293.693" y="618.149" type="curve" smooth="yes"/>
      <point x="158.865" y="618.149"/>
      <point x="127.444" y="597.792"/>
      <point x="77" y="495" type="curve"/>
      <point x="59" y="499" type="line"/>
      <point x="101" y="653" type="line"/>
      <point x="633" y="653" type="line"/>
      <point x="589" y="490" type="line"/>
      <point x="572" y="492" type="line"/>
      <point x="574" y="509"/>
      <point x="575" y="524"/>
      <point x="575" y="537" type="curve" smooth="yes"/>
      <point x="575" y="593"/>
      <point x="543" y="618"/>
      <point x="471" y="618" type="curve" smooth="yes"/>
      <point x="416" y="618" type="line"/>
      <point x="277" y="120" type="line" smooth="yes"/>
      <point x="268" y="86"/>
      <point x="265" y="74"/>
      <point x="265" y="61" type="curve" smooth="yes"/>
      <point x="265" y="21"/>
      <point x="287" y="21"/>
    </contour>
  </outline>
</glyph>
<glyph name="Tcaron" format="1">
  <advance width="555"/>
  <unicode hex="0164"/>
  <outline>
    <contour>
      <point x="355" y="16" type="curve"/>
      <point x="355" y="0" type="line"/>
      <point x="65" y="0" type="line"/>
      <point x="65" y="16" type="line"/>
      <point x="131" y="21"/>
      <point x="155" y="37"/>
      <point x="171" y="90" type="curve" smooth="yes"/>
      <point x="315" y="618" type="line"/>
      <point x="307.622" y="618.096"/>
      <point x="300.525" y="618.149"/>
      <point x="293.693" y="618.149" type="curve" smooth="yes"/>
      <point x="158.865" y="618.149"/>
      <point x="127.444" y="597.792"/>
      <point x="77" y="495" type="curve"/>
      <point x="59" y="499" type="line"/>
      <point x="101" y="653" type="line"/>
      <point x="633" y="653" type="line"/>
      <point x="589" y="490" type="line"/>
      <point x="572" y="492" type="line"/>
      <point x="574" y="509"/>
      <point x="575" y="524"/>
      <point x="575" y="537" type="curve" smooth="yes"/>
      <point x="575" y="593"/>
      <point x="543" y="618"/>
      <point x="471" y="618" type="curve" smooth="yes"/>
      <point x="416" y="618" type="line"/>
      <point x="277" y="120" type="line" smooth="yes"/>
      <point x="268" y="86"/>
      <point x="265" y="74"/>
      <point x="265" y="61" type="curve" smooth="yes"/>
      <point x="265" y="21"/>
      <point x="287" y="21"/>
    </contour>
    <contour>
      <point x="568" y="873" type="line"/>
      <point x="405" y="704" type="line"/>
      <point x="359" y="704" type="line"/>
      <point x="263" y="873" type="line"/>
      <point x="300" y="873" type="line"/>
      <point x="390" y="768" type="line"/>
      <point x="532" y="873" type="line"/>
    </contour>
  </outline>
</glyph>
<glyph name="Tbar" format="1">
  <advance width="556"/>
  <unicode hex="0166"/>
  <outline>
    <contour>
      <point x="633" y="653" type="line"/>
      <point x="589" y="490" type="line"/>
      <point x="572" y="492" type="line"/>
      <point x="574" y="505"/>
      <point x="575" y="518"/>
      <point x="575" y="531" type="curve" smooth="yes"/>
      <point x="575" y="610.078"/>
      <point x="522.282" y="618.66"/>
      <point x="464.36" y="618.66" type="curve" smooth="yes"/>
      <point x="448.302" y="618.66"/>
      <point x="431.845" y="618"/>
      <point x="416" y="618" type="curve"/>
      <point x="340" y="344" type="line"/>
      <point x="430" y="344" type="line"/>
      <point x="417" y="300" type="line"/>
      <point x="327" y="300" type="line"/>
      <point x="313" y="251"/>
      <point x="265" y="114"/>
      <point x="265" y="63" type="curve" smooth="yes"/>
      <point x="265" y="11"/>
      <point x="315" y="19"/>
      <point x="355" y="16" type="curve"/>
      <point x="355" y="0" type="line"/>
      <point x="65" y="0" type="line"/>
      <point x="65" y="16" type="line"/>
      <point x="121" y="21"/>
      <point x="155" y="30"/>
      <point x="171" y="90" type="curve" smooth="yes"/>
      <point x="228" y="300" type="line"/>
      <point x="139" y="300" type="line"/>
      <point x="152" y="344" type="line"/>
      <point x="240" y="344" type="line"/>
      <point x="315" y="618" type="line"/>
      <point x="309.055" y="618" type="line" smooth="yes"/>
      <point x="187.316" y="618"/>
      <point x="135.063" y="617.032"/>
      <point x="77" y="495" type="curve"/>
      <point x="59" y="499" type="line"/>
      <point x="101" y="653" type="line"/>
    </contour>
  </outline>
</glyph>
<glyph name="Ubreve" format="1">
  <advance width="722"/>
  <unicode hex="016C"/>
  <outline>
    <contour>
      <point x="765" y="637" type="line"/>
      <point x="683" y="620"/>
      <point x="682" y="560"/>
      <point x="661" y="488" type="curve" smooth="yes"/>
      <point x="578" y="203" type="line" smooth="yes"/>
      <point x="538" y="67"/>
      <point x="465" y="-18"/>
      <point x="315" y="-18" type="curve" smooth="yes"/>
      <point x="214" y="-18"/>
      <point x="102" y="37"/>
      <point x="102" y="151" type="curve" smooth="yes"/>
      <point x="102" y="228"/>
      <point x="154" y="394"/>
      <point x="176" y="473" type="curve" smooth="yes"/>
      <point x="184" y="499"/>
      <point x="205" y="569"/>
      <point x="205" y="594" type="curve" smooth="yes"/>
      <point x="205" y="637"/>
      <point x="159" y="635"/>
      <point x="127" y="637" type="curve"/>
      <point x="127" y="653" type="line"/>
      <point x="400" y="653" type="line"/>
      <point x="400" y="637" type="line"/>
      <point x="340" y="631"/>
      <point x="318" y="618"/>
      <point x="299" y="559" type="curve" smooth="yes"/>
      <point x="276" y="491"/>
      <point x="192" y="198"/>
      <point x="192" y="144" type="curve" smooth="yes"/>
      <point x="192" y="63"/>
      <point x="256" y="23"/>
      <point x="331" y="23" type="curve" smooth="yes"/>
      <point x="464" y="23"/>
      <point x="515" y="130"/>
      <point x="546" y="241" type="curve" smooth="yes"/>
      <point x="561" y="293"/>
      <point x="637" y="556"/>
      <point x="637" y="586" type="curve" smooth="yes"/>
      <point x="637" y="630"/>
      <point x="601" y="635"/>
      <point x="566" y="637" type="curve"/>
      <point x="566" y="653" type="line"/>
      <point x="765" y="653" type="line"/>
    </contour>
    <contour>
      <point x="672" y="861" type="line"/>
      <point x="642" y="777"/>
      <point x="586" y="705"/>
      <point x="489" y="705" type="curve" smooth="yes"/>
      <point x="424" y="705"/>
      <point x="382" y="742"/>
      <point x="382" y="808" type="curve" smooth="yes"/>
      <point x="382" y="821"/>
      <point x="385" y="850"/>
      <point x="391" y="861" type="curve"/>
      <point x="420" y="861" type="line"/>
      <point x="419" y="847" type="line" smooth="yes"/>
      <point x="418.886" y="844.914"/>
      <point x="418.83" y="842.868"/>
      <point x="418.83" y="840.862" type="curve" smooth="yes"/>
      <point x="418.83" y="789.991"/>
      <point x="455.01" y="765"/>
      <point x="506" y="765" type="curve" smooth="yes"/>
      <point x="578" y="765"/>
      <point x="608" y="806"/>
      <point x="643" y="861" type="curve"/>
    </contour>
  </outline>
</glyph>
<glyph name="Uring" format="1">
  <advance width="722"/>
  <unicode hex="016E"/>
  <outline>
    <contour>
      <point x="765" y="637" type="line"/>
      <point x="683" y="620"/>
      <point x="682" y="560"/>
      <point x="661" y="488" type="curve" smooth="yes"/>
      <point x="578" y="203" type="line" smooth="yes"/>
      <point x="538" y="67"/>
      <point x="465" y="-18"/>
      <point x="315" y="-18" type="curve" smooth="yes"/>
      <point x="214" y="-18"/>
      <point x="102" y="37"/>
      <point x="102" y="151" type="curve" smooth="yes"/>
      <point x="102" y="228"/>
      <point x="154" y="394"/>
      <point x="176" y="473" type="curve" smooth="yes"/>
      <point x="184" y="499"/>
      <point x="205" y="569"/>
      <point x="205" y="594" type="curve" smooth="yes"/>
      <point x="205" y="637"/>
      <point x="159" y="635"/>
      <point x="127" y="637" type="curve"/>
      <point x="127" y="653" type="line"/>
      <point x="400" y="653" type="line"/>
      <point x="400" y="637" type="line"/>
      <point x="340" y="631"/>
      <point x="318" y="618"/>
      <point x="299" y="559" type="curve" smooth="yes"/>
      <point x="276" y="491"/>
      <point x="192" y="198"/>
      <point x="192" y="144" type="curve" smooth="yes"/>
      <point x="192" y="63"/>
      <point x="256" y="23"/>
      <point x="331" y="23" type="curve" smooth="yes"/>
      <point x="464" y="23"/>
      <point x="515" y="130"/>
      <point x="546" y="241" type="curve" smooth="yes"/>
      <point x="561" y="293"/>
      <point x="637" y="556"/>
      <point x="637" y="586" type="curve" smooth="yes"/>
      <point x="637" y="630"/>
      <point x="601" y="635"/>
      <point x="566" y="637" type="curve"/>
      <point x="566" y="653" type="line"/>
      <point x="765" y="653" type="line"/>
    </contour>
    <contour>
      <point x="495" y="903" type="curve" smooth="yes"/>
      <point x="550" y="903"/>
      <point x="596" y="858"/>
      <point x="596" y="803" type="curve" smooth="yes"/>
      <point x="596" y="749"/>
      <point x="551" y="704"/>
      <point x="496" y="704" type="curve" smooth="yes"/>
      <point x="440" y="704"/>
      <point x="396" y="748"/>
      <point x="396" y="804" type="curve" smooth="yes"/>
      <point x="396" y="858"/>
      <point x="441" y="903"/>
    </contour>
    <contour>
      <point x="495" y="869" type="curve" smooth="yes"/>
      <point x="460" y="869"/>
      <point x="430" y="839"/>
      <point x="430" y="804" type="curve" smooth="yes"/>
      <point x="430" y="767"/>
      <point x="459" y="738"/>
      <point x="495" y="738" type="curve" smooth="yes"/>
      <point x="533" y="738"/>
      <point x="562" y="766"/>
      <point x="562" y="803" type="curve" smooth="yes"/>
      <point x="562" y="839"/>
      <point x="532" y="869"/>
    </contour>
  </outline>
</glyph>
<glyph name="Ydieresis" format="1">
  <advance width="555"/>
  <unicode hex="0178"/>
  <outline>
    <contour>
      <point x="367" y="16" type="curve"/>
      <point x="367" y="0" type="line"/>
      <point x="78" y="0" type="line"/>
      <point x="78" y="16" type="line"/>
      <point x="144" y="20"/>
      <point x="166" y="36"/>
      <point x="183" y="90" type="curve" smooth="yes"/>
      <point x="244" y="302" type="line"/>
      <point x="167" y="571" type="line" smooth="yes"/>
      <point x="150" y="626"/>
      <point x="147" y="629"/>
      <point x="91" y="637" type="curve"/>
      <point x="91" y="653" type="line"/>
      <point x="330" y="653" type="line"/>
      <point x="330" y="637" type="line"/>
      <point x="270" y="631"/>
      <point x="258" y="625"/>
      <point x="258" y="601" type="curve" smooth="yes"/>
      <point x="258" y="574"/>
      <point x="313" y="391"/>
      <point x="325" y="347" type="curve"/>
      <point x="462" y="513" type="line" smooth="yes"/>
      <point x="481" y="536"/>
      <point x="513" y="588"/>
      <point x="513" y="606" type="curve" smooth="yes"/>
      <point x="513" y="623"/>
      <point x="500" y="631"/>
      <point x="471" y="634" type="curve" smooth="yes"/>
      <point x="467" y="635"/>
      <point x="456" y="636"/>
      <point x="444" y="637" type="curve"/>
      <point x="444" y="653" type="line"/>
      <point x="633" y="653" type="line"/>
      <point x="633" y="637" type="line"/>
      <point x="603" y="623"/>
      <point x="595" y="616"/>
      <point x="563" y="576" type="curve" smooth="yes"/>
      <point x="344" y="306" type="line"/>
      <point x="344" y="306"/>
      <point x="278" y="99"/>
      <point x="278" y="56" type="curve" smooth="yes"/>
      <point x="278" y="18"/>
      <point x="315" y="20"/>
    </contour>
    <contour>
      <point x="297" y="818" type="curve" smooth="yes"/>
      <point x="322" y="818"/>
      <point x="345" y="794"/>
      <point x="345" y="769" type="curve" smooth="yes"/>
      <point x="345" y="742"/>
      <point x="323" y="720"/>
      <point x="296" y="720" type="curve" smooth="yes"/>
      <point x="269" y="720"/>
      <point x="247" y="742"/>
      <point x="247" y="770" type="curve" smooth="yes"/>
      <point x="247" y="796"/>
      <point x="269" y="818"/>
    </contour>
    <contour>
      <point x="497" y="818" type="curve" smooth="yes"/>
      <point x="522" y="818"/>
      <point x="545" y="794"/>
      <point x="545" y="769" type="curve" smooth="yes"/>
      <point x="545" y="742"/>
      <point x="523" y="720"/>
      <point x="496" y="720" type="curve" smooth="yes"/>
      <point x="469" y="720"/>
      <point x="447" y="742"/>
      <point x="447" y="770" type="curve" smooth="yes"/>
      <point x="447" y="796"/>
      <point x="469" y="818"/>
    </contour>
  </outline>
</glyph>
<glyph name="florin" format="1">
  <advance width="500"/>
  <unicode hex="0192"/>
  <outline>
    <contour>
      <point x="450" y="412" type="line"/>
      <point x="443" y="382" type="line"/>
      <point x="321" y="382" type="line"/>
      <point x="279" y="79" type="line" smooth="yes"/>
      <point x="257" y="-82"/>
      <point x="190" y="-182"/>
      <point x="104" y="-182" type="curve" smooth="yes"/>
      <point x="57" y="-182"/>
      <point x="25" y="-155"/>
      <point x="25" y="-116" type="curve" smooth="yes"/>
      <point x="25" y="-87"/>
      <point x="44" y="-67"/>
      <point x="69" y="-67" type="curve" smooth="yes"/>
      <point x="91" y="-67"/>
      <point x="109" y="-85"/>
      <point x="109" y="-105" type="curve" smooth="yes"/>
      <point x="109" y="-111"/>
      <point x="107" y="-118"/>
      <point x="101" y="-127" type="curve" smooth="yes"/>
      <point x="97" y="-134"/>
      <point x="95" y="-139"/>
      <point x="95" y="-143" type="curve" smooth="yes"/>
      <point x="95" y="-152"/>
      <point x="104" y="-159"/>
      <point x="116" y="-159" type="curve" smooth="yes"/>
      <point x="133" y="-159"/>
      <point x="149" y="-149"/>
      <point x="159" y="-134" type="curve" smooth="yes"/>
      <point x="176" y="-108"/>
      <point x="186" y="-63"/>
      <point x="198" y="39" type="curve" smooth="yes"/>
      <point x="237" y="382" type="line"/>
      <point x="125" y="382" type="line"/>
      <point x="132" y="412" type="line"/>
      <point x="241" y="412" type="line"/>
      <point x="260" y="524"/>
      <point x="279" y="576"/>
      <point x="318" y="625" type="curve" smooth="yes"/>
      <point x="348" y="662"/>
      <point x="385" y="682"/>
      <point x="425" y="682" type="curve" smooth="yes"/>
      <point x="472" y="682"/>
      <point x="507" y="653"/>
      <point x="507" y="613" type="curve" smooth="yes"/>
      <point x="507" y="586"/>
      <point x="490" y="566"/>
      <point x="467" y="566" type="curve" smooth="yes"/>
      <point x="445" y="566"/>
      <point x="426" y="584"/>
      <point x="426" y="605" type="curve" smooth="yes"/>
      <point x="426" y="611"/>
      <point x="428" y="616"/>
      <point x="433" y="625" type="curve" smooth="yes"/>
      <point x="437" y="632"/>
      <point x="439" y="637"/>
      <point x="439" y="639" type="curve" smooth="yes"/>
      <point x="439" y="647"/>
      <point x="430" y="653"/>
      <point x="418" y="653" type="curve" smooth="yes"/>
      <point x="396" y="653"/>
      <point x="378" y="640"/>
      <point x="365" y="617" type="curve" smooth="yes"/>
      <point x="349" y="586"/>
      <point x="342" y="553"/>
      <point x="324" y="412" type="curve"/>
    </contour>
  </outline>
</glyph>
<glyph name="uni01C3" format="1">
  <advance width="332"/>
  <unicode hex="01C3"/>
  <outline>
    <contour>
      <point x="137" y="177" type="curve"/>
      <point x="120" y="181" type="line"/>
      <point x="161" y="370"/>
      <point x="168" y="407"/>
      <point x="192" y="551" type="curve" smooth="yes"/>
      <point x="206" y="634"/>
      <point x="225" y="667"/>
      <point x="262" y="667" type="curve" smooth="yes"/>
      <point x="288" y="667"/>
      <point x="302" y="649"/>
      <point x="302" y="616" type="curve" smooth="yes"/>
      <point x="302" y="587"/>
      <point x="292" y="555"/>
      <point x="264" y="493" type="curve" smooth="yes"/>
      <point x="217" y="391"/>
      <point x="194" y="332"/>
    </contour>
    <contour>
      <point x="91" y="95" type="curve" smooth="yes"/>
      <point x="120" y="95"/>
      <point x="145" y="70"/>
      <point x="145" y="41" type="curve" smooth="yes"/>
      <point x="145" y="13"/>
      <point x="120" y="-11"/>
      <point x="90" y="-11" type="curve" smooth="yes"/>
      <point x="61" y="-11"/>
      <point x="39" y="12"/>
      <point x="39" y="43" type="curve" smooth="yes"/>
      <point x="39" y="70"/>
      <point x="64" y="95"/>
    </contour>
  </outline>
</glyph>
<glyph name="uni01CC" format="1">
  <advance width="777"/>
  <unicode hex="01CC"/>
  <outline>
    <contour>
      <point x="777" y="602" type="curve" smooth="yes"/>
      <point x="777" y="575"/>
      <point x="756" y="554"/>
      <point x="729" y="554" type="curve" smooth="yes"/>
      <point x="702" y="554"/>
      <point x="681" y="575"/>
      <point x="681" y="602" type="curve" smooth="yes"/>
      <point x="681" y="629"/>
      <point x="702" y="650"/>
      <point x="729" y="650" type="curve" smooth="yes"/>
      <point x="756" y="650"/>
      <point x="777" y="629"/>
    </contour>
    <contour>
      <point x="457" y="-141" type="curve" smooth="yes"/>
      <point x="457" y="-160"/>
      <point x="444" y="-162"/>
      <point x="444" y="-173" type="curve" smooth="yes"/>
      <point x="444" y="-180"/>
      <point x="450" y="-184"/>
      <point x="462" y="-184" type="curve" smooth="yes"/>
      <point x="502" y="-184"/>
      <point x="525" y="-140"/>
      <point x="559" y="-3" type="curve" smooth="yes"/>
      <point x="631" y="289" type="line" smooth="yes"/>
      <point x="642" y="332"/>
      <point x="647" y="359"/>
      <point x="647" y="369" type="curve" smooth="yes"/>
      <point x="647" y="379"/>
      <point x="644" y="388"/>
      <point x="640" y="392" type="curve" smooth="yes"/>
      <point x="634.929" y="396.226"/>
      <point x="622.715" y="400.452"/>
      <point x="608.188" y="400.452" type="curve" smooth="yes"/>
      <point x="605.526" y="400.452"/>
      <point x="602.787" y="400.31"/>
      <point x="600" y="400" type="curve" smooth="yes"/>
      <point x="573" y="400" type="line"/>
      <point x="573" y="416" type="line"/>
      <point x="604" y="417"/>
      <point x="654" y="425"/>
      <point x="743" y="441" type="curve"/>
      <point x="746" y="439" type="line"/>
      <point x="642" y="28" type="line" smooth="yes"/>
      <point x="602" y="-131"/>
      <point x="542" y="-207"/>
      <point x="455" y="-207" type="curve" smooth="yes"/>
      <point x="409" y="-207"/>
      <point x="376" y="-181"/>
      <point x="376" y="-146" type="curve" smooth="yes"/>
      <point x="376" y="-122"/>
      <point x="393" y="-104"/>
      <point x="416" y="-104" type="curve" smooth="yes"/>
      <point x="439" y="-104"/>
      <point x="457" y="-120"/>
    </contour>
    <contour>
      <point x="460" y="117" type="line"/>
      <point x="474" y="104" type="line"/>
      <point x="405" y="12"/>
      <point x="379" y="-9"/>
      <point x="334" y="-9" type="curve" smooth="yes"/>
      <point x="301" y="-9"/>
      <point x="287" y="7"/>
      <point x="287" y="45" type="curve" smooth="yes"/>
      <point x="287" y="55"/>
      <point x="290" y="69"/>
      <point x="303" y="120" type="curve" smooth="yes"/>
      <point x="347" y="285" type="line" smooth="yes"/>
      <point x="355" y="316"/>
      <point x="361" y="349"/>
      <point x="361" y="361" type="curve" smooth="yes"/>
      <point x="361" y="379"/>
      <point x="352" y="390"/>
      <point x="337" y="390" type="curve" smooth="yes"/>
      <point x="300" y="390"/>
      <point x="249" y="340"/>
      <point x="189" y="248" type="curve" smooth="yes"/>
      <point x="145" y="180"/>
      <point x="136" y="158"/>
      <point x="89" y="0" type="curve"/>
      <point x="14" y="0" type="line"/>
      <point x="110" y="350" type="line" smooth="yes"/>
      <point x="111" y="355"/>
      <point x="112" y="361"/>
      <point x="112" y="367" type="curve" smooth="yes"/>
      <point x="112" y="387"/>
      <point x="99" y="393"/>
      <point x="48" y="394" type="curve"/>
      <point x="48" y="410" type="line"/>
      <point x="135" y="426"/>
      <point x="156" y="430"/>
      <point x="210" y="441" type="curve"/>
      <point x="213" y="439" type="line"/>
      <point x="146" y="221" type="line"/>
      <point x="249" y="381"/>
      <point x="312" y="441"/>
      <point x="376" y="441" type="curve" smooth="yes"/>
      <point x="415" y="441"/>
      <point x="442" y="416"/>
      <point x="442" y="380" type="curve" smooth="yes"/>
      <point x="442" y="366"/>
      <point x="438" y="344"/>
      <point x="433" y="323" type="curve" smooth="yes"/>
      <point x="376" y="117" type="line" smooth="yes"/>
      <point x="362" y="61"/>
      <point x="362" y="61"/>
      <point x="362" y="54" type="curve" smooth="yes"/>
      <point x="362" y="46"/>
      <point x="370" y="38"/>
      <point x="378" y="38" type="curve" smooth="yes"/>
      <point x="392" y="38"/>
      <point x="410" y="54"/>
      <point x="439" y="91" type="curve" smooth="yes"/>
    </contour>
  </outline>
</glyph>
<glyph name="Ocaron" format="1">
  <advance width="721"/>
  <unicode hex="01D1"/>
  <outline>
    <contour>
      <point x="699" y="423" type="curve" smooth="yes"/>
      <point x="699" y="213"/>
      <point x="495" y="-18"/>
      <point x="279" y="-18" type="curve" smooth="yes"/>
      <point x="138" y="-18"/>
      <point x="60" y="94"/>
      <point x="60" y="227" type="curve" smooth="yes"/>
      <point x="60" y="422"/>
      <point x="264" y="666"/>
      <point x="467" y="666" type="curve" smooth="yes"/>
      <point x="612" y="666"/>
      <point x="699" y="565"/>
    </contour>
    <contour>
      <point x="594" y="472" type="curve" smooth="yes"/>
      <point x="594" y="559"/>
      <point x="561" y="633"/>
      <point x="463" y="633" type="curve" smooth="yes"/>
      <point x="277" y="633"/>
      <point x="165" y="335"/>
      <point x="165" y="181" type="curve" smooth="yes"/>
      <point x="165" y="97"/>
      <point x="197" y="15"/>
      <point x="295" y="15" type="curve" smooth="yes"/>
      <point x="482" y="15"/>
      <point x="594" y="317"/>
    </contour>
    <contour>
      <point x="663" y="872" type="line"/>
      <point x="500" y="703" type="line"/>
      <point x="454" y="703" type="line"/>
      <point x="358" y="872" type="line"/>
      <point x="395" y="872" type="line"/>
      <point x="485" y="767" type="line"/>
      <point x="627" y="872" type="line"/>
    </contour>
  </outline>
</glyph>
<glyph name="uni01D6" format="1">
  <advance width="500"/>
  <unicode hex="01D6"/>
  <outline>
    <contour>
      <point x="118" y="376" type="curve" smooth="yes"/>
      <point x="118" y="396"/>
      <point x="99" y="400"/>
      <point x="58" y="400" type="curve"/>
      <point x="58" y="414" type="line"/>
      <point x="115" y="421"/>
      <point x="151" y="428"/>
      <point x="208" y="441" type="curve"/>
      <point x="211" y="439" type="line"/>
      <point x="120" y="76" type="line" smooth="yes"/>
      <point x="119" y="73"/>
      <point x="119" y="71"/>
      <point x="119" y="67" type="curve" smooth="yes"/>
      <point x="119" y="52"/>
      <point x="128" y="42"/>
      <point x="140" y="42" type="curve" smooth="yes"/>
      <point x="172" y="42"/>
      <point x="221" y="93"/>
      <point x="281" y="188" type="curve" smooth="yes"/>
      <point x="327" y="261"/>
      <point x="334" y="277"/>
      <point x="391" y="432" type="curve"/>
      <point x="465" y="432" type="line"/>
      <point x="386" y="133" type="line" smooth="yes"/>
      <point x="367" y="61"/>
      <point x="367" y="61"/>
      <point x="367" y="55" type="curve" smooth="yes"/>
      <point x="367" y="44"/>
      <point x="371" y="38"/>
      <point x="378" y="38" type="curve" smooth="yes"/>
      <point x="394" y="38"/>
      <point x="409" y="52"/>
      <point x="461" y="117" type="curve"/>
      <point x="475" y="108" type="line"/>
      <point x="407" y="11"/>
      <point x="384" y="-9"/>
      <point x="337" y="-9" type="curve" smooth="yes"/>
      <point x="307" y="-9"/>
      <point x="289" y="9"/>
      <point x="289" y="39" type="curve" smooth="yes"/>
      <point x="289" y="60"/>
      <point x="305" y="129"/>
      <point x="334" y="236" type="curve"/>
      <point x="219" y="43"/>
      <point x="166" y="-11"/>
      <point x="95" y="-11" type="curve" smooth="yes"/>
      <point x="60" y="-11"/>
      <point x="42" y="8"/>
      <point x="42" y="44" type="curve" smooth="yes"/>
      <point x="42" y="62"/>
      <point x="49" y="96"/>
      <point x="67" y="167" type="curve" smooth="yes"/>
      <point x="104" y="309" type="line" smooth="yes"/>
      <point x="113" y="343"/>
      <point x="118" y="368"/>
    </contour>
    <contour>
      <point x="227" y="606" type="curve" smooth="yes"/>
      <point x="252" y="606"/>
      <point x="275" y="582"/>
      <point x="275" y="557" type="curve" smooth="yes"/>
      <point x="275" y="530"/>
      <point x="253" y="508"/>
      <point x="226" y="508" type="curve" smooth="yes"/>
      <point x="199" y="508"/>
      <point x="177" y="530"/>
      <point x="177" y="558" type="curve" smooth="yes"/>
      <point x="177" y="584"/>
      <point x="199" y="606"/>
    </contour>
    <contour>
      <point x="427" y="606" type="curve" smooth="yes"/>
      <point x="452" y="606"/>
      <point x="475" y="582"/>
      <point x="475" y="557" type="curve" smooth="yes"/>
      <point x="475" y="530"/>
      <point x="453" y="508"/>
      <point x="426" y="508" type="curve" smooth="yes"/>
      <point x="399" y="508"/>
      <point x="377" y="530"/>
      <point x="377" y="558" type="curve" smooth="yes"/>
      <point x="377" y="584"/>
      <point x="399" y="606"/>
    </contour>
    <contour>
      <point x="532" y="720" type="line"/>
      <point x="518" y="666" type="line"/>
      <point x="207" y="666" type="line"/>
      <point x="221" y="720" type="line"/>
    </contour>
  </outline>
</glyph>
<glyph name="Gcaron" format="1">
  <advance width="721"/>
  <unicode hex="01E6"/>
  <outline>
    <contour>
      <point x="722" y="303" type="line"/>
      <point x="664" y="300"/>
      <point x="641" y="290"/>
      <point x="625" y="231" type="curve" smooth="yes"/>
      <point x="576" y="44" type="line"/>
      <point x="512" y="4"/>
      <point x="421" y="-18"/>
      <point x="345" y="-18" type="curve" smooth="yes"/>
      <point x="192" y="-18"/>
      <point x="52" y="76"/>
      <point x="52" y="240" type="curve" smooth="yes"/>
      <point x="52" y="458"/>
      <point x="233" y="666"/>
      <point x="457" y="666" type="curve" smooth="yes"/>
      <point x="525" y="666"/>
      <point x="591" y="632"/>
      <point x="630" y="632" type="curve" smooth="yes"/>
      <point x="657" y="632"/>
      <point x="679" y="643"/>
      <point x="693" y="666" type="curve"/>
      <point x="708" y="662" type="line"/>
      <point x="659" y="465" type="line"/>
      <point x="641" y="468" type="line"/>
      <point x="634" y="573"/>
      <point x="563" y="632"/>
      <point x="461" y="632" type="curve" smooth="yes"/>
      <point x="263" y="632"/>
      <point x="162" y="390"/>
      <point x="162" y="221" type="curve" smooth="yes"/>
      <point x="162" y="94"/>
      <point x="235" y="19"/>
      <point x="364" y="19" type="curve" smooth="yes"/>
      <point x="403" y="19"/>
      <point x="439" y="27"/>
      <point x="469" y="53" type="curve" smooth="yes"/>
      <point x="493" y="74"/>
      <point x="534" y="231"/>
      <point x="534" y="266" type="curve" smooth="yes"/>
      <point x="534" y="302"/>
      <point x="481" y="301"/>
      <point x="456" y="303" type="curve"/>
      <point x="456" y="319" type="line"/>
      <point x="722" y="319" type="line"/>
    </contour>
    <contour>
      <point x="643" y="872" type="line"/>
      <point x="480" y="703" type="line"/>
      <point x="434" y="703" type="line"/>
      <point x="338" y="872" type="line"/>
      <point x="375" y="872" type="line"/>
      <point x="465" y="767" type="line"/>
      <point x="607" y="872" type="line"/>
    </contour>
  </outline>
</glyph>
<glyph name="uni01EA" format="1">
  <advance width="721"/>
  <unicode hex="01EA"/>
  <outline>
    <contour>
      <point x="399" y="-114" type="curve"/>
      <point x="416" y="-132" type="line"/>
      <point x="381" y="-183"/>
      <point x="339" y="-209"/>
      <point x="291" y="-209" type="curve" smooth="yes"/>
      <point x="239" y="-209"/>
      <point x="196" y="-166"/>
      <point x="196" y="-114" type="curve" smooth="yes"/>
      <point x="196" y="-76.2598"/>
      <point x="210.714" y="-47.3481"/>
      <point x="246.453" y="-15.9062" type="curve"/>
      <point x="126.047" y="0.010819"/>
      <point x="60" y="104.615"/>
      <point x="60" y="227" type="curve"/>
      <point x="60" y="422"/>
      <point x="264" y="666"/>
      <point x="467" y="666" type="curve" smooth="yes"/>
      <point x="612" y="666"/>
      <point x="699" y="565"/>
      <point x="699" y="423" type="curve" smooth="yes"/>
      <point x="699" y="213.139"/>
      <point x="495.27" y="-17.6938"/>
      <point x="279.43" y="-17.9997" type="curve"/>
      <point x="264.477" y="-45.5343"/>
      <point x="258.934" y="-88.359"/>
      <point x="257" y="-95" type="curve"/>
      <point x="257" y="-125"/>
      <point x="282" y="-146"/>
      <point x="316" y="-146" type="curve" smooth="yes"/>
      <point x="347" y="-146"/>
      <point x="372" y="-136"/>
    </contour>
    <contour>
      <point x="594" y="472" type="curve" smooth="yes"/>
      <point x="594" y="559"/>
      <point x="561" y="633"/>
      <point x="463" y="633" type="curve" smooth="yes"/>
      <point x="277" y="633"/>
      <point x="165" y="335"/>
      <point x="165" y="181" type="curve" smooth="yes"/>
      <point x="165" y="97"/>
      <point x="197" y="15"/>
      <point x="295" y="15" type="curve" smooth="yes"/>
      <point x="482" y="15"/>
      <point x="594" y="317"/>
    </contour>
  </outline>
</glyph>
<glyph name="uni01ED" format="1">
  <advance width="500"/>
  <unicode hex="01ED"/>
  <outline>
    <contour>
      <point x="514" y="586" type="line"/>
      <point x="500" y="532" type="line"/>
      <point x="189" y="532" type="line"/>
      <point x="203" y="586" type="line"/>
    </contour>
    <contour>
      <point x="313" y="-114" type="curve"/>
      <point x="330" y="-132" type="line"/>
      <point x="295" y="-183"/>
      <point x="253" y="-209"/>
      <point x="205" y="-209" type="curve" smooth="yes"/>
      <point x="153" y="-209"/>
      <point x="110" y="-166"/>
      <point x="110" y="-114" type="curve" smooth="yes"/>
      <point x="110" y="-74.2032"/>
      <point x="126.361" y="-44.2233"/>
      <point x="166.483" y="-10.7416" type="curve"/>
      <point x="80.2363" y="-6.80833"/>
      <point x="27" y="41.9849"/>
      <point x="27" y="133" type="curve" smooth="yes"/>
      <point x="27" y="278"/>
      <point x="173" y="441"/>
      <point x="321" y="441" type="curve" smooth="yes"/>
      <point x="414" y="441"/>
      <point x="468" y="385"/>
      <point x="468" y="293" type="curve" smooth="yes"/>
      <point x="468" y="162.507"/>
      <point x="331.912" y="4.79727"/>
      <point x="198" y="-9.89074" type="curve"/>
      <point x="180" y="-40.7275"/>
      <point x="171" y="-67.8637"/>
      <point x="171" y="-95" type="curve" smooth="yes"/>
      <point x="171" y="-125"/>
      <point x="196" y="-146"/>
      <point x="230" y="-146" type="curve" smooth="yes"/>
      <point x="261" y="-146"/>
      <point x="286" y="-136"/>
    </contour>
    <contour>
      <point x="384" y="324" type="curve" smooth="yes"/>
      <point x="384" y="368"/>
      <point x="366" y="420"/>
      <point x="314" y="420" type="curve" smooth="yes"/>
      <point x="193" y="420"/>
      <point x="111" y="203"/>
      <point x="111" y="103" type="curve" smooth="yes"/>
      <point x="111" y="53"/>
      <point x="136" y="10"/>
      <point x="191" y="10" type="curve" smooth="yes"/>
      <point x="310" y="10"/>
      <point x="384" y="227"/>
    </contour>
  </outline>
</glyph>
<glyph name="uni01F1" format="1">
  <advance width="1276"/>
  <unicode hex="01F1"/>
  <outline>
    <contour>
      <point x="1327" y="653" type="line"/>
      <point x="1327" y="639" type="line"/>
      <point x="844" y="36" type="line"/>
      <point x="1005" y="36" type="line" smooth="yes"/>
      <point x="1087" y="36"/>
      <point x="1137" y="44"/>
      <point x="1171" y="64" type="curve" smooth="yes"/>
      <point x="1205" y="83"/>
      <point x="1223" y="107"/>
      <point x="1255" y="171" type="curve"/>
      <point x="1274" y="168" type="line"/>
      <point x="1220" y="0" type="line"/>
      <point x="715" y="0" type="line"/>
      <point x="715" y="14" type="line"/>
      <point x="1194" y="617" type="line"/>
      <point x="1023" y="617" type="line" smooth="yes"/>
      <point x="948" y="617"/>
      <point x="895" y="604"/>
      <point x="866" y="580" type="curve" smooth="yes"/>
      <point x="847" y="563"/>
      <point x="835" y="546"/>
      <point x="814" y="502" type="curve"/>
      <point x="795" y="507" type="line"/>
      <point x="841" y="653" type="line"/>
    </contour>
    <contour>
      <point x="700" y="387" type="curve" smooth="yes"/>
      <point x="700" y="133"/>
      <point x="477" y="0"/>
      <point x="245" y="0" type="curve" smooth="yes"/>
      <point x="-8" y="0" type="line"/>
      <point x="-8" y="16" type="line"/>
      <point x="47" y="24"/>
      <point x="58" y="36"/>
      <point x="73" y="90" type="curve" smooth="yes"/>
      <point x="196" y="532" type="line" smooth="yes"/>
      <point x="202" y="552"/>
      <point x="207" y="573"/>
      <point x="207" y="594" type="curve" smooth="yes"/>
      <point x="207" y="635"/>
      <point x="160" y="635"/>
      <point x="130" y="637" type="curve"/>
      <point x="130" y="653" type="line"/>
      <point x="408" y="653" type="line" smooth="yes"/>
      <point x="572" y="653"/>
      <point x="700" y="559"/>
    </contour>
    <contour>
      <point x="589" y="399" type="curve" smooth="yes"/>
      <point x="589" y="538"/>
      <point x="524" y="623"/>
      <point x="378" y="623" type="curve" smooth="yes"/>
      <point x="376.375" y="623"/>
      <point x="374.73" y="623.004"/>
      <point x="373.073" y="623.004" type="curve" smooth="yes"/>
      <point x="348.215" y="623.004"/>
      <point x="320.5" y="622.125"/>
      <point x="313" y="594" type="curve" smooth="yes"/>
      <point x="192" y="162" type="line" smooth="yes"/>
      <point x="186" y="141"/>
      <point x="170" y="89"/>
      <point x="170" y="69" type="curve" smooth="yes"/>
      <point x="170" y="30.9048"/>
      <point x="207.188" y="29.9977"/>
      <point x="236.645" y="29.9977" type="curve" smooth="yes"/>
      <point x="238.118" y="29.9977"/>
      <point x="239.571" y="30"/>
      <point x="241" y="30" type="curve" smooth="yes"/>
      <point x="454" y="30"/>
      <point x="589" y="194"/>
    </contour>
  </outline>
</glyph>
<glyph name="uni01F2" format="1">
  <advance width="1109"/>
  <unicode hex="01F2"/>
  <outline>
    <contour>
      <point x="990" y="-81" type="curve" smooth="yes"/>
      <point x="914" y="-81"/>
      <point x="843" y="5"/>
      <point x="774" y="5" type="curve" smooth="yes"/>
      <point x="757" y="5"/>
      <point x="744" y="0"/>
      <point x="728" y="-13" type="curve"/>
      <point x="719" y="-4" type="line"/>
      <point x="1029" y="368" type="line"/>
      <point x="883" y="368" type="line" smooth="yes"/>
      <point x="836" y="368"/>
      <point x="823" y="359"/>
      <point x="802" y="309" type="curve"/>
      <point x="786" y="313" type="line"/>
      <point x="817" y="428" type="line"/>
      <point x="1101" y="428" type="line"/>
      <point x="1101" y="417" type="line"/>
      <point x="811" y="73" type="line"/>
      <point x="869" y="60"/>
      <point x="888" y="47"/>
      <point x="932" y="-10" type="curve" smooth="yes"/>
      <point x="965" y="-52"/>
      <point x="977" y="-60"/>
      <point x="1002" y="-60" type="curve" smooth="yes"/>
      <point x="1018" y="-60"/>
      <point x="1029" y="-54"/>
      <point x="1029" y="-45" type="curve" smooth="yes"/>
      <point x="1029" y="-35"/>
      <point x="1015" y="-20"/>
      <point x="1015" y="0" type="curve" smooth="yes"/>
      <point x="1015" y="18"/>
      <point x="1029" y="31"/>
      <point x="1049" y="31" type="curve" smooth="yes"/>
      <point x="1070" y="31"/>
      <point x="1084" y="16"/>
      <point x="1084" y="-5" type="curve" smooth="yes"/>
      <point x="1084" y="-45"/>
      <point x="1040" y="-81"/>
    </contour>
    <contour>
      <point x="700" y="387" type="curve" smooth="yes"/>
      <point x="700" y="133"/>
      <point x="477" y="0"/>
      <point x="245" y="0" type="curve" smooth="yes"/>
      <point x="-8" y="0" type="line"/>
      <point x="-8" y="16" type="line"/>
      <point x="47" y="24"/>
      <point x="58" y="36"/>
      <point x="73" y="90" type="curve" smooth="yes"/>
      <point x="196" y="532" type="line" smooth="yes"/>
      <point x="202" y="552"/>
      <point x="207" y="573"/>
      <point x="207" y="594" type="curve" smooth="yes"/>
      <point x="207" y="635"/>
      <point x="160" y="635"/>
      <point x="130" y="637" type="curve"/>
      <point x="130" y="653" type="line"/>
      <point x="408" y="653" type="line" smooth="yes"/>
      <point x="572" y="653"/>
      <point x="700" y="559"/>
    </contour>
    <contour>
      <point x="589" y="399" type="curve" smooth="yes"/>
      <point x="589" y="538"/>
      <point x="524" y="623"/>
      <point x="378" y="623" type="curve" smooth="yes"/>
      <point x="376.375" y="623"/>
      <point x="374.73" y="623.004"/>
      <point x="373.073" y="623.004" type="curve" smooth="yes"/>
      <point x="348.215" y="623.004"/>
      <point x="320.5" y="622.125"/>
      <point x="313" y="594" type="curve" smooth="yes"/>
      <point x="192" y="162" type="line" smooth="yes"/>
      <point x="186" y="141"/>
      <point x="170" y="89"/>
      <point x="170" y="69" type="curve" smooth="yes"/>
      <point x="170" y="30.9048"/>
      <point x="207.188" y="29.9977"/>
      <point x="236.645" y="29.9977" type="curve" smooth="yes"/>
      <point x="238.118" y="29.9977"/>
      <point x="239.571" y="30"/>
      <point x="241" y="30" type="curve" smooth="yes"/>
      <point x="454" y="30"/>
      <point x="589" y="194"/>
    </contour>
  </outline>
</glyph>
<glyph name="gacute" format="1">
  <advance width="500"/>
  <unicode hex="01F5"/>
  <outline>
    <contour>
      <point x="264" y="494" type="line"/>
      <point x="426" y="654" type="line" smooth="yes"/>
      <point x="433" y="660"/>
      <point x="441" y="664"/>
      <point x="451" y="664" type="curve" smooth="yes"/>
      <point x="471" y="664"/>
      <point x="487" y="648"/>
      <point x="487" y="628" type="curve" smooth="yes"/>
      <point x="487" y="616"/>
      <point x="482" y="607"/>
      <point x="470" y="600" type="curve" smooth="yes"/>
      <point x="299" y="494" type="line"/>
    </contour>
    <contour>
      <point x="297" y="441" type="curve" smooth="yes"/>
      <point x="375" y="441"/>
      <point x="396" y="405"/>
      <point x="411" y="405" type="curve" smooth="yes"/>
      <point x="472" y="405" type="line"/>
      <point x="472" y="366" type="line"/>
      <point x="422" y="366" type="line"/>
      <point x="428" y="346"/>
      <point x="431" y="326"/>
      <point x="431" y="310" type="curve" smooth="yes"/>
      <point x="431" y="232"/>
      <point x="337" y="151"/>
      <point x="246" y="151" type="curve" smooth="yes"/>
      <point x="222" y="151"/>
      <point x="214" y="155"/>
      <point x="208" y="155" type="curve" smooth="yes"/>
      <point x="195" y="155"/>
      <point x="172" y="129"/>
      <point x="172" y="114" type="curve" smooth="yes"/>
      <point x="172" y="99"/>
      <point x="198" y="83"/>
      <point x="242" y="72" type="curve" smooth="yes"/>
      <point x="337" y="47"/>
      <point x="385" y="3"/>
      <point x="385" y="-60" type="curve" smooth="yes"/>
      <point x="385" y="-147"/>
      <point x="301" y="-206"/>
      <point x="175" y="-206" type="curve" smooth="yes"/>
      <point x="74" y="-206"/>
      <point x="8" y="-161"/>
      <point x="8" y="-92" type="curve" smooth="yes"/>
      <point x="8" y="-46"/>
      <point x="26" y="-26"/>
      <point x="125" y="39" type="curve"/>
      <point x="106" y="53"/>
      <point x="98" y="65"/>
      <point x="98" y="78" type="curve" smooth="yes"/>
      <point x="98" y="102"/>
      <point x="116" y="122"/>
      <point x="175" y="162" type="curve"/>
      <point x="118" y="188"/>
      <point x="96" y="218"/>
      <point x="96" y="270" type="curve" smooth="yes"/>
      <point x="96" y="364"/>
      <point x="186" y="441"/>
    </contour>
    <contour>
      <point x="148" y="28" type="curve" smooth="yes"/>
      <point x="140" y="28"/>
      <point x="98" y="-5"/>
      <point x="85" y="-22" type="curve" smooth="yes"/>
      <point x="69" y="-41"/>
      <point x="63" y="-58"/>
      <point x="63" y="-82" type="curve" smooth="yes"/>
      <point x="63" y="-146"/>
      <point x="110" y="-184"/>
      <point x="190" y="-184" type="curve" smooth="yes"/>
      <point x="267" y="-184"/>
      <point x="325" y="-144"/>
      <point x="325" y="-90" type="curve" smooth="yes"/>
      <point x="325" y="-20"/>
      <point x="226" y="2"/>
      <point x="153" y="26" type="curve" smooth="yes"/>
      <point x="151" y="27"/>
      <point x="149" y="28"/>
    </contour>
    <contour>
      <point x="234" y="172" type="curve" smooth="yes"/>
      <point x="308" y="172"/>
      <point x="352" y="279"/>
      <point x="352" y="348" type="curve" smooth="yes"/>
      <point x="352" y="395"/>
      <point x="333" y="419"/>
      <point x="296" y="419" type="curve" smooth="yes"/>
      <point x="231" y="419"/>
      <point x="174" y="339"/>
      <point x="174" y="247" type="curve" smooth="yes"/>
      <point x="174" y="200"/>
      <point x="196" y="172"/>
    </contour>
  </outline>
</glyph>
<glyph name="aringacute" format="1">
  <advance width="500"/>
  <unicode hex="01FB"/>
  <outline>
    <contour>
      <point x="336" y="740" type="line"/>
      <point x="498" y="900" type="line" smooth="yes"/>
      <point x="505" y="906"/>
      <point x="513" y="910"/>
      <point x="523" y="910" type="curve" smooth="yes"/>
      <point x="543" y="910"/>
      <point x="559" y="894"/>
      <point x="559" y="874" type="curve" smooth="yes"/>
      <point x="559" y="862"/>
      <point x="554" y="853"/>
      <point x="542" y="846" type="curve" smooth="yes"/>
      <point x="371" y="740" type="line"/>
    </contour>
    <contour>
      <point x="476" y="100" type="line"/>
      <point x="445" y="62"/>
      <point x="393" y="-10"/>
      <point x="339" y="-10" type="curve" smooth="yes"/>
      <point x="307" y="-10"/>
      <point x="297" y="3"/>
      <point x="297" y="33" type="curve" smooth="yes"/>
      <point x="297" y="68"/>
      <point x="309" y="105"/>
      <point x="318" y="139" type="curve"/>
      <point x="316" y="141" type="line"/>
      <point x="271" y="74"/>
      <point x="210" y="-11"/>
      <point x="120" y="-11" type="curve" smooth="yes"/>
      <point x="45" y="-11"/>
      <point x="17" y="39"/>
      <point x="17" y="107" type="curve" smooth="yes"/>
      <point x="17" y="241"/>
      <point x="159" y="441"/>
      <point x="303" y="441" type="curve" smooth="yes"/>
      <point x="335" y="441"/>
      <point x="378" y="423"/>
      <point x="382" y="387" type="curve"/>
      <point x="384" y="387" type="line"/>
      <point x="394" y="431" type="line"/>
      <point x="397" y="434" type="line"/>
      <point x="458" y="441" type="line"/>
      <point x="465" y="438" type="line"/>
      <point x="447" y="368"/>
      <point x="370" y="102"/>
      <point x="370" y="54" type="curve" smooth="yes"/>
      <point x="370" y="46"/>
      <point x="377" y="41"/>
      <point x="384" y="41" type="curve" smooth="yes"/>
      <point x="401" y="41"/>
      <point x="452" y="98"/>
      <point x="464" y="110" type="curve"/>
    </contour>
    <contour>
      <point x="365" y="352" type="curve" smooth="yes"/>
      <point x="365" y="388"/>
      <point x="347" y="419"/>
      <point x="308" y="419" type="curve" smooth="yes"/>
      <point x="194" y="419"/>
      <point x="101" y="205"/>
      <point x="101" y="109" type="curve" smooth="yes"/>
      <point x="101" y="72"/>
      <point x="120" y="38"/>
      <point x="161" y="38" type="curve" smooth="yes"/>
      <point x="270" y="38"/>
      <point x="365" y="260"/>
    </contour>
    <contour>
      <point x="347" y="707" type="curve" smooth="yes"/>
      <point x="402" y="707"/>
      <point x="448" y="662"/>
      <point x="448" y="607" type="curve" smooth="yes"/>
      <point x="448" y="553"/>
      <point x="403" y="508"/>
      <point x="348" y="508" type="curve" smooth="yes"/>
      <point x="292" y="508"/>
      <point x="248" y="552"/>
      <point x="248" y="608" type="curve" smooth="yes"/>
      <point x="248" y="662"/>
      <point x="293" y="707"/>
    </contour>
    <contour>
      <point x="347" y="673" type="curve" smooth="yes"/>
      <point x="312" y="673"/>
      <point x="282" y="643"/>
      <point x="282" y="608" type="curve" smooth="yes"/>
      <point x="282" y="571"/>
      <point x="311" y="542"/>
      <point x="347" y="542" type="curve" smooth="yes"/>
      <point x="385" y="542"/>
      <point x="414" y="570"/>
      <point x="414" y="607" type="curve" smooth="yes"/>
      <point x="414" y="643"/>
      <point x="384" y="673"/>
    </contour>
  </outline>
</glyph>
<glyph name="uni0203" format="1">
  <advance width="500"/>
  <unicode hex="0203"/>
  <outline>
    <contour>
      <point x="460" y="492" type="curve"/>
      <point x="432" y="492" type="line"/>
      <point x="425" y="550"/>
      <point x="414" y="585"/>
      <point x="348" y="585" type="curve" smooth="yes"/>
      <point x="285" y="585"/>
      <point x="242" y="548"/>
      <point x="218" y="492" type="curve"/>
      <point x="191" y="492" type="line"/>
      <point x="206" y="577"/>
      <point x="272" y="643"/>
      <point x="361" y="643" type="curve" smooth="yes"/>
      <point x="431" y="643"/>
      <point x="464" y="604"/>
      <point x="464" y="536" type="curve" smooth="yes"/>
      <point x="464" y="521"/>
      <point x="462" y="506"/>
    </contour>
    <contour>
      <point x="476" y="100" type="line"/>
      <point x="445" y="62"/>
      <point x="393" y="-10"/>
      <point x="339" y="-10" type="curve" smooth="yes"/>
      <point x="307" y="-10"/>
      <point x="297" y="3"/>
      <point x="297" y="33" type="curve" smooth="yes"/>
      <point x="297" y="68"/>
      <point x="309" y="105"/>
      <point x="318" y="139" type="curve"/>
      <point x="316" y="141" type="line"/>
      <point x="271" y="74"/>
      <point x="210" y="-11"/>
      <point x="120" y="-11" type="curve" smooth="yes"/>
      <point x="45" y="-11"/>
      <point x="17" y="39"/>
      <point x="17" y="107" type="curve" smooth="yes"/>
      <point x="17" y="241"/>
      <point x="159" y="441"/>
      <point x="303" y="441" type="curve" smooth="yes"/>
      <point x="335" y="441"/>
      <point x="378" y="423"/>
      <point x="382" y="387" type="curve"/>
      <point x="384" y="387" type="line"/>
      <point x="394" y="431" type="line"/>
      <point x="397" y="434" type="line"/>
      <point x="458" y="441" type="line"/>
      <point x="465" y="438" type="line"/>
      <point x="447" y="368"/>
      <point x="370" y="102"/>
      <point x="370" y="54" type="curve" smooth="yes"/>
      <point x="370" y="46"/>
      <point x="377" y="41"/>
      <point x="384" y="41" type="curve" smooth="yes"/>
      <point x="401" y="41"/>
      <point x="452" y="98"/>
      <point x="464" y="110" type="curve"/>
    </contour>
    <contour>
      <point x="365" y="352" type="curve" smooth="yes"/>
      <point x="365" y="388"/>
      <point x="347" y="419"/>
      <point x="308" y="419" type="curve" smooth="yes"/>
      <point x="194" y="419"/>
      <point x="101" y="205"/>
      <point x="101" y="109" type="curve" smooth="yes"/>
      <point x="101" y="72"/>
      <point x="120" y="38"/>
      <point x="161" y="38" type="curve" smooth="yes"/>
      <point x="270" y="38"/>
      <point x="365" y="260"/>
    </contour>
  </outline>
</glyph>
<glyph name="uni020D" format="1">
  <advance width="500"/>
  <unicode hex="020D"/>
  <outline>
    <contour>
      <point x="271" y="492" type="line"/>
      <point x="131" y="598" type="line" smooth="yes"/>
      <point x="118" y="608"/>
      <point x="112" y="618"/>
      <point x="112" y="630" type="curve" smooth="yes"/>
      <point x="112" y="649"/>
      <point x="127" y="664"/>
      <point x="147" y="664" type="curve" smooth="yes"/>
      <point x="162" y="664"/>
      <point x="173" y="657"/>
      <point x="186" y="641" type="curve" smooth="yes"/>
      <point x="302" y="492" type="line"/>
    </contour>
    <contour>
      <point x="445" y="492" type="line"/>
      <point x="305" y="598" type="line" smooth="yes"/>
      <point x="292" y="608"/>
      <point x="286" y="618"/>
      <point x="286" y="630" type="curve" smooth="yes"/>
      <point x="286" y="649"/>
      <point x="301" y="664"/>
      <point x="321" y="664" type="curve" smooth="yes"/>
      <point x="336" y="664"/>
      <point x="347" y="657"/>
      <point x="360" y="641" type="curve" smooth="yes"/>
      <point x="476" y="492" type="line"/>
    </contour>
    <contour>
      <point x="468" y="293" type="curve" smooth="yes"/>
      <point x="468" y="156"/>
      <point x="318" y="-11"/>
      <point x="178" y="-11" type="curve" smooth="yes"/>
      <point x="85" y="-11"/>
      <point x="27" y="38"/>
      <point x="27" y="133" type="curve" smooth="yes"/>
      <point x="27" y="278"/>
      <point x="173" y="441"/>
      <point x="321" y="441" type="curve" smooth="yes"/>
      <point x="414" y="441"/>
      <point x="468" y="385"/>
    </contour>
    <contour>
      <point x="384" y="324" type="curve" smooth="yes"/>
      <point x="384" y="368"/>
      <point x="366" y="420"/>
      <point x="314" y="420" type="curve" smooth="yes"/>
      <point x="193" y="420"/>
      <point x="111" y="203"/>
      <point x="111" y="103" type="curve" smooth="yes"/>
      <point x="111" y="53"/>
      <point x="136" y="10"/>
      <point x="191" y="10" type="curve" smooth="yes"/>
      <point x="310" y="10"/>
      <point x="384" y="227"/>
    </contour>
  </outline>
</glyph>
<glyph name="uni0213" format="1">
  <advance width="388"/>
  <unicode hex="0213"/>
  <outline>
    <contour>
      <point x="404" y="492" type="curve"/>
      <point x="376" y="492" type="line"/>
      <point x="369" y="550"/>
      <point x="358" y="585"/>
      <point x="292" y="585" type="curve" smooth="yes"/>
      <point x="229" y="585"/>
      <point x="186" y="548"/>
      <point x="162" y="492" type="curve"/>
      <point x="135" y="492" type="line"/>
      <point x="150" y="577"/>
      <point x="216" y="643"/>
      <point x="305" y="643" type="curve" smooth="yes"/>
      <point x="375" y="643"/>
      <point x="408" y="604"/>
      <point x="408" y="536" type="curve" smooth="yes"/>
      <point x="408" y="521"/>
      <point x="406" y="506"/>
    </contour>
    <contour>
      <point x="366" y="340" type="curve" smooth="yes"/>
      <point x="322" y="340"/>
      <point x="336" y="376"/>
      <point x="314" y="376" type="curve" smooth="yes"/>
      <point x="297" y="376"/>
      <point x="269" y="345"/>
      <point x="236" y="289" type="curve" smooth="yes"/>
      <point x="190" y="213"/>
      <point x="173" y="170"/>
      <point x="121" y="0" type="curve"/>
      <point x="45" y="0" type="line"/>
      <point x="126" y="292" type="line" smooth="yes"/>
      <point x="140.44" y="342.92"/>
      <point x="142.173" y="355.718"/>
      <point x="142.173" y="365.074" type="curve" smooth="yes"/>
      <point x="142.173" y="368.029"/>
      <point x="142" y="370.64"/>
      <point x="142" y="374" type="curve" smooth="yes"/>
      <point x="142" y="392"/>
      <point x="129" y="402"/>
      <point x="107" y="402" type="curve" smooth="yes"/>
      <point x="100" y="402"/>
      <point x="97" y="402"/>
      <point x="73" y="397" type="curve"/>
      <point x="73" y="414" type="line"/>
      <point x="146" y="426"/>
      <point x="155" y="428"/>
      <point x="228" y="441" type="curve"/>
      <point x="231" y="439" type="line"/>
      <point x="178" y="222" type="line"/>
      <point x="192" y="258" type="line" smooth="yes"/>
      <point x="209" y="301"/>
      <point x="296" y="441"/>
      <point x="365" y="441" type="curve" smooth="yes"/>
      <point x="393" y="441"/>
      <point x="412" y="420"/>
      <point x="412" y="389" type="curve" smooth="yes"/>
      <point x="412" y="358"/>
      <point x="395" y="340"/>
    </contour>
  </outline>
</glyph>
<glyph name="uni0215" format="1">
  <advance width="500"/>
  <unicode hex="0215"/>
  <outline>
    <contour>
      <point x="239" y="492" type="line"/>
      <point x="99" y="598" type="line" smooth="yes"/>
      <point x="86" y="608"/>
      <point x="80" y="618"/>
      <point x="80" y="630" type="curve" smooth="yes"/>
      <point x="80" y="649"/>
      <point x="95" y="664"/>
      <point x="115" y="664" type="curve" smooth="yes"/>
      <point x="130" y="664"/>
      <point x="141" y="657"/>
      <point x="154" y="641" type="curve" smooth="yes"/>
      <point x="270" y="492" type="line"/>
    </contour>
    <contour>
      <point x="413" y="492" type="line"/>
      <point x="273" y="598" type="line" smooth="yes"/>
      <point x="260" y="608"/>
      <point x="254" y="618"/>
      <point x="254" y="630" type="curve" smooth="yes"/>
      <point x="254" y="649"/>
      <point x="269" y="664"/>
      <point x="289" y="664" type="curve" smooth="yes"/>
      <point x="304" y="664"/>
      <point x="315" y="657"/>
      <point x="328" y="641" type="curve" smooth="yes"/>
      <point x="444" y="492" type="line"/>
    </contour>
    <contour>
      <point x="118" y="376" type="curve" smooth="yes"/>
      <point x="118" y="396"/>
      <point x="99" y="400"/>
      <point x="58" y="400" type="curve"/>
      <point x="58" y="414" type="line"/>
      <point x="115" y="421"/>
      <point x="151" y="428"/>
      <point x="208" y="441" type="curve"/>
      <point x="211" y="439" type="line"/>
      <point x="120" y="76" type="line" smooth="yes"/>
      <point x="119" y="73"/>
      <point x="119" y="71"/>
      <point x="119" y="67" type="curve" smooth="yes"/>
      <point x="119" y="52"/>
      <point x="128" y="42"/>
      <point x="140" y="42" type="curve" smooth="yes"/>
      <point x="172" y="42"/>
      <point x="221" y="93"/>
      <point x="281" y="188" type="curve" smooth="yes"/>
      <point x="327" y="261"/>
      <point x="334" y="277"/>
      <point x="391" y="432" type="curve"/>
      <point x="465" y="432" type="line"/>
      <point x="386" y="133" type="line" smooth="yes"/>
      <point x="367" y="61"/>
      <point x="367" y="61"/>
      <point x="367" y="55" type="curve" smooth="yes"/>
      <point x="367" y="44"/>
      <point x="371" y="38"/>
      <point x="378" y="38" type="curve" smooth="yes"/>
      <point x="394" y="38"/>
      <point x="409" y="52"/>
      <point x="461" y="117" type="curve"/>
      <point x="475" y="108" type="line"/>
      <point x="407" y="11"/>
      <point x="384" y="-9"/>
      <point x="337" y="-9" type="curve" smooth="yes"/>
      <point x="307" y="-9"/>
      <point x="289" y="9"/>
      <point x="289" y="39" type="curve" smooth="yes"/>
      <point x="289" y="60"/>
      <point x="305" y="129"/>
      <point x="334" y="236" type="curve"/>
      <point x="219" y="43"/>
      <point x="166" y="-11"/>
      <point x="95" y="-11" type="curve" smooth="yes"/>
      <point x="60" y="-11"/>
      <point x="42" y="8"/>
      <point x="42" y="44" type="curve" smooth="yes"/>
      <point x="42" y="62"/>
      <point x="49" y="96"/>
      <point x="67" y="167" type="curve" smooth="yes"/>
      <point x="104" y="309" type="line" smooth="yes"/>
      <point x="113" y="343"/>
      <point x="118" y="368"/>
    </contour>
  </outline>
</glyph>
<glyph name="uni0219" format="1">
  <advance width="388"/>
  <unicode hex="0219"/>
  <outline>
    <contour>
      <point x="56" y="-212" type="curve"/>
      <point x="48" y="-197" type="line"/>
      <point x="88" y="-186"/>
      <point x="113" y="-167"/>
      <point x="113" y="-143" type="curve" smooth="yes"/>
      <point x="113" y="-139"/>
      <point x="113" y="-130"/>
      <point x="104" y="-125" type="curve" smooth="yes"/>
      <point x="86" y="-116"/>
      <point x="74" y="-106"/>
      <point x="74" y="-82" type="curve" smooth="yes"/>
      <point x="74" y="-58"/>
      <point x="94" y="-40"/>
      <point x="120" y="-40" type="curve" smooth="yes"/>
      <point x="150" y="-40"/>
      <point x="169" y="-67"/>
      <point x="169" y="-102" type="curve" smooth="yes"/>
      <point x="169" y="-155"/>
      <point x="126" y="-190"/>
    </contour>
    <contour>
      <point x="160" y="-11" type="curve" smooth="yes"/>
      <point x="121" y="-11"/>
      <point x="89" y="8"/>
      <point x="56" y="8" type="curve" smooth="yes"/>
      <point x="46" y="8"/>
      <point x="40" y="3"/>
      <point x="32" y="-13" type="curve"/>
      <point x="16" y="-13" type="line"/>
      <point x="36" y="146" type="line"/>
      <point x="52" y="146" type="line"/>
      <point x="68" y="51"/>
      <point x="99" y="10"/>
      <point x="154" y="10" type="curve" smooth="yes"/>
      <point x="198" y="10"/>
      <point x="228" y="42"/>
      <point x="228" y="87" type="curve" smooth="yes"/>
      <point x="228" y="116"/>
      <point x="211" y="151"/>
      <point x="172" y="202" type="curve" smooth="yes"/>
      <point x="130" y="256"/>
      <point x="109" y="299"/>
      <point x="109" y="331" type="curve" smooth="yes"/>
      <point x="109" y="398"/>
      <point x="157" y="441"/>
      <point x="230" y="441" type="curve" smooth="yes"/>
      <point x="267" y="441"/>
      <point x="300" y="424"/>
      <point x="322" y="424" type="curve" smooth="yes"/>
      <point x="336" y="424"/>
      <point x="344" y="428"/>
      <point x="352" y="442" type="curve"/>
      <point x="366" y="442" type="line"/>
      <point x="346" y="303" type="line"/>
      <point x="330" y="303" type="line"/>
      <point x="320" y="381"/>
      <point x="290" y="418"/>
      <point x="238" y="418" type="curve" smooth="yes"/>
      <point x="203" y="418"/>
      <point x="182" y="397"/>
      <point x="182" y="364" type="curve" smooth="yes"/>
      <point x="182" y="290"/>
      <point x="304" y="215"/>
      <point x="304" y="119" type="curve" smooth="yes"/>
      <point x="304" y="43"/>
      <point x="244" y="-11"/>
    </contour>
  </outline>
</glyph>
<glyph name="uni021A" format="1">
  <advance width="555"/>
  <unicode hex="021A"/>
  <outline>
    <contour>
      <point x="100" y="-212" type="curve"/>
      <point x="92" y="-197" type="line"/>
      <point x="132" y="-186"/>
      <point x="157" y="-167"/>
      <point x="157" y="-143" type="curve" smooth="yes"/>
      <point x="157" y="-139"/>
      <point x="157" y="-130"/>
      <point x="148" y="-125" type="curve" smooth="yes"/>
      <point x="130" y="-116"/>
      <point x="118" y="-106"/>
      <point x="118" y="-82" type="curve" smooth="yes"/>
      <point x="118" y="-58"/>
      <point x="138" y="-40"/>
      <point x="164" y="-40" type="curve" smooth="yes"/>
      <point x="194" y="-40"/>
      <point x="213" y="-67"/>
      <point x="213" y="-102" type="curve" smooth="yes"/>
      <point x="213" y="-155"/>
      <point x="170" y="-190"/>
    </contour>
    <contour>
      <point x="355" y="16" type="curve"/>
      <point x="355" y="0" type="line"/>
      <point x="65" y="0" type="line"/>
      <point x="65" y="16" type="line"/>
      <point x="131" y="21"/>
      <point x="155" y="37"/>
      <point x="171" y="90" type="curve" smooth="yes"/>
      <point x="315" y="618" type="line"/>
      <point x="307.622" y="618.096"/>
      <point x="300.525" y="618.149"/>
      <point x="293.693" y="618.149" type="curve" smooth="yes"/>
      <point x="158.865" y="618.149"/>
      <point x="127.444" y="597.792"/>
      <point x="77" y="495" type="curve"/>
      <point x="59" y="499" type="line"/>
      <point x="101" y="653" type="line"/>
      <point x="633" y="653" type="line"/>
      <point x="589" y="490" type="line"/>
      <point x="572" y="492" type="line"/>
      <point x="574" y="509"/>
      <point x="575" y="524"/>
      <point x="575" y="537" type="curve" smooth="yes"/>
      <point x="575" y="593"/>
      <point x="543" y="618"/>
      <point x="471" y="618" type="curve" smooth="yes"/>
      <point x="416" y="618" type="line"/>
      <point x="277" y="120" type="line" smooth="yes"/>
      <point x="268" y="86"/>
      <point x="265" y="74"/>
      <point x="265" y="61" type="curve" smooth="yes"/>
      <point x="265" y="21"/>
      <point x="287" y="21"/>
    </contour>
  </outline>
</glyph>
<glyph name="uni0223" format="1">
  <advance width="468"/>
  <unicode hex="0223"/>
  <outline>
    <contour>
      <point x="273" y="660" type="curve"/>
      <point x="275" y="645" type="line"/>
      <point x="232" y="622"/>
      <point x="200" y="597"/>
      <point x="200" y="540" type="curve" smooth="yes"/>
      <point x="200" y="478"/>
      <point x="273" y="423"/>
      <point x="327" y="389" type="curve"/>
      <point x="472" y="450"/>
      <point x="531" y="514"/>
      <point x="531" y="570" type="curve" smooth="yes"/>
      <point x="531" y="607"/>
      <point x="492" y="622"/>
      <point x="458" y="622" type="curve" smooth="yes"/>
      <point x="439" y="622"/>
      <point x="415" y="618"/>
      <point x="398" y="613" type="curve"/>
      <point x="397" y="622" type="line"/>
      <point x="503" y="683" type="line"/>
      <point x="538" y="674"/>
      <point x="578" y="650"/>
      <point x="578" y="606" type="curve" smooth="yes"/>
      <point x="578" y="520"/>
      <point x="517" y="448"/>
      <point x="349" y="376" type="curve"/>
      <point x="403" y="343"/>
      <point x="436" y="302"/>
      <point x="436" y="232" type="curve" smooth="yes"/>
      <point x="436" y="60"/>
      <point x="274" y="-11"/>
      <point x="186" y="-11" type="curve" smooth="yes"/>
      <point x="86" y="-11"/>
      <point x="22" y="51"/>
      <point x="22" y="133" type="curve" smooth="yes"/>
      <point x="22" y="272"/>
      <point x="186" y="329"/>
      <point x="237" y="350" type="curve"/>
      <point x="196" y="382"/>
      <point x="127" y="442"/>
      <point x="127" y="510" type="curve" smooth="yes"/>
      <point x="127" y="616"/>
      <point x="227" y="648"/>
    </contour>
    <contour>
      <point x="260" y="332" type="curve"/>
      <point x="178" y="294"/>
      <point x="101" y="223"/>
      <point x="101" y="124" type="curve" smooth="yes"/>
      <point x="101" y="57"/>
      <point x="149" y="10"/>
      <point x="199" y="10" type="curve" smooth="yes"/>
      <point x="273" y="10"/>
      <point x="366" y="74"/>
      <point x="366" y="181" type="curve" smooth="yes"/>
      <point x="366" y="249"/>
      <point x="326" y="288"/>
    </contour>
  </outline>
</glyph>
<glyph name="uni0229" format="1">
  <advance width="443"/>
  <unicode hex="0229"/>
  <outline>
    <contour>
      <point x="152" y="252" type="curve" smooth="yes"/>
      <point x="135" y="208" type="line"/>
      <point x="221" y="229"/>
      <point x="259" y="247"/>
      <point x="296" y="282" type="curve" smooth="yes"/>
      <point x="327" y="312"/>
      <point x="346" y="348"/>
      <point x="346" y="379" type="curve" smooth="yes"/>
      <point x="346" y="402"/>
      <point x="332" y="418"/>
      <point x="311" y="418" type="curve" smooth="yes"/>
      <point x="260" y="418"/>
      <point x="186" y="341"/>
    </contour>
    <contour>
      <point x="358" y="109" type="curve"/>
      <point x="370" y="97" type="line"/>
      <point x="317.797" y="37.7183"/>
      <point x="251.502" y="-1.20863"/>
      <point x="187.74" y="-9.39062" type="curve"/>
      <point x="150" y="-66" type="line"/>
      <point x="160" y="-64"/>
      <point x="167" y="-63"/>
      <point x="175" y="-63" type="curve" smooth="yes"/>
      <point x="225" y="-63"/>
      <point x="257" y="-90"/>
      <point x="257" y="-131" type="curve" smooth="yes"/>
      <point x="257" y="-181"/>
      <point x="207" y="-217"/>
      <point x="138" y="-217" type="curve" smooth="yes"/>
      <point x="110" y="-217"/>
      <point x="87" y="-212"/>
      <point x="45" y="-196" type="curve"/>
      <point x="62" y="-167" type="line"/>
      <point x="92" y="-178"/>
      <point x="109" y="-182"/>
      <point x="130" y="-182" type="curve" smooth="yes"/>
      <point x="164" y="-182"/>
      <point x="183" y="-167"/>
      <point x="183" y="-141" type="curve" smooth="yes"/>
      <point x="183" y="-115"/>
      <point x="164" y="-97"/>
      <point x="137" y="-97" type="curve" smooth="yes"/>
      <point x="127" y="-97"/>
      <point x="119" y="-99"/>
      <point x="105" y="-104" type="curve"/>
      <point x="96" y="-96" type="line"/>
      <point x="149.485" y="-10.4245" type="line"/>
      <point x="78.8313" y="-4.32228"/>
      <point x="31" y="49.7668"/>
      <point x="31" y="126" type="curve" smooth="yes"/>
      <point x="31" y="276"/>
      <point x="188" y="441"/>
      <point x="332" y="441" type="curve" smooth="yes"/>
      <point x="382" y="441"/>
      <point x="412" y="415"/>
      <point x="412" y="373" type="curve" smooth="yes"/>
      <point x="412" y="287"/>
      <point x="306" y="211"/>
      <point x="156" y="190" type="curve" smooth="yes"/>
      <point x="128" y="186" type="line"/>
      <point x="120" y="154"/>
      <point x="118" y="139"/>
      <point x="118" y="124" type="curve" smooth="yes"/>
      <point x="118" y="70"/>
      <point x="155" y="34"/>
      <point x="212" y="34" type="curve" smooth="yes"/>
      <point x="255" y="34"/>
      <point x="286" y="50"/>
    </contour>
  </outline>
</glyph>
<glyph name="uni02C0" format="1">
  <advance width="332"/>
  <unicode hex="02C0"/>
  <outline>
    <contour>
      <point x="394" y="675" type="curve" smooth="yes"/>
      <point x="394" y="606"/>
      <point x="295" y="561"/>
      <point x="270" y="530" type="curve" smooth="yes"/>
      <point x="263" y="521"/>
      <point x="256" y="508"/>
      <point x="250" y="492" type="curve"/>
      <point x="227" y="492" type="line"/>
      <point x="248" y="561"/>
      <point x="335" y="623"/>
      <point x="335" y="669" type="curve" smooth="yes"/>
      <point x="335" y="686"/>
      <point x="328" y="703"/>
      <point x="293" y="703" type="curve" smooth="yes"/>
      <point x="268.369" y="703"/>
      <point x="246.888" y="695.052"/>
      <point x="246.888" y="679.164" type="curve" smooth="yes"/>
      <point x="246.888" y="670.982"/>
      <point x="252" y="653.231"/>
      <point x="252" y="644" type="curve" smooth="yes"/>
      <point x="252" y="633"/>
      <point x="234" y="619"/>
      <point x="219" y="619" type="curve" smooth="yes"/>
      <point x="204" y="619"/>
      <point x="191" y="624"/>
      <point x="191" y="647" type="curve" smooth="yes"/>
      <point x="191" y="690"/>
      <point x="255" y="727"/>
      <point x="311" y="727" type="curve" smooth="yes"/>
      <point x="368" y="727"/>
      <point x="394" y="703"/>
    </contour>
  </outline>
</glyph>
<glyph name="ring" format="1">
  <advance width="332"/>
  <unicode hex="02DA"/>
  <outline>
    <contour>
      <point x="263" y="707" type="curve" smooth="yes"/>
      <point x="318" y="707"/>
      <point x="364" y="662"/>
      <point x="364" y="607" type="curve" smooth="yes"/>
      <point x="364" y="553"/>
      <point x="319" y="508"/>
      <point x="264" y="508" type="curve" smooth="yes"/>
      <point x="208" y="508"/>
      <point x="164" y="552"/>
      <point x="164" y="608" type="curve" smooth="yes"/>
      <point x="164" y="662"/>
      <point x="209" y="707"/>
    </contour>
    <contour>
      <point x="263" y="673" type="curve" smooth="yes"/>
      <point x="228" y="673"/>
      <point x="198" y="643"/>
      <point x="198" y="608" type="curve" smooth="yes"/>
      <point x="198" y="571"/>
      <point x="227" y="542"/>
      <point x="263" y="542" type="curve" smooth="yes"/>
      <point x="301" y="542"/>
      <point x="330" y="570"/>
      <point x="330" y="607" type="curve" smooth="yes"/>
      <point x="330" y="643"/>
      <point x="300" y="673"/>
    </contour>
  </outline>
</glyph>
<glyph name="tilde" format="1">
  <advance width="332"/>
  <unicode hex="02DC"/>
  <outline>
    <contour>
      <point x="399" y="624" type="curve"/>
      <point x="427" y="624" type="line"/>
      <point x="413" y="557"/>
      <point x="380" y="520"/>
      <point x="332" y="520" type="curve" smooth="yes"/>
      <point x="320" y="520"/>
      <point x="301" y="525"/>
      <point x="275" y="535" type="curve" smooth="yes"/>
      <point x="221" y="557"/>
      <point x="197" y="564"/>
      <point x="180" y="564" type="curve" smooth="yes"/>
      <point x="155" y="564"/>
      <point x="139" y="549"/>
      <point x="129" y="517" type="curve"/>
      <point x="100" y="517" type="line"/>
      <point x="120" y="594"/>
      <point x="148" y="623"/>
      <point x="200" y="623" type="curve" smooth="yes"/>
      <point x="222" y="623"/>
      <point x="248" y="616"/>
      <point x="286" y="599" type="curve" smooth="yes"/>
      <point x="316" y="585"/>
      <point x="333" y="580"/>
      <point x="348" y="580" type="curve" smooth="yes"/>
      <point x="375" y="580"/>
      <point x="388" y="591"/>
    </contour>
  </outline>
</glyph>
<glyph name="circumflexcomb" format="1">
  <advance width="0"/>
  <unicode hex="0302"/>
  <outline>
    <contour>
      <point x="-139" y="661" type="line"/>
      <point x="-51" y="492" type="line"/>
      <point x="-87" y="492" type="line"/>
      <point x="-169" y="596" type="line"/>
      <point x="-306" y="492" type="line"/>
      <point x="-345" y="492" type="line"/>
      <point x="-188" y="661" type="line"/>
    </contour>
  </outline>
</glyph>
<glyph name="tildecomb" format="1">
  <advance width="0"/>
  <unicode hex="0303"/>
  <outline>
    <contour>
      <point x="-37" y="624" type="curve"/>
      <point x="-9" y="624" type="line"/>
      <point x="-23" y="557"/>
      <point x="-56" y="520"/>
      <point x="-104" y="520" type="curve" smooth="yes"/>
      <point x="-116" y="520"/>
      <point x="-135" y="525"/>
      <point x="-161" y="535" type="curve" smooth="yes"/>
      <point x="-215" y="557"/>
      <point x="-239" y="564"/>
      <point x="-256" y="564" type="curve" smooth="yes"/>
      <point x="-281" y="564"/>
      <point x="-297" y="549"/>
      <point x="-307" y="517" type="curve"/>
      <point x="-336" y="517" type="line"/>
      <point x="-316" y="594"/>
      <point x="-288" y="623"/>
      <point x="-236" y="623" type="curve" smooth="yes"/>
      <point x="-214" y="623"/>
      <point x="-188" y="616"/>
      <point x="-150" y="599" type="curve" smooth="yes"/>
      <point x="-120" y="585"/>
      <point x="-103" y="580"/>
      <point x="-88" y="580" type="curve" smooth="yes"/>
      <point x="-61" y="580"/>
      <point x="-48" y="591"/>
    </contour>
  </outline>
</glyph>
<glyph name="macroncomb" format="1">
  <advance width="0"/>
  <unicode hex="0304"/>
  <outline>
    <contour>
      <point x="-19" y="586" type="line"/>
      <point x="-33" y="532" type="line"/>
      <point x="-344" y="532" type="line"/>
      <point x="-330" y="586" type="line"/>
    </contour>
  </outline>
</glyph>
<glyph name="dotabovecomb" format="1">
  <advance width="0"/>
  <unicode hex="0307"/>
  <outline>
    <contour>
      <point x="-132" y="556" type="curve" smooth="yes"/>
      <point x="-132" y="529"/>
      <point x="-153" y="508"/>
      <point x="-180" y="508" type="curve" smooth="yes"/>
      <point x="-207" y="508"/>
      <point x="-228" y="529"/>
      <point x="-228" y="556" type="curve" smooth="yes"/>
      <point x="-228" y="583"/>
      <point x="-207" y="604"/>
      <point x="-180" y="604" type="curve" smooth="yes"/>
      <point x="-153" y="604"/>
      <point x="-132" y="583"/>
    </contour>
  </outline>
</glyph>
<glyph name="doubleacutecomb" format="1">
  <advance width="0"/>
  <unicode hex="030B"/>
  <outline>
    <contour>
      <point x="-323" y="494" type="line"/>
      <point x="-161" y="654" type="line" smooth="yes"/>
      <point x="-154" y="660"/>
      <point x="-146" y="664"/>
      <point x="-136" y="664" type="curve" smooth="yes"/>
      <point x="-116" y="664"/>
      <point x="-100" y="648"/>
      <point x="-100" y="628" type="curve" smooth="yes"/>
      <point x="-100" y="616"/>
      <point x="-105" y="607"/>
      <point x="-117" y="600" type="curve" smooth="yes"/>
      <point x="-288" y="494" type="line"/>
    </contour>
    <contour>
      <point x="-153" y="494" type="line"/>
      <point x="9" y="654" type="line" smooth="yes"/>
      <point x="16" y="660"/>
      <point x="24" y="664"/>
      <point x="34" y="664" type="curve" smooth="yes"/>
      <point x="54" y="664"/>
      <point x="70" y="648"/>
      <point x="70" y="628" type="curve" smooth="yes"/>
      <point x="70" y="616"/>
      <point x="65" y="607"/>
      <point x="53" y="600" type="curve" smooth="yes"/>
      <point x="-118" y="494" type="line"/>
    </contour>
  </outline>
</glyph>
<glyph name="invertedbrevecomb" format="1">
  <advance width="0"/>
  <unicode hex="0311"/>
  <outline>
    <contour>
      <point x="-60" y="492" type="curve"/>
      <point x="-88" y="492" type="line"/>
      <point x="-95" y="550"/>
      <point x="-106" y="585"/>
      <point x="-172" y="585" type="curve" smooth="yes"/>
      <point x="-235" y="585"/>
      <point x="-278" y="548"/>
      <point x="-302" y="492" type="curve"/>
      <point x="-329" y="492" type="line"/>
      <point x="-314" y="577"/>
      <point x="-248" y="643"/>
      <point x="-159" y="643" type="curve" smooth="yes"/>
      <point x="-89" y="643"/>
      <point x="-56" y="604"/>
      <point x="-56" y="536" type="curve" smooth="yes"/>
      <point x="-56" y="521"/>
      <point x="-58" y="506"/>
    </contour>
  </outline>
</glyph>
<glyph name="uni0314" format="1">
  <advance width="0"/>
  <unicode hex="0314"/>
  <outline>
    <contour>
      <point x="-164" y="492" type="line"/>
      <point x="-199" y="512"/>
      <point x="-222" y="544"/>
      <point x="-222" y="588" type="curve" smooth="yes"/>
      <point x="-222" y="675"/>
      <point x="-156" y="702"/>
      <point x="-125" y="702" type="curve" smooth="yes"/>
      <point x="-89" y="702"/>
      <point x="-70" y="685"/>
      <point x="-70" y="654" type="curve" smooth="yes"/>
      <point x="-70" y="625"/>
      <point x="-93" y="605"/>
      <point x="-121" y="605" type="curve" smooth="yes"/>
      <point x="-129.571" y="605"/>
      <point x="-141.082" y="606.959"/>
      <point x="-151.799" y="606.959" type="curve" smooth="yes"/>
      <point x="-159.837" y="606.959"/>
      <point x="-167.429" y="605.857"/>
      <point x="-173" y="602" type="curve" smooth="yes"/>
      <point x="-182" y="596"/>
      <point x="-186" y="584"/>
      <point x="-186" y="566" type="curve" smooth="yes"/>
      <point x="-186" y="536"/>
      <point x="-162" y="517"/>
      <point x="-146" y="508" type="curve"/>
    </contour>
  </outline>
</glyph>
<glyph name="uni031B" format="1">
  <advance width="0"/>
  <unicode hex="031B"/>
  <outline>
    <contour>
      <point x="-86" y="390" type="curve" smooth="yes"/>
      <point x="-61" y="390"/>
      <point x="-35" y="401"/>
      <point x="-35" y="425" type="curve" smooth="yes"/>
      <point x="-35" y="437"/>
      <point x="-40" y="442"/>
      <point x="-44" y="451" type="curve" smooth="yes"/>
      <point x="-46" y="456"/>
      <point x="-52" y="466"/>
      <point x="-52" y="480" type="curve" smooth="yes"/>
      <point x="-52" y="504"/>
      <point x="-33" y="522"/>
      <point x="-7" y="522" type="curve" smooth="yes"/>
      <point x="20" y="522"/>
      <point x="40" y="503"/>
      <point x="40" y="476" type="curve" smooth="yes"/>
      <point x="40" y="392"/>
      <point x="-64" y="372"/>
      <point x="-87" y="372" type="curve" smooth="yes"/>
      <point x="-98" y="372"/>
      <point x="-102" y="374"/>
      <point x="-102" y="381" type="curve" smooth="yes"/>
      <point x="-102" y="390"/>
      <point x="-91" y="390"/>
    </contour>
  </outline>
</glyph>
